<?xml version="1.0" encoding="utf-8" standalone="no"?>
<!DOCTYPE svg PUBLIC "-//W3C//DTD SVG 1.1//EN"
  "http://www.w3.org/Graphics/SVG/1.1/DTD/svg11.dtd">
<!-- Created with matplotlib (https://matplotlib.org/) -->
<svg height="288pt" version="1.1" viewBox="0 0 432 288" width="432pt" xmlns="http://www.w3.org/2000/svg" xmlns:xlink="http://www.w3.org/1999/xlink">
 <metadata>
  <rdf:RDF xmlns:cc="http://creativecommons.org/ns#" xmlns:dc="http://purl.org/dc/elements/1.1/" xmlns:rdf="http://www.w3.org/1999/02/22-rdf-syntax-ns#">
   <cc:Work>
    <dc:type rdf:resource="http://purl.org/dc/dcmitype/StillImage"/>
    <dc:date>2021-05-18T20:39:47.225165</dc:date>
    <dc:format>image/svg+xml</dc:format>
    <dc:creator>
     <cc:Agent>
      <dc:title>Matplotlib v3.3.4, https://matplotlib.org/</dc:title>
     </cc:Agent>
    </dc:creator>
   </cc:Work>
  </rdf:RDF>
 </metadata>
 <defs>
  <style type="text/css">*{stroke-linecap:butt;stroke-linejoin:round;}</style>
 </defs>
 <g id="figure_1">
  <g id="patch_1">
   <path d="M 0 288 
L 432 288 
L 432 0 
L 0 0 
z
" style="fill:none;"/>
  </g>
  <g id="axes_1">
   <g id="patch_2">
    <path d="M 164.049386 107.6 
L 421.2 107.6 
L 421.2 26.8 
L 164.049386 26.8 
z
" style="fill:#ffffff;"/>
   </g>
   <g id="matplotlib.axis_1">
    <g id="xtick_1">
     <g id="line2d_1">
      <path clip-path="url(#p76778e2433)" d="M 175.73805 107.6 
L 175.73805 26.8 
" style="fill:none;stroke:#b0b0b0;stroke-linecap:square;stroke-width:0.8;"/>
     </g>
     <g id="line2d_2">
      <defs>
       <path d="M 0 0 
L 0 3.5 
" id="m9873573a75" style="stroke:#000000;stroke-width:0.8;"/>
      </defs>
      <g>
       <use style="stroke:#000000;stroke-width:0.8;" x="175.73805" xlink:href="#m9873573a75" y="107.6"/>
      </g>
     </g>
     <g id="text_1">
      <!-- 0 -->
      <g transform="translate(172.5568 122.198437)scale(0.1 -0.1)">
       <defs>
        <path d="M 31.78125 66.40625 
Q 24.171875 66.40625 20.328125 58.90625 
Q 16.5 51.421875 16.5 36.375 
Q 16.5 21.390625 20.328125 13.890625 
Q 24.171875 6.390625 31.78125 6.390625 
Q 39.453125 6.390625 43.28125 13.890625 
Q 47.125 21.390625 47.125 36.375 
Q 47.125 51.421875 43.28125 58.90625 
Q 39.453125 66.40625 31.78125 66.40625 
z
M 31.78125 74.21875 
Q 44.046875 74.21875 50.515625 64.515625 
Q 56.984375 54.828125 56.984375 36.375 
Q 56.984375 17.96875 50.515625 8.265625 
Q 44.046875 -1.421875 31.78125 -1.421875 
Q 19.53125 -1.421875 13.0625 8.265625 
Q 6.59375 17.96875 6.59375 36.375 
Q 6.59375 54.828125 13.0625 64.515625 
Q 19.53125 74.21875 31.78125 74.21875 
z
" id="DejaVuSans-48"/>
       </defs>
       <use xlink:href="#DejaVuSans-48"/>
      </g>
     </g>
    </g>
    <g id="xtick_2">
     <g id="line2d_3">
      <path clip-path="url(#p76778e2433)" d="M 222.586404 107.6 
L 222.586404 26.8 
" style="fill:none;stroke:#b0b0b0;stroke-linecap:square;stroke-width:0.8;"/>
     </g>
     <g id="line2d_4">
      <g>
       <use style="stroke:#000000;stroke-width:0.8;" x="222.586404" xlink:href="#m9873573a75" y="107.6"/>
      </g>
     </g>
     <g id="text_2">
      <!-- 100 -->
      <g transform="translate(213.042654 122.198437)scale(0.1 -0.1)">
       <defs>
        <path d="M 12.40625 8.296875 
L 28.515625 8.296875 
L 28.515625 63.921875 
L 10.984375 60.40625 
L 10.984375 69.390625 
L 28.421875 72.90625 
L 38.28125 72.90625 
L 38.28125 8.296875 
L 54.390625 8.296875 
L 54.390625 0 
L 12.40625 0 
z
" id="DejaVuSans-49"/>
       </defs>
       <use xlink:href="#DejaVuSans-49"/>
       <use x="63.623047" xlink:href="#DejaVuSans-48"/>
       <use x="127.246094" xlink:href="#DejaVuSans-48"/>
      </g>
     </g>
    </g>
    <g id="xtick_3">
     <g id="line2d_5">
      <path clip-path="url(#p76778e2433)" d="M 269.434758 107.6 
L 269.434758 26.8 
" style="fill:none;stroke:#b0b0b0;stroke-linecap:square;stroke-width:0.8;"/>
     </g>
     <g id="line2d_6">
      <g>
       <use style="stroke:#000000;stroke-width:0.8;" x="269.434758" xlink:href="#m9873573a75" y="107.6"/>
      </g>
     </g>
     <g id="text_3">
      <!-- 200 -->
      <g transform="translate(259.891008 122.198437)scale(0.1 -0.1)">
       <defs>
        <path d="M 19.1875 8.296875 
L 53.609375 8.296875 
L 53.609375 0 
L 7.328125 0 
L 7.328125 8.296875 
Q 12.9375 14.109375 22.625 23.890625 
Q 32.328125 33.6875 34.8125 36.53125 
Q 39.546875 41.84375 41.421875 45.53125 
Q 43.3125 49.21875 43.3125 52.78125 
Q 43.3125 58.59375 39.234375 62.25 
Q 35.15625 65.921875 28.609375 65.921875 
Q 23.96875 65.921875 18.8125 64.3125 
Q 13.671875 62.703125 7.8125 59.421875 
L 7.8125 69.390625 
Q 13.765625 71.78125 18.9375 73 
Q 24.125 74.21875 28.421875 74.21875 
Q 39.75 74.21875 46.484375 68.546875 
Q 53.21875 62.890625 53.21875 53.421875 
Q 53.21875 48.921875 51.53125 44.890625 
Q 49.859375 40.875 45.40625 35.40625 
Q 44.1875 33.984375 37.640625 27.21875 
Q 31.109375 20.453125 19.1875 8.296875 
z
" id="DejaVuSans-50"/>
       </defs>
       <use xlink:href="#DejaVuSans-50"/>
       <use x="63.623047" xlink:href="#DejaVuSans-48"/>
       <use x="127.246094" xlink:href="#DejaVuSans-48"/>
      </g>
     </g>
    </g>
    <g id="xtick_4">
     <g id="line2d_7">
      <path clip-path="url(#p76778e2433)" d="M 316.283112 107.6 
L 316.283112 26.8 
" style="fill:none;stroke:#b0b0b0;stroke-linecap:square;stroke-width:0.8;"/>
     </g>
     <g id="line2d_8">
      <g>
       <use style="stroke:#000000;stroke-width:0.8;" x="316.283112" xlink:href="#m9873573a75" y="107.6"/>
      </g>
     </g>
     <g id="text_4">
      <!-- 300 -->
      <g transform="translate(306.739362 122.198437)scale(0.1 -0.1)">
       <defs>
        <path d="M 40.578125 39.3125 
Q 47.65625 37.796875 51.625 33 
Q 55.609375 28.21875 55.609375 21.1875 
Q 55.609375 10.40625 48.1875 4.484375 
Q 40.765625 -1.421875 27.09375 -1.421875 
Q 22.515625 -1.421875 17.65625 -0.515625 
Q 12.796875 0.390625 7.625 2.203125 
L 7.625 11.71875 
Q 11.71875 9.328125 16.59375 8.109375 
Q 21.484375 6.890625 26.8125 6.890625 
Q 36.078125 6.890625 40.9375 10.546875 
Q 45.796875 14.203125 45.796875 21.1875 
Q 45.796875 27.640625 41.28125 31.265625 
Q 36.765625 34.90625 28.71875 34.90625 
L 20.21875 34.90625 
L 20.21875 43.015625 
L 29.109375 43.015625 
Q 36.375 43.015625 40.234375 45.921875 
Q 44.09375 48.828125 44.09375 54.296875 
Q 44.09375 59.90625 40.109375 62.90625 
Q 36.140625 65.921875 28.71875 65.921875 
Q 24.65625 65.921875 20.015625 65.03125 
Q 15.375 64.15625 9.8125 62.3125 
L 9.8125 71.09375 
Q 15.4375 72.65625 20.34375 73.4375 
Q 25.25 74.21875 29.59375 74.21875 
Q 40.828125 74.21875 47.359375 69.109375 
Q 53.90625 64.015625 53.90625 55.328125 
Q 53.90625 49.265625 50.4375 45.09375 
Q 46.96875 40.921875 40.578125 39.3125 
z
" id="DejaVuSans-51"/>
       </defs>
       <use xlink:href="#DejaVuSans-51"/>
       <use x="63.623047" xlink:href="#DejaVuSans-48"/>
       <use x="127.246094" xlink:href="#DejaVuSans-48"/>
      </g>
     </g>
    </g>
    <g id="xtick_5">
     <g id="line2d_9">
      <path clip-path="url(#p76778e2433)" d="M 363.131465 107.6 
L 363.131465 26.8 
" style="fill:none;stroke:#b0b0b0;stroke-linecap:square;stroke-width:0.8;"/>
     </g>
     <g id="line2d_10">
      <g>
       <use style="stroke:#000000;stroke-width:0.8;" x="363.131465" xlink:href="#m9873573a75" y="107.6"/>
      </g>
     </g>
     <g id="text_5">
      <!-- 400 -->
      <g transform="translate(353.587715 122.198437)scale(0.1 -0.1)">
       <defs>
        <path d="M 37.796875 64.3125 
L 12.890625 25.390625 
L 37.796875 25.390625 
z
M 35.203125 72.90625 
L 47.609375 72.90625 
L 47.609375 25.390625 
L 58.015625 25.390625 
L 58.015625 17.1875 
L 47.609375 17.1875 
L 47.609375 0 
L 37.796875 0 
L 37.796875 17.1875 
L 4.890625 17.1875 
L 4.890625 26.703125 
z
" id="DejaVuSans-52"/>
       </defs>
       <use xlink:href="#DejaVuSans-52"/>
       <use x="63.623047" xlink:href="#DejaVuSans-48"/>
       <use x="127.246094" xlink:href="#DejaVuSans-48"/>
      </g>
     </g>
    </g>
    <g id="xtick_6">
     <g id="line2d_11">
      <path clip-path="url(#p76778e2433)" d="M 409.979819 107.6 
L 409.979819 26.8 
" style="fill:none;stroke:#b0b0b0;stroke-linecap:square;stroke-width:0.8;"/>
     </g>
     <g id="line2d_12">
      <g>
       <use style="stroke:#000000;stroke-width:0.8;" x="409.979819" xlink:href="#m9873573a75" y="107.6"/>
      </g>
     </g>
     <g id="text_6">
      <!-- 500 -->
      <g transform="translate(400.436069 122.198437)scale(0.1 -0.1)">
       <defs>
        <path d="M 10.796875 72.90625 
L 49.515625 72.90625 
L 49.515625 64.59375 
L 19.828125 64.59375 
L 19.828125 46.734375 
Q 21.96875 47.46875 24.109375 47.828125 
Q 26.265625 48.1875 28.421875 48.1875 
Q 40.625 48.1875 47.75 41.5 
Q 54.890625 34.8125 54.890625 23.390625 
Q 54.890625 11.625 47.5625 5.09375 
Q 40.234375 -1.421875 26.90625 -1.421875 
Q 22.3125 -1.421875 17.546875 -0.640625 
Q 12.796875 0.140625 7.71875 1.703125 
L 7.71875 11.625 
Q 12.109375 9.234375 16.796875 8.0625 
Q 21.484375 6.890625 26.703125 6.890625 
Q 35.15625 6.890625 40.078125 11.328125 
Q 45.015625 15.765625 45.015625 23.390625 
Q 45.015625 31 40.078125 35.4375 
Q 35.15625 39.890625 26.703125 39.890625 
Q 22.75 39.890625 18.8125 39.015625 
Q 14.890625 38.140625 10.796875 36.28125 
z
" id="DejaVuSans-53"/>
       </defs>
       <use xlink:href="#DejaVuSans-53"/>
       <use x="63.623047" xlink:href="#DejaVuSans-48"/>
       <use x="127.246094" xlink:href="#DejaVuSans-48"/>
      </g>
     </g>
    </g>
    <g id="text_7">
     <!-- t -->
     <g transform="translate(290.664537 135.876562)scale(0.1 -0.1)">
      <defs>
       <path d="M 18.3125 70.21875 
L 18.3125 54.6875 
L 36.8125 54.6875 
L 36.8125 47.703125 
L 18.3125 47.703125 
L 18.3125 18.015625 
Q 18.3125 11.328125 20.140625 9.421875 
Q 21.96875 7.515625 27.59375 7.515625 
L 36.8125 7.515625 
L 36.8125 0 
L 27.59375 0 
Q 17.1875 0 13.234375 3.875 
Q 9.28125 7.765625 9.28125 18.015625 
L 9.28125 47.703125 
L 2.6875 47.703125 
L 2.6875 54.6875 
L 9.28125 54.6875 
L 9.28125 70.21875 
z
" id="DejaVuSans-116"/>
      </defs>
      <use xlink:href="#DejaVuSans-116"/>
     </g>
    </g>
   </g>
   <g id="matplotlib.axis_2">
    <g id="ytick_1">
     <g id="line2d_13">
      <path clip-path="url(#p76778e2433)" d="M 164.049386 103.927273 
L 421.2 103.927273 
" style="fill:none;stroke:#b0b0b0;stroke-linecap:square;stroke-width:0.8;"/>
     </g>
     <g id="line2d_14">
      <defs>
       <path d="M 0 0 
L -3.5 0 
" id="m2c454dce8b" style="stroke:#000000;stroke-width:0.8;"/>
      </defs>
      <g>
       <use style="stroke:#000000;stroke-width:0.8;" x="164.049386" xlink:href="#m2c454dce8b" y="103.927273"/>
      </g>
     </g>
     <g id="text_8">
      <!-- 0.0 -->
      <g transform="translate(141.146261 107.726491)scale(0.1 -0.1)">
       <defs>
        <path d="M 10.6875 12.40625 
L 21 12.40625 
L 21 0 
L 10.6875 0 
z
" id="DejaVuSans-46"/>
       </defs>
       <use xlink:href="#DejaVuSans-48"/>
       <use x="63.623047" xlink:href="#DejaVuSans-46"/>
       <use x="95.410156" xlink:href="#DejaVuSans-48"/>
      </g>
     </g>
    </g>
    <g id="ytick_2">
     <g id="line2d_15">
      <path clip-path="url(#p76778e2433)" d="M 164.049386 67.2 
L 421.2 67.2 
" style="fill:none;stroke:#b0b0b0;stroke-linecap:square;stroke-width:0.8;"/>
     </g>
     <g id="line2d_16">
      <g>
       <use style="stroke:#000000;stroke-width:0.8;" x="164.049386" xlink:href="#m2c454dce8b" y="67.2"/>
      </g>
     </g>
     <g id="text_9">
      <!-- 0.5 -->
      <g transform="translate(141.146261 70.999219)scale(0.1 -0.1)">
       <use xlink:href="#DejaVuSans-48"/>
       <use x="63.623047" xlink:href="#DejaVuSans-46"/>
       <use x="95.410156" xlink:href="#DejaVuSans-53"/>
      </g>
     </g>
    </g>
    <g id="ytick_3">
     <g id="line2d_17">
      <path clip-path="url(#p76778e2433)" d="M 164.049386 30.472727 
L 421.2 30.472727 
" style="fill:none;stroke:#b0b0b0;stroke-linecap:square;stroke-width:0.8;"/>
     </g>
     <g id="line2d_18">
      <g>
       <use style="stroke:#000000;stroke-width:0.8;" x="164.049386" xlink:href="#m2c454dce8b" y="30.472727"/>
      </g>
     </g>
     <g id="text_10">
      <!-- 1.0 -->
      <g transform="translate(141.146261 34.271946)scale(0.1 -0.1)">
       <use xlink:href="#DejaVuSans-49"/>
       <use x="63.623047" xlink:href="#DejaVuSans-46"/>
       <use x="95.410156" xlink:href="#DejaVuSans-48"/>
      </g>
     </g>
    </g>
    <g id="text_11">
     <!-- h(t) -->
     <g transform="translate(135.066573 76.230469)rotate(-90)scale(0.1 -0.1)">
      <defs>
       <path d="M 54.890625 33.015625 
L 54.890625 0 
L 45.90625 0 
L 45.90625 32.71875 
Q 45.90625 40.484375 42.875 44.328125 
Q 39.84375 48.1875 33.796875 48.1875 
Q 26.515625 48.1875 22.3125 43.546875 
Q 18.109375 38.921875 18.109375 30.90625 
L 18.109375 0 
L 9.078125 0 
L 9.078125 75.984375 
L 18.109375 75.984375 
L 18.109375 46.1875 
Q 21.34375 51.125 25.703125 53.5625 
Q 30.078125 56 35.796875 56 
Q 45.21875 56 50.046875 50.171875 
Q 54.890625 44.34375 54.890625 33.015625 
z
" id="DejaVuSans-104"/>
       <path d="M 31 75.875 
Q 24.46875 64.65625 21.28125 53.65625 
Q 18.109375 42.671875 18.109375 31.390625 
Q 18.109375 20.125 21.3125 9.0625 
Q 24.515625 -2 31 -13.1875 
L 23.1875 -13.1875 
Q 15.875 -1.703125 12.234375 9.375 
Q 8.59375 20.453125 8.59375 31.390625 
Q 8.59375 42.28125 12.203125 53.3125 
Q 15.828125 64.359375 23.1875 75.875 
z
" id="DejaVuSans-40"/>
       <path d="M 8.015625 75.875 
L 15.828125 75.875 
Q 23.140625 64.359375 26.78125 53.3125 
Q 30.421875 42.28125 30.421875 31.390625 
Q 30.421875 20.453125 26.78125 9.375 
Q 23.140625 -1.703125 15.828125 -13.1875 
L 8.015625 -13.1875 
Q 14.5 -2 17.703125 9.0625 
Q 20.90625 20.125 20.90625 31.390625 
Q 20.90625 42.671875 17.703125 53.65625 
Q 14.5 64.65625 8.015625 75.875 
z
" id="DejaVuSans-41"/>
      </defs>
      <use xlink:href="#DejaVuSans-104"/>
      <use x="63.378906" xlink:href="#DejaVuSans-40"/>
      <use x="102.392578" xlink:href="#DejaVuSans-116"/>
      <use x="141.601562" xlink:href="#DejaVuSans-41"/>
     </g>
    </g>
   </g>
   <g id="line2d_19">
    <path clip-path="url(#p76778e2433)" d="M 175.73805 30.472727 
L 176.206534 103.927273 
L 409.511336 103.927273 
L 409.511336 103.927273 
" style="fill:none;stroke:#1f77b4;stroke-linecap:square;stroke-width:1.5;"/>
   </g>
   <g id="patch_3">
    <path d="M 164.049386 107.6 
L 164.049386 26.8 
" style="fill:none;stroke:#000000;stroke-linecap:square;stroke-linejoin:miter;stroke-width:0.8;"/>
   </g>
   <g id="patch_4">
    <path d="M 421.2 107.6 
L 421.2 26.8 
" style="fill:none;stroke:#000000;stroke-linecap:square;stroke-linejoin:miter;stroke-width:0.8;"/>
   </g>
   <g id="patch_5">
    <path d="M 164.049386 107.6 
L 421.2 107.6 
" style="fill:none;stroke:#000000;stroke-linecap:square;stroke-linejoin:miter;stroke-width:0.8;"/>
   </g>
   <g id="patch_6">
    <path d="M 164.049386 26.8 
L 421.2 26.8 
" style="fill:none;stroke:#000000;stroke-linecap:square;stroke-linejoin:miter;stroke-width:0.8;"/>
   </g>
   <g id="text_12">
    <!-- Безинерционное звено -->
    <g transform="translate(219.522193 20.8)scale(0.12 -0.12)">
     <defs>
      <path d="M 51.125 21.4375 
Q 51.125 28.21875 47.28125 31.515625 
Q 43.453125 34.8125 35.5 34.8125 
L 19.671875 34.8125 
L 19.671875 8.109375 
L 35.5 8.109375 
Q 43.453125 8.109375 47.28125 11.40625 
Q 51.125 14.703125 51.125 21.4375 
z
M 56.390625 72.90625 
L 56.390625 64.796875 
L 19.671875 64.796875 
L 19.671875 42.921875 
L 35.984375 42.921875 
Q 48.25 42.921875 54.890625 37.59375 
Q 61.53125 32.28125 61.53125 21.4375 
Q 61.53125 10.640625 55.109375 5.3125 
Q 48.6875 0 35.984375 0 
L 9.8125 0 
L 9.8125 72.90625 
z
" id="DejaVuSans-1041"/>
      <path d="M 56.203125 29.59375 
L 56.203125 25.203125 
L 14.890625 25.203125 
Q 15.484375 15.921875 20.484375 11.0625 
Q 25.484375 6.203125 34.421875 6.203125 
Q 39.59375 6.203125 44.453125 7.46875 
Q 49.3125 8.734375 54.109375 11.28125 
L 54.109375 2.78125 
Q 49.265625 0.734375 44.1875 -0.34375 
Q 39.109375 -1.421875 33.890625 -1.421875 
Q 20.796875 -1.421875 13.15625 6.1875 
Q 5.515625 13.8125 5.515625 26.8125 
Q 5.515625 40.234375 12.765625 48.109375 
Q 20.015625 56 32.328125 56 
Q 43.359375 56 49.78125 48.890625 
Q 56.203125 41.796875 56.203125 29.59375 
z
M 47.21875 32.234375 
Q 47.125 39.59375 43.09375 43.984375 
Q 39.0625 48.390625 32.421875 48.390625 
Q 24.90625 48.390625 20.390625 44.140625 
Q 15.875 39.890625 15.1875 32.171875 
z
" id="DejaVuSans-1077"/>
      <path d="M 34.46875 29.5 
Q 40.53125 28.328125 43.890625 24.75 
Q 47.265625 21.1875 47.265625 15.921875 
Q 47.265625 7.46875 40.96875 3.015625 
Q 34.671875 -1.421875 23.046875 -1.421875 
Q 19.140625 -1.421875 15.015625 -0.734375 
Q 10.890625 -0.046875 6.5 1.3125 
L 6.5 9.671875 
Q 9.96875 7.859375 14.109375 6.953125 
Q 18.265625 6.0625 22.796875 6.0625 
Q 30.171875 6.0625 34.296875 8.796875 
Q 38.421875 11.53125 38.421875 15.921875 
Q 38.421875 20.21875 34.765625 22.828125 
Q 31.109375 25.4375 24.421875 25.4375 
L 17.1875 25.4375 
L 17.1875 32.859375 
L 24.75 32.859375 
Q 30.421875 32.859375 33.71875 35.03125 
Q 37.015625 37.203125 37.015625 40.625 
Q 37.015625 43.75 33.609375 46 
Q 30.21875 48.25 24.421875 48.25 
Q 20.953125 48.25 17.015625 47.609375 
Q 13.09375 46.96875 8.34375 45.5625 
L 8.34375 53.71875 
Q 13.140625 54.890625 17.28125 55.46875 
Q 21.4375 56.0625 25.140625 56.0625 
Q 34.71875 56.0625 40.25 52.21875 
Q 45.796875 48.390625 45.796875 41.5 
Q 45.796875 36.96875 42.859375 33.8125 
Q 39.9375 30.671875 34.46875 29.5 
z
" id="DejaVuSans-1079"/>
      <path d="M 55.90625 54.6875 
L 55.90625 0 
L 46.96875 0 
L 46.96875 43.890625 
L 20.609375 0 
L 9.078125 0 
L 9.078125 54.6875 
L 18.015625 54.6875 
L 18.015625 10.890625 
L 44.34375 54.6875 
z
" id="DejaVuSans-1080"/>
      <path d="M 9.078125 54.6875 
L 18.109375 54.6875 
L 18.109375 32.375 
L 47.265625 32.375 
L 47.265625 54.6875 
L 56.296875 54.6875 
L 56.296875 0 
L 47.265625 0 
L 47.265625 25.203125 
L 18.109375 25.203125 
L 18.109375 0 
L 9.078125 0 
z
" id="DejaVuSans-1085"/>
      <path d="M 18.109375 8.203125 
L 18.109375 -20.796875 
L 9.078125 -20.796875 
L 9.078125 54.6875 
L 18.109375 54.6875 
L 18.109375 46.390625 
Q 20.953125 51.265625 25.265625 53.625 
Q 29.59375 56 35.59375 56 
Q 45.5625 56 51.78125 48.09375 
Q 58.015625 40.1875 58.015625 27.296875 
Q 58.015625 14.40625 51.78125 6.484375 
Q 45.5625 -1.421875 35.59375 -1.421875 
Q 29.59375 -1.421875 25.265625 0.953125 
Q 20.953125 3.328125 18.109375 8.203125 
z
M 48.6875 27.296875 
Q 48.6875 37.203125 44.609375 42.84375 
Q 40.53125 48.484375 33.40625 48.484375 
Q 26.265625 48.484375 22.1875 42.84375 
Q 18.109375 37.203125 18.109375 27.296875 
Q 18.109375 17.390625 22.1875 11.75 
Q 26.265625 6.109375 33.40625 6.109375 
Q 40.53125 6.109375 44.609375 11.75 
Q 48.6875 17.390625 48.6875 27.296875 
z
" id="DejaVuSans-1088"/>
      <path d="M 56.296875 0 
L 9.078125 0 
L 9.078125 54.6875 
L 18.109375 54.6875 
L 18.109375 7.171875 
L 47.265625 7.171875 
L 47.265625 54.6875 
L 56.296875 54.6875 
L 56.296875 7.171875 
L 63.484375 7.171875 
L 63.484375 -13.8125 
L 56.296875 -13.8125 
z
" id="DejaVuSans-1094"/>
      <path d="M 30.609375 48.390625 
Q 23.390625 48.390625 19.1875 42.75 
Q 14.984375 37.109375 14.984375 27.296875 
Q 14.984375 17.484375 19.15625 11.84375 
Q 23.34375 6.203125 30.609375 6.203125 
Q 37.796875 6.203125 41.984375 11.859375 
Q 46.1875 17.53125 46.1875 27.296875 
Q 46.1875 37.015625 41.984375 42.703125 
Q 37.796875 48.390625 30.609375 48.390625 
z
M 30.609375 56 
Q 42.328125 56 49.015625 48.375 
Q 55.71875 40.765625 55.71875 27.296875 
Q 55.71875 13.875 49.015625 6.21875 
Q 42.328125 -1.421875 30.609375 -1.421875 
Q 18.84375 -1.421875 12.171875 6.21875 
Q 5.515625 13.875 5.515625 27.296875 
Q 5.515625 40.765625 12.171875 48.375 
Q 18.84375 56 30.609375 56 
z
" id="DejaVuSans-1086"/>
      <path id="DejaVuSans-32"/>
      <path d="M 18.0625 25.203125 
L 18.0625 7.171875 
L 30.859375 7.171875 
Q 37.015625 7.171875 40.234375 9.484375 
Q 43.453125 11.8125 43.453125 16.21875 
Q 43.453125 20.609375 40.234375 22.90625 
Q 37.015625 25.203125 30.859375 25.203125 
z
M 18.0625 47.515625 
L 18.0625 32.375 
L 29.890625 32.375 
Q 34.96875 32.375 38.1875 34.390625 
Q 41.40625 36.421875 41.40625 40.046875 
Q 41.40625 43.65625 38.1875 45.578125 
Q 34.96875 47.515625 29.890625 47.515625 
z
M 9.078125 54.6875 
L 30.46875 54.6875 
Q 40.09375 54.6875 45.265625 51.171875 
Q 50.4375 47.65625 50.4375 41.15625 
Q 50.4375 36.140625 47.796875 33.171875 
Q 45.171875 30.21875 39.984375 29.5 
Q 46.1875 28.328125 49.609375 24.609375 
Q 53.03125 20.90625 53.03125 15.328125 
Q 53.03125 8.015625 47.390625 4 
Q 41.75 0 31.296875 0 
L 9.078125 0 
z
" id="DejaVuSans-1074"/>
     </defs>
     <use xlink:href="#DejaVuSans-1041"/>
     <use x="68.603516" xlink:href="#DejaVuSans-1077"/>
     <use x="130.126953" xlink:href="#DejaVuSans-1079"/>
     <use x="183.300781" xlink:href="#DejaVuSans-1080"/>
     <use x="248.291016" xlink:href="#DejaVuSans-1085"/>
     <use x="313.671875" xlink:href="#DejaVuSans-1077"/>
     <use x="375.195312" xlink:href="#DejaVuSans-1088"/>
     <use x="438.671875" xlink:href="#DejaVuSans-1094"/>
     <use x="506.738281" xlink:href="#DejaVuSans-1080"/>
     <use x="571.728516" xlink:href="#DejaVuSans-1086"/>
     <use x="632.910156" xlink:href="#DejaVuSans-1085"/>
     <use x="698.291016" xlink:href="#DejaVuSans-1085"/>
     <use x="763.671875" xlink:href="#DejaVuSans-1086"/>
     <use x="824.853516" xlink:href="#DejaVuSans-1077"/>
     <use x="886.376953" xlink:href="#DejaVuSans-32"/>
     <use x="918.164062" xlink:href="#DejaVuSans-1079"/>
     <use x="971.337891" xlink:href="#DejaVuSans-1074"/>
     <use x="1030.273438" xlink:href="#DejaVuSans-1077"/>
     <use x="1091.796875" xlink:href="#DejaVuSans-1085"/>
     <use x="1157.177734" xlink:href="#DejaVuSans-1086"/>
    </g>
   </g>
  </g>
  <g id="axes_2">
   <g id="patch_7">
    <path d="M 60.175 107.6 
L 109.576843 107.6 
L 109.576843 26.8 
L 60.175 26.8 
z
" style="fill:#ffffff;"/>
   </g>
   <g id="PolyCollection_1">
    <path clip-path="url(#p3c9b9dded3)" d="M 62.420538 103.927273 
L 62.420538 30.472727 
L 62.874182 103.927273 
L 63.327827 103.927273 
L 63.781471 103.927273 
L 64.235115 103.927273 
L 64.688759 103.927273 
L 65.142403 103.927273 
L 65.596047 103.927273 
L 66.049691 103.927273 
L 66.503335 103.927273 
L 66.956979 103.927273 
L 67.410623 103.927273 
L 67.864268 103.927273 
L 68.317912 103.927273 
L 68.771556 103.927273 
L 69.2252 103.927273 
L 69.678844 103.927273 
L 70.132488 103.927273 
L 70.586132 103.927273 
L 71.039776 103.927273 
L 71.49342 103.927273 
L 71.947064 103.927273 
L 72.400709 103.927273 
L 72.854353 103.927273 
L 73.307997 103.927273 
L 73.761641 103.927273 
L 74.215285 103.927273 
L 74.668929 103.927273 
L 75.122573 103.927273 
L 75.576217 103.927273 
L 76.029861 103.927273 
L 76.483505 103.927273 
L 76.93715 103.927273 
L 77.390794 103.927273 
L 77.844438 103.927273 
L 78.298082 103.927273 
L 78.751726 103.927273 
L 79.20537 103.927273 
L 79.659014 103.927273 
L 80.112658 103.927273 
L 80.566302 103.927273 
L 81.019946 103.927273 
L 81.473591 103.927273 
L 81.927235 103.927273 
L 82.380879 103.927273 
L 82.834523 103.927273 
L 83.288167 103.927273 
L 83.741811 103.927273 
L 84.195455 103.927273 
L 84.649099 103.927273 
L 85.102743 103.927273 
L 85.556387 103.927273 
L 86.010032 103.927273 
L 86.463676 103.927273 
L 86.91732 103.927273 
L 87.370964 103.927273 
L 87.824608 103.927273 
L 88.278252 103.927273 
L 88.731896 103.927273 
L 89.18554 103.927273 
L 89.639184 103.927273 
L 90.092828 103.927273 
L 90.546473 103.927273 
L 91.000117 103.927273 
L 91.453761 103.927273 
L 91.907405 103.927273 
L 92.361049 103.927273 
L 92.814693 103.927273 
L 93.268337 103.927273 
L 93.721981 103.927273 
L 94.175625 103.927273 
L 94.62927 103.927273 
L 95.082914 103.927273 
L 95.536558 103.927273 
L 95.990202 103.927273 
L 96.443846 103.927273 
L 96.89749 103.927273 
L 97.351134 103.927273 
L 97.804778 103.927273 
L 98.258422 103.927273 
L 98.712066 103.927273 
L 99.165711 103.927273 
L 99.619355 103.927273 
L 100.072999 103.927273 
L 100.526643 103.927273 
L 100.980287 103.927273 
L 101.433931 103.927273 
L 101.887575 103.927273 
L 102.341219 103.927273 
L 102.794863 103.927273 
L 103.248507 103.927273 
L 103.702152 103.927273 
L 104.155796 103.927273 
L 104.60944 103.927273 
L 105.063084 103.927273 
L 105.516728 103.927273 
L 105.970372 103.927273 
L 106.424016 103.927273 
L 106.87766 103.927273 
L 107.331304 103.927273 
L 107.331304 103.927273 
L 107.331304 103.927273 
L 106.87766 103.927273 
L 106.424016 103.927273 
L 105.970372 103.927273 
L 105.516728 103.927273 
L 105.063084 103.927273 
L 104.60944 103.927273 
L 104.155796 103.927273 
L 103.702152 103.927273 
L 103.248507 103.927273 
L 102.794863 103.927273 
L 102.341219 103.927273 
L 101.887575 103.927273 
L 101.433931 103.927273 
L 100.980287 103.927273 
L 100.526643 103.927273 
L 100.072999 103.927273 
L 99.619355 103.927273 
L 99.165711 103.927273 
L 98.712066 103.927273 
L 98.258422 103.927273 
L 97.804778 103.927273 
L 97.351134 103.927273 
L 96.89749 103.927273 
L 96.443846 103.927273 
L 95.990202 103.927273 
L 95.536558 103.927273 
L 95.082914 103.927273 
L 94.62927 103.927273 
L 94.175625 103.927273 
L 93.721981 103.927273 
L 93.268337 103.927273 
L 92.814693 103.927273 
L 92.361049 103.927273 
L 91.907405 103.927273 
L 91.453761 103.927273 
L 91.000117 103.927273 
L 90.546473 103.927273 
L 90.092828 103.927273 
L 89.639184 103.927273 
L 89.18554 103.927273 
L 88.731896 103.927273 
L 88.278252 103.927273 
L 87.824608 103.927273 
L 87.370964 103.927273 
L 86.91732 103.927273 
L 86.463676 103.927273 
L 86.010032 103.927273 
L 85.556387 103.927273 
L 85.102743 103.927273 
L 84.649099 103.927273 
L 84.195455 103.927273 
L 83.741811 103.927273 
L 83.288167 103.927273 
L 82.834523 103.927273 
L 82.380879 103.927273 
L 81.927235 103.927273 
L 81.473591 103.927273 
L 81.019946 103.927273 
L 80.566302 103.927273 
L 80.112658 103.927273 
L 79.659014 103.927273 
L 79.20537 103.927273 
L 78.751726 103.927273 
L 78.298082 103.927273 
L 77.844438 103.927273 
L 77.390794 103.927273 
L 76.93715 103.927273 
L 76.483505 103.927273 
L 76.029861 103.927273 
L 75.576217 103.927273 
L 75.122573 103.927273 
L 74.668929 103.927273 
L 74.215285 103.927273 
L 73.761641 103.927273 
L 73.307997 103.927273 
L 72.854353 103.927273 
L 72.400709 103.927273 
L 71.947064 103.927273 
L 71.49342 103.927273 
L 71.039776 103.927273 
L 70.586132 103.927273 
L 70.132488 103.927273 
L 69.678844 103.927273 
L 69.2252 103.927273 
L 68.771556 103.927273 
L 68.317912 103.927273 
L 67.864268 103.927273 
L 67.410623 103.927273 
L 66.956979 103.927273 
L 66.503335 103.927273 
L 66.049691 103.927273 
L 65.596047 103.927273 
L 65.142403 103.927273 
L 64.688759 103.927273 
L 64.235115 103.927273 
L 63.781471 103.927273 
L 63.327827 103.927273 
L 62.874182 103.927273 
L 62.420538 103.927273 
z
" style="fill:#1f77b4;"/>
   </g>
   <g id="matplotlib.axis_3">
    <g id="xtick_7">
     <g id="line2d_20">
      <path clip-path="url(#p3c9b9dded3)" d="M 62.420538 107.6 
L 62.420538 26.8 
" style="fill:none;stroke:#b0b0b0;stroke-linecap:square;stroke-width:0.8;"/>
     </g>
     <g id="line2d_21">
      <g>
       <use style="stroke:#000000;stroke-width:0.8;" x="62.420538" xlink:href="#m9873573a75" y="107.6"/>
      </g>
     </g>
     <g id="text_13">
      <!-- 0 -->
      <g transform="translate(59.239288 122.198437)scale(0.1 -0.1)">
       <use xlink:href="#DejaVuSans-48"/>
      </g>
     </g>
    </g>
    <g id="xtick_8">
     <g id="line2d_22">
      <path clip-path="url(#p3c9b9dded3)" d="M 107.784948 107.6 
L 107.784948 26.8 
" style="fill:none;stroke:#b0b0b0;stroke-linecap:square;stroke-width:0.8;"/>
     </g>
     <g id="line2d_23">
      <g>
       <use style="stroke:#000000;stroke-width:0.8;" x="107.784948" xlink:href="#m9873573a75" y="107.6"/>
      </g>
     </g>
     <g id="text_14">
      <!-- 100 -->
      <g transform="translate(98.241198 122.198437)scale(0.1 -0.1)">
       <use xlink:href="#DejaVuSans-49"/>
       <use x="63.623047" xlink:href="#DejaVuSans-48"/>
       <use x="127.246094" xlink:href="#DejaVuSans-48"/>
      </g>
     </g>
    </g>
    <g id="text_15">
     <!-- q -->
     <g transform="translate(81.701703 135.876562)scale(0.1 -0.1)">
      <defs>
       <path d="M 14.796875 27.296875 
Q 14.796875 17.390625 18.875 11.75 
Q 22.953125 6.109375 30.078125 6.109375 
Q 37.203125 6.109375 41.296875 11.75 
Q 45.40625 17.390625 45.40625 27.296875 
Q 45.40625 37.203125 41.296875 42.84375 
Q 37.203125 48.484375 30.078125 48.484375 
Q 22.953125 48.484375 18.875 42.84375 
Q 14.796875 37.203125 14.796875 27.296875 
z
M 45.40625 8.203125 
Q 42.578125 3.328125 38.25 0.953125 
Q 33.9375 -1.421875 27.875 -1.421875 
Q 17.96875 -1.421875 11.734375 6.484375 
Q 5.515625 14.40625 5.515625 27.296875 
Q 5.515625 40.1875 11.734375 48.09375 
Q 17.96875 56 27.875 56 
Q 33.9375 56 38.25 53.625 
Q 42.578125 51.265625 45.40625 46.390625 
L 45.40625 54.6875 
L 54.390625 54.6875 
L 54.390625 -20.796875 
L 45.40625 -20.796875 
z
" id="DejaVuSans-113"/>
      </defs>
      <use xlink:href="#DejaVuSans-113"/>
     </g>
    </g>
   </g>
   <g id="matplotlib.axis_4">
    <g id="ytick_4">
     <g id="line2d_24">
      <path clip-path="url(#p3c9b9dded3)" d="M 60.175 103.927273 
L 109.576843 103.927273 
" style="fill:none;stroke:#b0b0b0;stroke-linecap:square;stroke-width:0.8;"/>
     </g>
     <g id="line2d_25">
      <g>
       <use style="stroke:#000000;stroke-width:0.8;" x="60.175" xlink:href="#m2c454dce8b" y="103.927273"/>
      </g>
     </g>
     <g id="text_16">
      <!-- 0.000 -->
      <g transform="translate(24.546875 107.726491)scale(0.1 -0.1)">
       <use xlink:href="#DejaVuSans-48"/>
       <use x="63.623047" xlink:href="#DejaVuSans-46"/>
       <use x="95.410156" xlink:href="#DejaVuSans-48"/>
       <use x="159.033203" xlink:href="#DejaVuSans-48"/>
       <use x="222.65625" xlink:href="#DejaVuSans-48"/>
      </g>
     </g>
    </g>
    <g id="ytick_5">
     <g id="line2d_26">
      <path clip-path="url(#p3c9b9dded3)" d="M 60.175 74.545455 
L 109.576843 74.545455 
" style="fill:none;stroke:#b0b0b0;stroke-linecap:square;stroke-width:0.8;"/>
     </g>
     <g id="line2d_27">
      <g>
       <use style="stroke:#000000;stroke-width:0.8;" x="60.175" xlink:href="#m2c454dce8b" y="74.545455"/>
      </g>
     </g>
     <g id="text_17">
      <!-- 0.001 -->
      <g transform="translate(24.546875 78.344673)scale(0.1 -0.1)">
       <use xlink:href="#DejaVuSans-48"/>
       <use x="63.623047" xlink:href="#DejaVuSans-46"/>
       <use x="95.410156" xlink:href="#DejaVuSans-48"/>
       <use x="159.033203" xlink:href="#DejaVuSans-48"/>
       <use x="222.65625" xlink:href="#DejaVuSans-49"/>
      </g>
     </g>
    </g>
    <g id="ytick_6">
     <g id="line2d_28">
      <path clip-path="url(#p3c9b9dded3)" d="M 60.175 45.163636 
L 109.576843 45.163636 
" style="fill:none;stroke:#b0b0b0;stroke-linecap:square;stroke-width:0.8;"/>
     </g>
     <g id="line2d_29">
      <g>
       <use style="stroke:#000000;stroke-width:0.8;" x="60.175" xlink:href="#m2c454dce8b" y="45.163636"/>
      </g>
     </g>
     <g id="text_18">
      <!-- 0.002 -->
      <g transform="translate(24.546875 48.962855)scale(0.1 -0.1)">
       <use xlink:href="#DejaVuSans-48"/>
       <use x="63.623047" xlink:href="#DejaVuSans-46"/>
       <use x="95.410156" xlink:href="#DejaVuSans-48"/>
       <use x="159.033203" xlink:href="#DejaVuSans-48"/>
       <use x="222.65625" xlink:href="#DejaVuSans-50"/>
      </g>
     </g>
    </g>
    <g id="text_19">
     <!-- Rxx -->
     <g transform="translate(18.467187 76.592969)rotate(-90)scale(0.1 -0.1)">
      <defs>
       <path d="M 44.390625 34.1875 
Q 47.5625 33.109375 50.5625 29.59375 
Q 53.5625 26.078125 56.59375 19.921875 
L 66.609375 0 
L 56 0 
L 46.6875 18.703125 
Q 43.0625 26.03125 39.671875 28.421875 
Q 36.28125 30.8125 30.421875 30.8125 
L 19.671875 30.8125 
L 19.671875 0 
L 9.8125 0 
L 9.8125 72.90625 
L 32.078125 72.90625 
Q 44.578125 72.90625 50.734375 67.671875 
Q 56.890625 62.453125 56.890625 51.90625 
Q 56.890625 45.015625 53.6875 40.46875 
Q 50.484375 35.9375 44.390625 34.1875 
z
M 19.671875 64.796875 
L 19.671875 38.921875 
L 32.078125 38.921875 
Q 39.203125 38.921875 42.84375 42.21875 
Q 46.484375 45.515625 46.484375 51.90625 
Q 46.484375 58.296875 42.84375 61.546875 
Q 39.203125 64.796875 32.078125 64.796875 
z
" id="DejaVuSans-82"/>
       <path d="M 54.890625 54.6875 
L 35.109375 28.078125 
L 55.90625 0 
L 45.3125 0 
L 29.390625 21.484375 
L 13.484375 0 
L 2.875 0 
L 24.125 28.609375 
L 4.6875 54.6875 
L 15.28125 54.6875 
L 29.78125 35.203125 
L 44.28125 54.6875 
z
" id="DejaVuSans-120"/>
      </defs>
      <use xlink:href="#DejaVuSans-82"/>
      <use x="69.482422" xlink:href="#DejaVuSans-120"/>
      <use x="128.662109" xlink:href="#DejaVuSans-120"/>
     </g>
    </g>
   </g>
   <g id="line2d_30">
    <path clip-path="url(#p3c9b9dded3)" d="M 62.420538 30.472727 
L 62.874182 103.927273 
L 63.327827 103.927273 
L 63.781471 103.927273 
L 64.235115 103.927273 
L 64.688759 103.927273 
L 65.142403 103.927273 
L 65.596047 103.927273 
L 66.049691 103.927273 
L 66.503335 103.927273 
L 66.956979 103.927273 
L 67.410623 103.927273 
L 67.864268 103.927273 
L 68.317912 103.927273 
L 68.771556 103.927273 
L 69.2252 103.927273 
L 69.678844 103.927273 
L 70.132488 103.927273 
L 70.586132 103.927273 
L 71.039776 103.927273 
L 71.49342 103.927273 
L 71.947064 103.927273 
L 72.400709 103.927273 
L 72.854353 103.927273 
L 73.307997 103.927273 
L 73.761641 103.927273 
L 74.215285 103.927273 
L 74.668929 103.927273 
L 75.122573 103.927273 
L 75.576217 103.927273 
L 76.029861 103.927273 
L 76.483505 103.927273 
L 76.93715 103.927273 
L 77.390794 103.927273 
L 77.844438 103.927273 
L 78.298082 103.927273 
L 78.751726 103.927273 
L 79.20537 103.927273 
L 79.659014 103.927273 
L 80.112658 103.927273 
L 80.566302 103.927273 
L 81.019946 103.927273 
L 81.473591 103.927273 
L 81.927235 103.927273 
L 82.380879 103.927273 
L 82.834523 103.927273 
L 83.288167 103.927273 
L 83.741811 103.927273 
L 84.195455 103.927273 
L 84.649099 103.927273 
L 85.102743 103.927273 
L 85.556387 103.927273 
L 86.010032 103.927273 
L 86.463676 103.927273 
L 86.91732 103.927273 
L 87.370964 103.927273 
L 87.824608 103.927273 
L 88.278252 103.927273 
L 88.731896 103.927273 
L 89.18554 103.927273 
L 89.639184 103.927273 
L 90.092828 103.927273 
L 90.546473 103.927273 
L 91.000117 103.927273 
L 91.453761 103.927273 
L 91.907405 103.927273 
L 92.361049 103.927273 
L 92.814693 103.927273 
L 93.268337 103.927273 
L 93.721981 103.927273 
L 94.175625 103.927273 
L 94.62927 103.927273 
L 95.082914 103.927273 
L 95.536558 103.927273 
L 95.990202 103.927273 
L 96.443846 103.927273 
L 96.89749 103.927273 
L 97.351134 103.927273 
L 97.804778 103.927273 
L 98.258422 103.927273 
L 98.712066 103.927273 
L 99.165711 103.927273 
L 99.619355 103.927273 
L 100.072999 103.927273 
L 100.526643 103.927273 
L 100.980287 103.927273 
L 101.433931 103.927273 
L 101.887575 103.927273 
L 102.341219 103.927273 
L 102.794863 103.927273 
L 103.248507 103.927273 
L 103.702152 103.927273 
L 104.155796 103.927273 
L 104.60944 103.927273 
L 105.063084 103.927273 
L 105.516728 103.927273 
L 105.970372 103.927273 
L 106.424016 103.927273 
L 106.87766 103.927273 
L 107.331304 103.927273 
" style="fill:none;stroke:#1f77b4;stroke-linecap:square;stroke-width:1.5;"/>
   </g>
   <g id="patch_8">
    <path d="M 60.175 107.6 
L 60.175 26.8 
" style="fill:none;stroke:#000000;stroke-linecap:square;stroke-linejoin:miter;stroke-width:0.8;"/>
   </g>
   <g id="patch_9">
    <path d="M 109.576843 107.6 
L 109.576843 26.8 
" style="fill:none;stroke:#000000;stroke-linecap:square;stroke-linejoin:miter;stroke-width:0.8;"/>
   </g>
   <g id="patch_10">
    <path d="M 60.175 107.6 
L 109.576843 107.6 
" style="fill:none;stroke:#000000;stroke-linecap:square;stroke-linejoin:miter;stroke-width:0.8;"/>
   </g>
   <g id="patch_11">
    <path d="M 60.175 26.8 
L 109.576843 26.8 
" style="fill:none;stroke:#000000;stroke-linecap:square;stroke-linejoin:miter;stroke-width:0.8;"/>
   </g>
  </g>
  <g id="axes_3">
   <g id="patch_12">
    <path d="M 60.175 246.2 
L 213.451228 246.2 
L 213.451228 165.4 
L 60.175 165.4 
z
" style="fill:#ffffff;"/>
   </g>
   <g id="matplotlib.axis_5">
    <g id="xtick_9">
     <g id="line2d_31">
      <path clip-path="url(#p9b3d0d8ee6)" d="M 67.142101 246.2 
L 67.142101 165.4 
" style="fill:none;stroke:#b0b0b0;stroke-linecap:square;stroke-width:0.8;"/>
     </g>
     <g id="line2d_32">
      <g>
       <use style="stroke:#000000;stroke-width:0.8;" x="67.142101" xlink:href="#m9873573a75" y="246.2"/>
      </g>
     </g>
     <g id="text_20">
      <!-- 0 -->
      <g transform="translate(63.960851 260.798437)scale(0.1 -0.1)">
       <use xlink:href="#DejaVuSans-48"/>
      </g>
     </g>
    </g>
    <g id="xtick_10">
     <g id="line2d_33">
      <path clip-path="url(#p9b3d0d8ee6)" d="M 122.990609 246.2 
L 122.990609 165.4 
" style="fill:none;stroke:#b0b0b0;stroke-linecap:square;stroke-width:0.8;"/>
     </g>
     <g id="line2d_34">
      <g>
       <use style="stroke:#000000;stroke-width:0.8;" x="122.990609" xlink:href="#m9873573a75" y="246.2"/>
      </g>
     </g>
     <g id="text_21">
      <!-- 200 -->
      <g transform="translate(113.446859 260.798437)scale(0.1 -0.1)">
       <use xlink:href="#DejaVuSans-50"/>
       <use x="63.623047" xlink:href="#DejaVuSans-48"/>
       <use x="127.246094" xlink:href="#DejaVuSans-48"/>
      </g>
     </g>
    </g>
    <g id="xtick_11">
     <g id="line2d_35">
      <path clip-path="url(#p9b3d0d8ee6)" d="M 178.839116 246.2 
L 178.839116 165.4 
" style="fill:none;stroke:#b0b0b0;stroke-linecap:square;stroke-width:0.8;"/>
     </g>
     <g id="line2d_36">
      <g>
       <use style="stroke:#000000;stroke-width:0.8;" x="178.839116" xlink:href="#m9873573a75" y="246.2"/>
      </g>
     </g>
     <g id="text_22">
      <!-- 400 -->
      <g transform="translate(169.295366 260.798437)scale(0.1 -0.1)">
       <use xlink:href="#DejaVuSans-52"/>
       <use x="63.623047" xlink:href="#DejaVuSans-48"/>
       <use x="127.246094" xlink:href="#DejaVuSans-48"/>
      </g>
     </g>
    </g>
    <g id="text_23">
     <!-- x -->
     <g transform="translate(133.853739 274.476562)scale(0.1 -0.1)">
      <use xlink:href="#DejaVuSans-120"/>
     </g>
    </g>
   </g>
   <g id="matplotlib.axis_6">
    <g id="ytick_7">
     <g id="line2d_37">
      <path clip-path="url(#p9b3d0d8ee6)" d="M 60.175 242.528337 
L 213.451228 242.528337 
" style="fill:none;stroke:#b0b0b0;stroke-linecap:square;stroke-width:0.8;"/>
     </g>
     <g id="line2d_38">
      <g>
       <use style="stroke:#000000;stroke-width:0.8;" x="60.175" xlink:href="#m2c454dce8b" y="242.528337"/>
      </g>
     </g>
     <g id="text_24">
      <!-- −1 -->
      <g transform="translate(38.432812 246.327555)scale(0.1 -0.1)">
       <defs>
        <path d="M 10.59375 35.5 
L 73.1875 35.5 
L 73.1875 27.203125 
L 10.59375 27.203125 
z
" id="DejaVuSans-8722"/>
       </defs>
       <use xlink:href="#DejaVuSans-8722"/>
       <use x="83.789062" xlink:href="#DejaVuSans-49"/>
      </g>
     </g>
    </g>
    <g id="ytick_8">
     <g id="line2d_39">
      <path clip-path="url(#p9b3d0d8ee6)" d="M 60.175 205.800199 
L 213.451228 205.800199 
" style="fill:none;stroke:#b0b0b0;stroke-linecap:square;stroke-width:0.8;"/>
     </g>
     <g id="line2d_40">
      <g>
       <use style="stroke:#000000;stroke-width:0.8;" x="60.175" xlink:href="#m2c454dce8b" y="205.800199"/>
      </g>
     </g>
     <g id="text_25">
      <!-- 0 -->
      <g transform="translate(46.8125 209.599418)scale(0.1 -0.1)">
       <use xlink:href="#DejaVuSans-48"/>
      </g>
     </g>
    </g>
    <g id="ytick_9">
     <g id="line2d_41">
      <path clip-path="url(#p9b3d0d8ee6)" d="M 60.175 169.072062 
L 213.451228 169.072062 
" style="fill:none;stroke:#b0b0b0;stroke-linecap:square;stroke-width:0.8;"/>
     </g>
     <g id="line2d_42">
      <g>
       <use style="stroke:#000000;stroke-width:0.8;" x="60.175" xlink:href="#m2c454dce8b" y="169.072062"/>
      </g>
     </g>
     <g id="text_26">
      <!-- 1 -->
      <g transform="translate(46.8125 172.871281)scale(0.1 -0.1)">
       <use xlink:href="#DejaVuSans-49"/>
      </g>
     </g>
    </g>
    <g id="text_27">
     <!-- sin(x) -->
     <g transform="translate(32.353125 219.823437)rotate(-90)scale(0.1 -0.1)">
      <defs>
       <path d="M 44.28125 53.078125 
L 44.28125 44.578125 
Q 40.484375 46.53125 36.375 47.5 
Q 32.28125 48.484375 27.875 48.484375 
Q 21.1875 48.484375 17.84375 46.4375 
Q 14.5 44.390625 14.5 40.28125 
Q 14.5 37.15625 16.890625 35.375 
Q 19.28125 33.59375 26.515625 31.984375 
L 29.59375 31.296875 
Q 39.15625 29.25 43.1875 25.515625 
Q 47.21875 21.78125 47.21875 15.09375 
Q 47.21875 7.46875 41.1875 3.015625 
Q 35.15625 -1.421875 24.609375 -1.421875 
Q 20.21875 -1.421875 15.453125 -0.5625 
Q 10.6875 0.296875 5.421875 2 
L 5.421875 11.28125 
Q 10.40625 8.6875 15.234375 7.390625 
Q 20.0625 6.109375 24.8125 6.109375 
Q 31.15625 6.109375 34.5625 8.28125 
Q 37.984375 10.453125 37.984375 14.40625 
Q 37.984375 18.0625 35.515625 20.015625 
Q 33.0625 21.96875 24.703125 23.78125 
L 21.578125 24.515625 
Q 13.234375 26.265625 9.515625 29.90625 
Q 5.8125 33.546875 5.8125 39.890625 
Q 5.8125 47.609375 11.28125 51.796875 
Q 16.75 56 26.8125 56 
Q 31.78125 56 36.171875 55.265625 
Q 40.578125 54.546875 44.28125 53.078125 
z
" id="DejaVuSans-115"/>
       <path d="M 9.421875 54.6875 
L 18.40625 54.6875 
L 18.40625 0 
L 9.421875 0 
z
M 9.421875 75.984375 
L 18.40625 75.984375 
L 18.40625 64.59375 
L 9.421875 64.59375 
z
" id="DejaVuSans-105"/>
       <path d="M 54.890625 33.015625 
L 54.890625 0 
L 45.90625 0 
L 45.90625 32.71875 
Q 45.90625 40.484375 42.875 44.328125 
Q 39.84375 48.1875 33.796875 48.1875 
Q 26.515625 48.1875 22.3125 43.546875 
Q 18.109375 38.921875 18.109375 30.90625 
L 18.109375 0 
L 9.078125 0 
L 9.078125 54.6875 
L 18.109375 54.6875 
L 18.109375 46.1875 
Q 21.34375 51.125 25.703125 53.5625 
Q 30.078125 56 35.796875 56 
Q 45.21875 56 50.046875 50.171875 
Q 54.890625 44.34375 54.890625 33.015625 
z
" id="DejaVuSans-110"/>
      </defs>
      <use xlink:href="#DejaVuSans-115"/>
      <use x="52.099609" xlink:href="#DejaVuSans-105"/>
      <use x="79.882812" xlink:href="#DejaVuSans-110"/>
      <use x="143.261719" xlink:href="#DejaVuSans-40"/>
      <use x="182.275391" xlink:href="#DejaVuSans-120"/>
      <use x="241.455078" xlink:href="#DejaVuSans-41"/>
     </g>
    </g>
   </g>
   <g id="line2d_43">
    <path clip-path="url(#p9b3d0d8ee6)" d="M 67.142101 205.800199 
L 72.168467 192.861823 
L 74.960892 186.29072 
L 77.194833 181.582229 
L 79.14953 177.966054 
L 80.824986 175.297578 
L 82.500441 173.067813 
L 83.896653 171.56814 
L 85.292866 170.410502 
L 86.409836 169.738548 
L 87.526806 169.297266 
L 88.643777 169.089477 
L 89.760747 169.116513 
L 90.877717 169.378198 
L 91.994687 169.87286 
L 93.111657 170.597335 
L 94.50787 171.818904 
L 95.904083 173.380003 
L 97.300295 175.265034 
L 98.97575 177.927925 
L 100.651206 180.991695 
L 102.605903 185.013681 
L 104.839844 190.103332 
L 107.911512 197.727957 
L 118.243486 223.998895 
L 120.477426 228.849082 
L 122.432124 232.613883 
L 124.107579 235.425767 
L 125.783034 237.811554 
L 127.179247 239.449268 
L 128.575459 240.750771 
L 129.69243 241.541047 
L 130.8094 242.102703 
L 131.92637 242.432148 
L 133.04334 242.527273 
L 134.16031 242.38747 
L 135.27728 242.013633 
L 136.39425 241.408154 
L 137.511221 240.574906 
L 138.907433 239.2213 
L 140.303646 237.533762 
L 141.979101 235.091892 
L 143.654556 232.228726 
L 145.609254 228.411146 
L 147.843194 223.511186 
L 150.63562 216.765816 
L 154.824258 205.91719 
L 159.850624 192.971379 
L 162.643049 186.389939 
L 164.876989 181.670305 
L 166.831687 178.042524 
L 168.507142 175.362899 
L 170.182597 173.121045 
L 171.57881 171.610706 
L 172.975023 170.441976 
L 174.091993 169.760917 
L 175.208963 169.310386 
L 176.325933 169.093266 
L 177.442903 169.110945 
L 178.559873 169.363309 
L 179.676844 169.848746 
L 180.793814 170.564149 
L 182.190026 171.774684 
L 183.586239 173.325191 
L 184.982452 175.200177 
L 186.657907 177.851878 
L 188.333362 180.905553 
L 190.28806 184.917336 
L 192.522 189.997644 
L 195.314426 196.899469 
L 201.178519 212.202897 
L 204.808672 221.285214 
L 206.484127 225.160776 
L 206.484127 225.160776 
" style="fill:none;stroke:#1f77b4;stroke-linecap:square;stroke-width:1.5;"/>
   </g>
   <g id="patch_13">
    <path d="M 60.175 246.2 
L 60.175 165.4 
" style="fill:none;stroke:#000000;stroke-linecap:square;stroke-linejoin:miter;stroke-width:0.8;"/>
   </g>
   <g id="patch_14">
    <path d="M 213.451228 246.2 
L 213.451228 165.4 
" style="fill:none;stroke:#000000;stroke-linecap:square;stroke-linejoin:miter;stroke-width:0.8;"/>
   </g>
   <g id="patch_15">
    <path d="M 60.175 246.2 
L 213.451228 246.2 
" style="fill:none;stroke:#000000;stroke-linecap:square;stroke-linejoin:miter;stroke-width:0.8;"/>
   </g>
   <g id="patch_16">
    <path d="M 60.175 165.4 
L 213.451228 165.4 
" style="fill:none;stroke:#000000;stroke-linecap:square;stroke-linejoin:miter;stroke-width:0.8;"/>
   </g>
   <g id="text_28">
    <!-- Входной сигнал -->
    <g transform="translate(86.140302 159.4)scale(0.12 -0.12)">
     <defs>
      <path d="M 19.671875 34.8125 
L 19.671875 8.109375 
L 35.5 8.109375 
Q 43.453125 8.109375 47.28125 11.40625 
Q 51.125 14.703125 51.125 21.484375 
Q 51.125 28.328125 47.28125 31.5625 
Q 43.453125 34.8125 35.5 34.8125 
z
M 19.671875 64.796875 
L 19.671875 42.828125 
L 34.28125 42.828125 
Q 41.5 42.828125 45.03125 45.53125 
Q 48.578125 48.25 48.578125 53.8125 
Q 48.578125 59.328125 45.03125 62.0625 
Q 41.5 64.796875 34.28125 64.796875 
z
M 9.8125 72.90625 
L 35.015625 72.90625 
Q 46.296875 72.90625 52.390625 68.21875 
Q 58.5 63.53125 58.5 54.890625 
Q 58.5 48.1875 55.375 44.234375 
Q 52.25 40.28125 46.1875 39.3125 
Q 53.46875 37.75 57.5 32.78125 
Q 61.53125 27.828125 61.53125 20.40625 
Q 61.53125 10.640625 54.890625 5.3125 
Q 48.25 0 35.984375 0 
L 9.8125 0 
z
" id="DejaVuSans-1042"/>
      <path d="M 54.890625 54.6875 
L 35.109375 28.078125 
L 55.90625 0 
L 45.3125 0 
L 29.390625 21.484375 
L 13.484375 0 
L 2.875 0 
L 24.125 28.609375 
L 4.6875 54.6875 
L 15.28125 54.6875 
L 29.78125 35.203125 
L 44.28125 54.6875 
z
" id="DejaVuSans-1093"/>
      <path d="M 21.625 7.171875 
L 47.703125 7.171875 
L 47.703125 47.515625 
L 28.8125 47.515625 
L 28.8125 40.671875 
Q 28.8125 20.5625 23.046875 9.8125 
z
M 8.59375 7.171875 
Q 13.03125 9.125 14.984375 13.28125 
Q 19.78125 23.578125 19.78125 44.34375 
L 19.78125 54.6875 
L 56.734375 54.6875 
L 56.734375 7.171875 
L 63.921875 7.171875 
L 63.921875 -13.8125 
L 56.734375 -13.8125 
L 56.734375 0 
L 12.40625 0 
L 12.40625 -13.8125 
L 5.21875 -13.8125 
L 5.21875 7.171875 
z
" id="DejaVuSans-1076"/>
      <path d="M 55.90625 54.6875 
L 55.90625 0 
L 46.96875 0 
L 46.96875 43.890625 
L 20.609375 0 
L 9.078125 0 
L 9.078125 54.6875 
L 18.015625 54.6875 
L 18.015625 10.890625 
L 44.34375 54.6875 
z
M 17.21875 75.515625 
L 22.984375 75.515625 
Q 23.515625 71.859375 25.875 70.015625 
Q 28.25 68.1875 32.5 68.1875 
Q 36.703125 68.1875 39.046875 70 
Q 41.390625 71.8125 42.015625 75.515625 
L 47.78125 75.515625 
Q 47.296875 68.53125 43.4375 65.015625 
Q 39.578125 61.5 32.5 61.5 
Q 25.421875 61.5 21.5625 65.015625 
Q 17.703125 68.53125 17.21875 75.515625 
z
" id="DejaVuSans-1081"/>
      <path d="M 48.78125 52.59375 
L 48.78125 44.1875 
Q 44.96875 46.296875 41.140625 47.34375 
Q 37.3125 48.390625 33.40625 48.390625 
Q 24.65625 48.390625 19.8125 42.84375 
Q 14.984375 37.3125 14.984375 27.296875 
Q 14.984375 17.28125 19.8125 11.734375 
Q 24.65625 6.203125 33.40625 6.203125 
Q 37.3125 6.203125 41.140625 7.25 
Q 44.96875 8.296875 48.78125 10.40625 
L 48.78125 2.09375 
Q 45.015625 0.34375 40.984375 -0.53125 
Q 36.96875 -1.421875 32.421875 -1.421875 
Q 20.0625 -1.421875 12.78125 6.34375 
Q 5.515625 14.109375 5.515625 27.296875 
Q 5.515625 40.671875 12.859375 48.328125 
Q 20.21875 56 33.015625 56 
Q 37.15625 56 41.109375 55.140625 
Q 45.0625 54.296875 48.78125 52.59375 
z
" id="DejaVuSans-1089"/>
      <path d="M 9.078125 0 
L 9.078125 54.6875 
L 47.65625 54.6875 
L 47.65625 47.515625 
L 18.109375 47.515625 
L 18.109375 0 
z
" id="DejaVuSans-1075"/>
      <path d="M 34.28125 27.484375 
Q 23.390625 27.484375 19.1875 25 
Q 14.984375 22.515625 14.984375 16.5 
Q 14.984375 11.71875 18.140625 8.90625 
Q 21.296875 6.109375 26.703125 6.109375 
Q 34.1875 6.109375 38.703125 11.40625 
Q 43.21875 16.703125 43.21875 25.484375 
L 43.21875 27.484375 
z
M 52.203125 31.203125 
L 52.203125 0 
L 43.21875 0 
L 43.21875 8.296875 
Q 40.140625 3.328125 35.546875 0.953125 
Q 30.953125 -1.421875 24.3125 -1.421875 
Q 15.921875 -1.421875 10.953125 3.296875 
Q 6 8.015625 6 15.921875 
Q 6 25.140625 12.171875 29.828125 
Q 18.359375 34.515625 30.609375 34.515625 
L 43.21875 34.515625 
L 43.21875 35.40625 
Q 43.21875 41.609375 39.140625 45 
Q 35.0625 48.390625 27.6875 48.390625 
Q 23 48.390625 18.546875 47.265625 
Q 14.109375 46.140625 10.015625 43.890625 
L 10.015625 52.203125 
Q 14.9375 54.109375 19.578125 55.046875 
Q 24.21875 56 28.609375 56 
Q 40.484375 56 46.34375 49.84375 
Q 52.203125 43.703125 52.203125 31.203125 
z
" id="DejaVuSans-1072"/>
      <path d="M 3.71875 0 
L 3.71875 7.46875 
Q 12.59375 8.84375 15.328125 14.984375 
Q 18.65625 23.640625 18.65625 45.75 
L 18.65625 54.6875 
L 55.609375 54.6875 
L 55.609375 0 
L 46.625 0 
L 46.625 47.515625 
L 27.640625 47.515625 
L 27.640625 42.09375 
Q 27.640625 21 23.34375 11.53125 
Q 18.75 1.421875 3.71875 0 
z
" id="DejaVuSans-1083"/>
     </defs>
     <use xlink:href="#DejaVuSans-1042"/>
     <use x="68.603516" xlink:href="#DejaVuSans-1093"/>
     <use x="127.783203" xlink:href="#DejaVuSans-1086"/>
     <use x="188.964844" xlink:href="#DejaVuSans-1076"/>
     <use x="258.105469" xlink:href="#DejaVuSans-1085"/>
     <use x="323.486328" xlink:href="#DejaVuSans-1086"/>
     <use x="384.667969" xlink:href="#DejaVuSans-1081"/>
     <use x="449.658203" xlink:href="#DejaVuSans-32"/>
     <use x="481.445312" xlink:href="#DejaVuSans-1089"/>
     <use x="536.425781" xlink:href="#DejaVuSans-1080"/>
     <use x="601.416016" xlink:href="#DejaVuSans-1075"/>
     <use x="653.955078" xlink:href="#DejaVuSans-1085"/>
     <use x="719.335938" xlink:href="#DejaVuSans-1072"/>
     <use x="780.615234" xlink:href="#DejaVuSans-1083"/>
    </g>
   </g>
  </g>
  <g id="axes_4">
   <g id="patch_17">
    <path d="M 267.923772 246.2 
L 421.2 246.2 
L 421.2 165.4 
L 267.923772 165.4 
z
" style="fill:#ffffff;"/>
   </g>
   <g id="matplotlib.axis_7">
    <g id="xtick_12">
     <g id="line2d_44">
      <path clip-path="url(#p9f5d244561)" d="M 274.890873 246.2 
L 274.890873 165.4 
" style="fill:none;stroke:#b0b0b0;stroke-linecap:square;stroke-width:0.8;"/>
     </g>
     <g id="line2d_45">
      <g>
       <use style="stroke:#000000;stroke-width:0.8;" x="274.890873" xlink:href="#m9873573a75" y="246.2"/>
      </g>
     </g>
     <g id="text_29">
      <!-- 0 -->
      <g transform="translate(271.709623 260.798437)scale(0.1 -0.1)">
       <use xlink:href="#DejaVuSans-48"/>
      </g>
     </g>
    </g>
    <g id="xtick_13">
     <g id="line2d_46">
      <path clip-path="url(#p9f5d244561)" d="M 330.73938 246.2 
L 330.73938 165.4 
" style="fill:none;stroke:#b0b0b0;stroke-linecap:square;stroke-width:0.8;"/>
     </g>
     <g id="line2d_47">
      <g>
       <use style="stroke:#000000;stroke-width:0.8;" x="330.73938" xlink:href="#m9873573a75" y="246.2"/>
      </g>
     </g>
     <g id="text_30">
      <!-- 200 -->
      <g transform="translate(321.19563 260.798437)scale(0.1 -0.1)">
       <use xlink:href="#DejaVuSans-50"/>
       <use x="63.623047" xlink:href="#DejaVuSans-48"/>
       <use x="127.246094" xlink:href="#DejaVuSans-48"/>
      </g>
     </g>
    </g>
    <g id="xtick_14">
     <g id="line2d_48">
      <path clip-path="url(#p9f5d244561)" d="M 386.587888 246.2 
L 386.587888 165.4 
" style="fill:none;stroke:#b0b0b0;stroke-linecap:square;stroke-width:0.8;"/>
     </g>
     <g id="line2d_49">
      <g>
       <use style="stroke:#000000;stroke-width:0.8;" x="386.587888" xlink:href="#m9873573a75" y="246.2"/>
      </g>
     </g>
     <g id="text_31">
      <!-- 400 -->
      <g transform="translate(377.044138 260.798437)scale(0.1 -0.1)">
       <use xlink:href="#DejaVuSans-52"/>
       <use x="63.623047" xlink:href="#DejaVuSans-48"/>
       <use x="127.246094" xlink:href="#DejaVuSans-48"/>
      </g>
     </g>
    </g>
    <g id="text_32">
     <!-- x -->
     <g transform="translate(341.602511 274.476562)scale(0.1 -0.1)">
      <use xlink:href="#DejaVuSans-120"/>
     </g>
    </g>
   </g>
   <g id="matplotlib.axis_8">
    <g id="ytick_10">
     <g id="line2d_50">
      <path clip-path="url(#p9f5d244561)" d="M 267.923772 242.528337 
L 421.2 242.528337 
" style="fill:none;stroke:#b0b0b0;stroke-linecap:square;stroke-width:0.8;"/>
     </g>
     <g id="line2d_51">
      <g>
       <use style="stroke:#000000;stroke-width:0.8;" x="267.923772" xlink:href="#m2c454dce8b" y="242.528337"/>
      </g>
     </g>
     <g id="text_33">
      <!-- −1 -->
      <g transform="translate(246.181584 246.327555)scale(0.1 -0.1)">
       <use xlink:href="#DejaVuSans-8722"/>
       <use x="83.789062" xlink:href="#DejaVuSans-49"/>
      </g>
     </g>
    </g>
    <g id="ytick_11">
     <g id="line2d_52">
      <path clip-path="url(#p9f5d244561)" d="M 267.923772 205.800199 
L 421.2 205.800199 
" style="fill:none;stroke:#b0b0b0;stroke-linecap:square;stroke-width:0.8;"/>
     </g>
     <g id="line2d_53">
      <g>
       <use style="stroke:#000000;stroke-width:0.8;" x="267.923772" xlink:href="#m2c454dce8b" y="205.800199"/>
      </g>
     </g>
     <g id="text_34">
      <!-- 0 -->
      <g transform="translate(254.561272 209.599418)scale(0.1 -0.1)">
       <use xlink:href="#DejaVuSans-48"/>
      </g>
     </g>
    </g>
    <g id="ytick_12">
     <g id="line2d_54">
      <path clip-path="url(#p9f5d244561)" d="M 267.923772 169.072062 
L 421.2 169.072062 
" style="fill:none;stroke:#b0b0b0;stroke-linecap:square;stroke-width:0.8;"/>
     </g>
     <g id="line2d_55">
      <g>
       <use style="stroke:#000000;stroke-width:0.8;" x="267.923772" xlink:href="#m2c454dce8b" y="169.072062"/>
      </g>
     </g>
     <g id="text_35">
      <!-- 1 -->
      <g transform="translate(254.561272 172.871281)scale(0.1 -0.1)">
       <use xlink:href="#DejaVuSans-49"/>
      </g>
     </g>
    </g>
    <g id="text_36">
     <!-- sin(x) -->
     <g transform="translate(240.101897 219.823437)rotate(-90)scale(0.1 -0.1)">
      <use xlink:href="#DejaVuSans-115"/>
      <use x="52.099609" xlink:href="#DejaVuSans-105"/>
      <use x="79.882812" xlink:href="#DejaVuSans-110"/>
      <use x="143.261719" xlink:href="#DejaVuSans-40"/>
      <use x="182.275391" xlink:href="#DejaVuSans-120"/>
      <use x="241.455078" xlink:href="#DejaVuSans-41"/>
     </g>
    </g>
   </g>
   <g id="line2d_56">
    <path clip-path="url(#p9f5d244561)" d="M 274.890873 205.800199 
L 279.917239 192.861823 
L 282.709664 186.29072 
L 284.943604 181.582229 
L 286.898302 177.966054 
L 288.573757 175.297578 
L 290.249212 173.067813 
L 291.645425 171.56814 
L 293.041638 170.410502 
L 294.158608 169.738548 
L 295.275578 169.297266 
L 296.392548 169.089477 
L 297.509518 169.116513 
L 298.626488 169.378198 
L 299.743459 169.87286 
L 300.860429 170.597335 
L 302.256641 171.818904 
L 303.652854 173.380003 
L 305.049067 175.265034 
L 306.724522 177.927925 
L 308.399977 180.991695 
L 310.354675 185.013681 
L 312.588615 190.103332 
L 315.660283 197.727957 
L 325.992257 223.998895 
L 328.226197 228.849082 
L 330.180895 232.613883 
L 331.85635 235.425767 
L 333.531806 237.811554 
L 334.928018 239.449268 
L 336.324231 240.750771 
L 337.441201 241.541047 
L 338.558171 242.102703 
L 339.675141 242.432148 
L 340.792112 242.527273 
L 341.909082 242.38747 
L 343.026052 242.013633 
L 344.143022 241.408154 
L 345.259992 240.574906 
L 346.656205 239.2213 
L 348.052417 237.533762 
L 349.727873 235.091892 
L 351.403328 232.228726 
L 353.358026 228.411146 
L 355.591966 223.511186 
L 358.384391 216.765816 
L 362.573029 205.91719 
L 367.599395 192.971379 
L 370.39182 186.389939 
L 372.625761 181.670305 
L 374.580458 178.042524 
L 376.255914 175.362899 
L 377.931369 173.121045 
L 379.327582 171.610706 
L 380.723794 170.441976 
L 381.840764 169.760917 
L 382.957735 169.310386 
L 384.074705 169.093266 
L 385.191675 169.110945 
L 386.308645 169.363309 
L 387.425615 169.848746 
L 388.542585 170.564149 
L 389.938798 171.774684 
L 391.335011 173.325191 
L 392.731223 175.200177 
L 394.406679 177.851878 
L 396.082134 180.905553 
L 398.036832 184.917336 
L 400.270772 189.997644 
L 403.063197 196.899469 
L 408.927291 212.202897 
L 412.557443 221.285214 
L 414.232899 225.160776 
L 414.232899 225.160776 
" style="fill:none;stroke:#1f77b4;stroke-linecap:square;stroke-width:1.5;"/>
   </g>
   <g id="patch_18">
    <path d="M 267.923772 246.2 
L 267.923772 165.4 
" style="fill:none;stroke:#000000;stroke-linecap:square;stroke-linejoin:miter;stroke-width:0.8;"/>
   </g>
   <g id="patch_19">
    <path d="M 421.2 246.2 
L 421.2 165.4 
" style="fill:none;stroke:#000000;stroke-linecap:square;stroke-linejoin:miter;stroke-width:0.8;"/>
   </g>
   <g id="patch_20">
    <path d="M 267.923772 246.2 
L 421.2 246.2 
" style="fill:none;stroke:#000000;stroke-linecap:square;stroke-linejoin:miter;stroke-width:0.8;"/>
   </g>
   <g id="patch_21">
    <path d="M 267.923772 165.4 
L 421.2 165.4 
" style="fill:none;stroke:#000000;stroke-linecap:square;stroke-linejoin:miter;stroke-width:0.8;"/>
   </g>
   <g id="text_37">
    <!-- Выходной сигнал -->
    <g transform="translate(289.151886 159.4)scale(0.12 -0.12)">
     <defs>
      <path d="M 61.046875 54.6875 
L 70.03125 54.6875 
L 70.03125 0 
L 61.046875 0 
z
M 65.546875 56 
z
M 43.453125 16.21875 
Q 43.453125 20.609375 40.25 22.90625 
Q 37.0625 25.203125 30.90625 25.203125 
L 18.109375 25.203125 
L 18.109375 7.171875 
L 30.90625 7.171875 
Q 37.0625 7.171875 40.25 9.484375 
Q 43.453125 11.8125 43.453125 16.21875 
z
M 9.078125 54.6875 
L 18.109375 54.6875 
L 18.109375 32.375 
L 31.296875 32.375 
Q 41.75 32.375 47.390625 28.390625 
Q 53.03125 24.421875 53.03125 16.21875 
Q 53.03125 8.015625 47.390625 4 
Q 41.75 0 31.296875 0 
L 9.078125 0 
z
" id="DejaVuSans-1099"/>
     </defs>
     <use xlink:href="#DejaVuSans-1042"/>
     <use x="68.603516" xlink:href="#DejaVuSans-1099"/>
     <use x="147.558594" xlink:href="#DejaVuSans-1093"/>
     <use x="206.738281" xlink:href="#DejaVuSans-1086"/>
     <use x="267.919922" xlink:href="#DejaVuSans-1076"/>
     <use x="337.060547" xlink:href="#DejaVuSans-1085"/>
     <use x="402.441406" xlink:href="#DejaVuSans-1086"/>
     <use x="463.623047" xlink:href="#DejaVuSans-1081"/>
     <use x="528.613281" xlink:href="#DejaVuSans-32"/>
     <use x="560.400391" xlink:href="#DejaVuSans-1089"/>
     <use x="615.380859" xlink:href="#DejaVuSans-1080"/>
     <use x="680.371094" xlink:href="#DejaVuSans-1075"/>
     <use x="732.910156" xlink:href="#DejaVuSans-1085"/>
     <use x="798.291016" xlink:href="#DejaVuSans-1072"/>
     <use x="859.570312" xlink:href="#DejaVuSans-1083"/>
    </g>
   </g>
  </g>
 </g>
 <defs>
  <clipPath id="p76778e2433">
   <rect height="80.8" width="257.150614" x="164.049386" y="26.8"/>
  </clipPath>
  <clipPath id="p3c9b9dded3">
   <rect height="80.8" width="49.401843" x="60.175" y="26.8"/>
  </clipPath>
  <clipPath id="p9b3d0d8ee6">
   <rect height="80.8" width="153.276228" x="60.175" y="165.4"/>
  </clipPath>
  <clipPath id="p9f5d244561">
   <rect height="80.8" width="153.276228" x="267.923772" y="165.4"/>
  </clipPath>
 </defs>
</svg>
