<?xml version="1.0" encoding="utf-8" standalone="no"?>
<!DOCTYPE svg PUBLIC "-//W3C//DTD SVG 1.1//EN"
  "http://www.w3.org/Graphics/SVG/1.1/DTD/svg11.dtd">
<!-- Created with matplotlib (https://matplotlib.org/) -->
<svg height="288pt" version="1.1" viewBox="0 0 432 288" width="432pt" xmlns="http://www.w3.org/2000/svg" xmlns:xlink="http://www.w3.org/1999/xlink">
 <metadata>
  <rdf:RDF xmlns:cc="http://creativecommons.org/ns#" xmlns:dc="http://purl.org/dc/elements/1.1/" xmlns:rdf="http://www.w3.org/1999/02/22-rdf-syntax-ns#">
   <cc:Work>
    <dc:type rdf:resource="http://purl.org/dc/dcmitype/StillImage"/>
    <dc:date>2021-05-18T20:39:48.259165</dc:date>
    <dc:format>image/svg+xml</dc:format>
    <dc:creator>
     <cc:Agent>
      <dc:title>Matplotlib v3.3.4, https://matplotlib.org/</dc:title>
     </cc:Agent>
    </dc:creator>
   </cc:Work>
  </rdf:RDF>
 </metadata>
 <defs>
  <style type="text/css">*{stroke-linecap:butt;stroke-linejoin:round;}</style>
 </defs>
 <g id="figure_1">
  <g id="patch_1">
   <path d="M 0 288 
L 432 288 
L 432 0 
L 0 0 
z
" style="fill:none;"/>
  </g>
  <g id="axes_1">
   <g id="patch_2">
    <path d="M 163.589616 107.6 
L 418.512859 107.6 
L 418.512859 26.8 
L 163.589616 26.8 
z
" style="fill:#ffffff;"/>
   </g>
   <g id="matplotlib.axis_1">
    <g id="xtick_1">
     <g id="line2d_1">
      <path clip-path="url(#p35b548604c)" d="M 175.177036 107.6 
L 175.177036 26.8 
" style="fill:none;stroke:#b0b0b0;stroke-linecap:square;stroke-width:0.8;"/>
     </g>
     <g id="line2d_2">
      <defs>
       <path d="M 0 0 
L 0 3.5 
" id="ma4a9bf5433" style="stroke:#000000;stroke-width:0.8;"/>
      </defs>
      <g>
       <use style="stroke:#000000;stroke-width:0.8;" x="175.177036" xlink:href="#ma4a9bf5433" y="107.6"/>
      </g>
     </g>
     <g id="text_1">
      <!-- −100 -->
      <g transform="translate(161.443443 122.198437)scale(0.1 -0.1)">
       <defs>
        <path d="M 10.59375 35.5 
L 73.1875 35.5 
L 73.1875 27.203125 
L 10.59375 27.203125 
z
" id="DejaVuSans-8722"/>
        <path d="M 12.40625 8.296875 
L 28.515625 8.296875 
L 28.515625 63.921875 
L 10.984375 60.40625 
L 10.984375 69.390625 
L 28.421875 72.90625 
L 38.28125 72.90625 
L 38.28125 8.296875 
L 54.390625 8.296875 
L 54.390625 0 
L 12.40625 0 
z
" id="DejaVuSans-49"/>
        <path d="M 31.78125 66.40625 
Q 24.171875 66.40625 20.328125 58.90625 
Q 16.5 51.421875 16.5 36.375 
Q 16.5 21.390625 20.328125 13.890625 
Q 24.171875 6.390625 31.78125 6.390625 
Q 39.453125 6.390625 43.28125 13.890625 
Q 47.125 21.390625 47.125 36.375 
Q 47.125 51.421875 43.28125 58.90625 
Q 39.453125 66.40625 31.78125 66.40625 
z
M 31.78125 74.21875 
Q 44.046875 74.21875 50.515625 64.515625 
Q 56.984375 54.828125 56.984375 36.375 
Q 56.984375 17.96875 50.515625 8.265625 
Q 44.046875 -1.421875 31.78125 -1.421875 
Q 19.53125 -1.421875 13.0625 8.265625 
Q 6.59375 17.96875 6.59375 36.375 
Q 6.59375 54.828125 13.0625 64.515625 
Q 19.53125 74.21875 31.78125 74.21875 
z
" id="DejaVuSans-48"/>
       </defs>
       <use xlink:href="#DejaVuSans-8722"/>
       <use x="83.789062" xlink:href="#DejaVuSans-49"/>
       <use x="147.412109" xlink:href="#DejaVuSans-48"/>
       <use x="211.035156" xlink:href="#DejaVuSans-48"/>
      </g>
     </g>
    </g>
    <g id="xtick_2">
     <g id="line2d_3">
      <path clip-path="url(#p35b548604c)" d="M 221.619602 107.6 
L 221.619602 26.8 
" style="fill:none;stroke:#b0b0b0;stroke-linecap:square;stroke-width:0.8;"/>
     </g>
     <g id="line2d_4">
      <g>
       <use style="stroke:#000000;stroke-width:0.8;" x="221.619602" xlink:href="#ma4a9bf5433" y="107.6"/>
      </g>
     </g>
     <g id="text_2">
      <!-- 0 -->
      <g transform="translate(218.438352 122.198437)scale(0.1 -0.1)">
       <use xlink:href="#DejaVuSans-48"/>
      </g>
     </g>
    </g>
    <g id="xtick_3">
     <g id="line2d_5">
      <path clip-path="url(#p35b548604c)" d="M 268.062167 107.6 
L 268.062167 26.8 
" style="fill:none;stroke:#b0b0b0;stroke-linecap:square;stroke-width:0.8;"/>
     </g>
     <g id="line2d_6">
      <g>
       <use style="stroke:#000000;stroke-width:0.8;" x="268.062167" xlink:href="#ma4a9bf5433" y="107.6"/>
      </g>
     </g>
     <g id="text_3">
      <!-- 100 -->
      <g transform="translate(258.518417 122.198437)scale(0.1 -0.1)">
       <use xlink:href="#DejaVuSans-49"/>
       <use x="63.623047" xlink:href="#DejaVuSans-48"/>
       <use x="127.246094" xlink:href="#DejaVuSans-48"/>
      </g>
     </g>
    </g>
    <g id="xtick_4">
     <g id="line2d_7">
      <path clip-path="url(#p35b548604c)" d="M 314.504733 107.6 
L 314.504733 26.8 
" style="fill:none;stroke:#b0b0b0;stroke-linecap:square;stroke-width:0.8;"/>
     </g>
     <g id="line2d_8">
      <g>
       <use style="stroke:#000000;stroke-width:0.8;" x="314.504733" xlink:href="#ma4a9bf5433" y="107.6"/>
      </g>
     </g>
     <g id="text_4">
      <!-- 200 -->
      <g transform="translate(304.960983 122.198437)scale(0.1 -0.1)">
       <defs>
        <path d="M 19.1875 8.296875 
L 53.609375 8.296875 
L 53.609375 0 
L 7.328125 0 
L 7.328125 8.296875 
Q 12.9375 14.109375 22.625 23.890625 
Q 32.328125 33.6875 34.8125 36.53125 
Q 39.546875 41.84375 41.421875 45.53125 
Q 43.3125 49.21875 43.3125 52.78125 
Q 43.3125 58.59375 39.234375 62.25 
Q 35.15625 65.921875 28.609375 65.921875 
Q 23.96875 65.921875 18.8125 64.3125 
Q 13.671875 62.703125 7.8125 59.421875 
L 7.8125 69.390625 
Q 13.765625 71.78125 18.9375 73 
Q 24.125 74.21875 28.421875 74.21875 
Q 39.75 74.21875 46.484375 68.546875 
Q 53.21875 62.890625 53.21875 53.421875 
Q 53.21875 48.921875 51.53125 44.890625 
Q 49.859375 40.875 45.40625 35.40625 
Q 44.1875 33.984375 37.640625 27.21875 
Q 31.109375 20.453125 19.1875 8.296875 
z
" id="DejaVuSans-50"/>
       </defs>
       <use xlink:href="#DejaVuSans-50"/>
       <use x="63.623047" xlink:href="#DejaVuSans-48"/>
       <use x="127.246094" xlink:href="#DejaVuSans-48"/>
      </g>
     </g>
    </g>
    <g id="xtick_5">
     <g id="line2d_9">
      <path clip-path="url(#p35b548604c)" d="M 360.947299 107.6 
L 360.947299 26.8 
" style="fill:none;stroke:#b0b0b0;stroke-linecap:square;stroke-width:0.8;"/>
     </g>
     <g id="line2d_10">
      <g>
       <use style="stroke:#000000;stroke-width:0.8;" x="360.947299" xlink:href="#ma4a9bf5433" y="107.6"/>
      </g>
     </g>
     <g id="text_5">
      <!-- 300 -->
      <g transform="translate(351.403549 122.198437)scale(0.1 -0.1)">
       <defs>
        <path d="M 40.578125 39.3125 
Q 47.65625 37.796875 51.625 33 
Q 55.609375 28.21875 55.609375 21.1875 
Q 55.609375 10.40625 48.1875 4.484375 
Q 40.765625 -1.421875 27.09375 -1.421875 
Q 22.515625 -1.421875 17.65625 -0.515625 
Q 12.796875 0.390625 7.625 2.203125 
L 7.625 11.71875 
Q 11.71875 9.328125 16.59375 8.109375 
Q 21.484375 6.890625 26.8125 6.890625 
Q 36.078125 6.890625 40.9375 10.546875 
Q 45.796875 14.203125 45.796875 21.1875 
Q 45.796875 27.640625 41.28125 31.265625 
Q 36.765625 34.90625 28.71875 34.90625 
L 20.21875 34.90625 
L 20.21875 43.015625 
L 29.109375 43.015625 
Q 36.375 43.015625 40.234375 45.921875 
Q 44.09375 48.828125 44.09375 54.296875 
Q 44.09375 59.90625 40.109375 62.90625 
Q 36.140625 65.921875 28.71875 65.921875 
Q 24.65625 65.921875 20.015625 65.03125 
Q 15.375 64.15625 9.8125 62.3125 
L 9.8125 71.09375 
Q 15.4375 72.65625 20.34375 73.4375 
Q 25.25 74.21875 29.59375 74.21875 
Q 40.828125 74.21875 47.359375 69.109375 
Q 53.90625 64.015625 53.90625 55.328125 
Q 53.90625 49.265625 50.4375 45.09375 
Q 46.96875 40.921875 40.578125 39.3125 
z
" id="DejaVuSans-51"/>
       </defs>
       <use xlink:href="#DejaVuSans-51"/>
       <use x="63.623047" xlink:href="#DejaVuSans-48"/>
       <use x="127.246094" xlink:href="#DejaVuSans-48"/>
      </g>
     </g>
    </g>
    <g id="xtick_6">
     <g id="line2d_11">
      <path clip-path="url(#p35b548604c)" d="M 407.389864 107.6 
L 407.389864 26.8 
" style="fill:none;stroke:#b0b0b0;stroke-linecap:square;stroke-width:0.8;"/>
     </g>
     <g id="line2d_12">
      <g>
       <use style="stroke:#000000;stroke-width:0.8;" x="407.389864" xlink:href="#ma4a9bf5433" y="107.6"/>
      </g>
     </g>
     <g id="text_6">
      <!-- 400 -->
      <g transform="translate(397.846114 122.198437)scale(0.1 -0.1)">
       <defs>
        <path d="M 37.796875 64.3125 
L 12.890625 25.390625 
L 37.796875 25.390625 
z
M 35.203125 72.90625 
L 47.609375 72.90625 
L 47.609375 25.390625 
L 58.015625 25.390625 
L 58.015625 17.1875 
L 47.609375 17.1875 
L 47.609375 0 
L 37.796875 0 
L 37.796875 17.1875 
L 4.890625 17.1875 
L 4.890625 26.703125 
z
" id="DejaVuSans-52"/>
       </defs>
       <use xlink:href="#DejaVuSans-52"/>
       <use x="63.623047" xlink:href="#DejaVuSans-48"/>
       <use x="127.246094" xlink:href="#DejaVuSans-48"/>
      </g>
     </g>
    </g>
    <g id="text_7">
     <!-- t -->
     <g transform="translate(289.091081 135.876562)scale(0.1 -0.1)">
      <defs>
       <path d="M 18.3125 70.21875 
L 18.3125 54.6875 
L 36.8125 54.6875 
L 36.8125 47.703125 
L 18.3125 47.703125 
L 18.3125 18.015625 
Q 18.3125 11.328125 20.140625 9.421875 
Q 21.96875 7.515625 27.59375 7.515625 
L 36.8125 7.515625 
L 36.8125 0 
L 27.59375 0 
Q 17.1875 0 13.234375 3.875 
Q 9.28125 7.765625 9.28125 18.015625 
L 9.28125 47.703125 
L 2.6875 47.703125 
L 2.6875 54.6875 
L 9.28125 54.6875 
L 9.28125 70.21875 
z
" id="DejaVuSans-116"/>
      </defs>
      <use xlink:href="#DejaVuSans-116"/>
     </g>
    </g>
   </g>
   <g id="matplotlib.axis_2">
    <g id="ytick_1">
     <g id="line2d_13">
      <path clip-path="url(#p35b548604c)" d="M 163.589616 103.927273 
L 418.512859 103.927273 
" style="fill:none;stroke:#b0b0b0;stroke-linecap:square;stroke-width:0.8;"/>
     </g>
     <g id="line2d_14">
      <defs>
       <path d="M 0 0 
L -3.5 0 
" id="mfa4f0e1fad" style="stroke:#000000;stroke-width:0.8;"/>
      </defs>
      <g>
       <use style="stroke:#000000;stroke-width:0.8;" x="163.589616" xlink:href="#mfa4f0e1fad" y="103.927273"/>
      </g>
     </g>
     <g id="text_8">
      <!-- 0.0 -->
      <g transform="translate(140.686491 107.726491)scale(0.1 -0.1)">
       <defs>
        <path d="M 10.6875 12.40625 
L 21 12.40625 
L 21 0 
L 10.6875 0 
z
" id="DejaVuSans-46"/>
       </defs>
       <use xlink:href="#DejaVuSans-48"/>
       <use x="63.623047" xlink:href="#DejaVuSans-46"/>
       <use x="95.410156" xlink:href="#DejaVuSans-48"/>
      </g>
     </g>
    </g>
    <g id="ytick_2">
     <g id="line2d_15">
      <path clip-path="url(#p35b548604c)" d="M 163.589616 67.2 
L 418.512859 67.2 
" style="fill:none;stroke:#b0b0b0;stroke-linecap:square;stroke-width:0.8;"/>
     </g>
     <g id="line2d_16">
      <g>
       <use style="stroke:#000000;stroke-width:0.8;" x="163.589616" xlink:href="#mfa4f0e1fad" y="67.2"/>
      </g>
     </g>
     <g id="text_9">
      <!-- 0.5 -->
      <g transform="translate(140.686491 70.999219)scale(0.1 -0.1)">
       <defs>
        <path d="M 10.796875 72.90625 
L 49.515625 72.90625 
L 49.515625 64.59375 
L 19.828125 64.59375 
L 19.828125 46.734375 
Q 21.96875 47.46875 24.109375 47.828125 
Q 26.265625 48.1875 28.421875 48.1875 
Q 40.625 48.1875 47.75 41.5 
Q 54.890625 34.8125 54.890625 23.390625 
Q 54.890625 11.625 47.5625 5.09375 
Q 40.234375 -1.421875 26.90625 -1.421875 
Q 22.3125 -1.421875 17.546875 -0.640625 
Q 12.796875 0.140625 7.71875 1.703125 
L 7.71875 11.625 
Q 12.109375 9.234375 16.796875 8.0625 
Q 21.484375 6.890625 26.703125 6.890625 
Q 35.15625 6.890625 40.078125 11.328125 
Q 45.015625 15.765625 45.015625 23.390625 
Q 45.015625 31 40.078125 35.4375 
Q 35.15625 39.890625 26.703125 39.890625 
Q 22.75 39.890625 18.8125 39.015625 
Q 14.890625 38.140625 10.796875 36.28125 
z
" id="DejaVuSans-53"/>
       </defs>
       <use xlink:href="#DejaVuSans-48"/>
       <use x="63.623047" xlink:href="#DejaVuSans-46"/>
       <use x="95.410156" xlink:href="#DejaVuSans-53"/>
      </g>
     </g>
    </g>
    <g id="ytick_3">
     <g id="line2d_17">
      <path clip-path="url(#p35b548604c)" d="M 163.589616 30.472727 
L 418.512859 30.472727 
" style="fill:none;stroke:#b0b0b0;stroke-linecap:square;stroke-width:0.8;"/>
     </g>
     <g id="line2d_18">
      <g>
       <use style="stroke:#000000;stroke-width:0.8;" x="163.589616" xlink:href="#mfa4f0e1fad" y="30.472727"/>
      </g>
     </g>
     <g id="text_10">
      <!-- 1.0 -->
      <g transform="translate(140.686491 34.271946)scale(0.1 -0.1)">
       <use xlink:href="#DejaVuSans-49"/>
       <use x="63.623047" xlink:href="#DejaVuSans-46"/>
       <use x="95.410156" xlink:href="#DejaVuSans-48"/>
      </g>
     </g>
    </g>
    <g id="text_11">
     <!-- h(t) -->
     <g transform="translate(134.606804 76.230469)rotate(-90)scale(0.1 -0.1)">
      <defs>
       <path d="M 54.890625 33.015625 
L 54.890625 0 
L 45.90625 0 
L 45.90625 32.71875 
Q 45.90625 40.484375 42.875 44.328125 
Q 39.84375 48.1875 33.796875 48.1875 
Q 26.515625 48.1875 22.3125 43.546875 
Q 18.109375 38.921875 18.109375 30.90625 
L 18.109375 0 
L 9.078125 0 
L 9.078125 75.984375 
L 18.109375 75.984375 
L 18.109375 46.1875 
Q 21.34375 51.125 25.703125 53.5625 
Q 30.078125 56 35.796875 56 
Q 45.21875 56 50.046875 50.171875 
Q 54.890625 44.34375 54.890625 33.015625 
z
" id="DejaVuSans-104"/>
       <path d="M 31 75.875 
Q 24.46875 64.65625 21.28125 53.65625 
Q 18.109375 42.671875 18.109375 31.390625 
Q 18.109375 20.125 21.3125 9.0625 
Q 24.515625 -2 31 -13.1875 
L 23.1875 -13.1875 
Q 15.875 -1.703125 12.234375 9.375 
Q 8.59375 20.453125 8.59375 31.390625 
Q 8.59375 42.28125 12.203125 53.3125 
Q 15.828125 64.359375 23.1875 75.875 
z
" id="DejaVuSans-40"/>
       <path d="M 8.015625 75.875 
L 15.828125 75.875 
Q 23.140625 64.359375 26.78125 53.3125 
Q 30.421875 42.28125 30.421875 31.390625 
Q 30.421875 20.453125 26.78125 9.375 
Q 23.140625 -1.703125 15.828125 -13.1875 
L 8.015625 -13.1875 
Q 14.5 -2 17.703125 9.0625 
Q 20.90625 20.125 20.90625 31.390625 
Q 20.90625 42.671875 17.703125 53.65625 
Q 14.5 64.65625 8.015625 75.875 
z
" id="DejaVuSans-41"/>
      </defs>
      <use xlink:href="#DejaVuSans-104"/>
      <use x="63.378906" xlink:href="#DejaVuSans-40"/>
      <use x="102.392578" xlink:href="#DejaVuSans-116"/>
      <use x="141.601562" xlink:href="#DejaVuSans-41"/>
     </g>
    </g>
   </g>
   <g id="line2d_19">
    <path clip-path="url(#p35b548604c)" d="M 175.177036 103.927273 
L 221.155176 103.927273 
L 221.619602 30.472727 
L 222.084028 103.927273 
L 406.925439 103.927273 
L 406.925439 103.927273 
" style="fill:none;stroke:#1f77b4;stroke-linecap:square;stroke-width:1.5;"/>
   </g>
   <g id="patch_3">
    <path d="M 163.589616 107.6 
L 163.589616 26.8 
" style="fill:none;stroke:#000000;stroke-linecap:square;stroke-linejoin:miter;stroke-width:0.8;"/>
   </g>
   <g id="patch_4">
    <path d="M 418.512859 107.6 
L 418.512859 26.8 
" style="fill:none;stroke:#000000;stroke-linecap:square;stroke-linejoin:miter;stroke-width:0.8;"/>
   </g>
   <g id="patch_5">
    <path d="M 163.589616 107.6 
L 418.512859 107.6 
" style="fill:none;stroke:#000000;stroke-linecap:square;stroke-linejoin:miter;stroke-width:0.8;"/>
   </g>
   <g id="patch_6">
    <path d="M 163.589616 26.8 
L 418.512859 26.8 
" style="fill:none;stroke:#000000;stroke-linecap:square;stroke-linejoin:miter;stroke-width:0.8;"/>
   </g>
   <g id="text_12">
    <!-- Звено с чистым запаздыванием -->
    <g transform="translate(190.06655 20.8)scale(0.12 -0.12)">
     <defs>
      <path d="M 28.5625 74.21875 
Q 40.578125 74.21875 48.1875 69.109375 
Q 55.8125 64.015625 55.8125 55.328125 
Q 55.8125 49.265625 52.34375 45.09375 
Q 48.875 40.921875 42.484375 39.3125 
Q 49.5625 37.796875 53.53125 33 
Q 57.515625 28.21875 57.515625 21.1875 
Q 57.515625 9.96875 48.84375 4.265625 
Q 40.1875 -1.421875 28.5625 -1.421875 
Q 22.609375 -1.421875 15.671875 0.1875 
Q 8.734375 1.8125 6.59375 3.171875 
L 6.59375 13.328125 
Q 14.0625 8.984375 18.1875 7.9375 
Q 22.3125 6.890625 28.375 6.890625 
Q 37.546875 6.890625 42.625 10.40625 
Q 47.703125 13.921875 47.703125 21.1875 
Q 47.703125 27.640625 43.1875 31.265625 
Q 38.671875 34.90625 29.15625 34.90625 
L 19.1875 34.90625 
L 19.1875 43.015625 
L 29.546875 43.015625 
Q 38.28125 43.015625 42.140625 45.921875 
Q 46 48.828125 46 54.296875 
Q 46 59.90625 42.015625 62.90625 
Q 38.03125 65.921875 28.375 65.921875 
Q 21.828125 65.921875 19.578125 65.328125 
Q 17.328125 64.75 7.328125 60.984375 
L 7.328125 70.609375 
Q 12.84375 72.5625 18.59375 73.390625 
Q 24.359375 74.21875 28.5625 74.21875 
z
" id="DejaVuSans-1047"/>
      <path d="M 18.0625 25.203125 
L 18.0625 7.171875 
L 30.859375 7.171875 
Q 37.015625 7.171875 40.234375 9.484375 
Q 43.453125 11.8125 43.453125 16.21875 
Q 43.453125 20.609375 40.234375 22.90625 
Q 37.015625 25.203125 30.859375 25.203125 
z
M 18.0625 47.515625 
L 18.0625 32.375 
L 29.890625 32.375 
Q 34.96875 32.375 38.1875 34.390625 
Q 41.40625 36.421875 41.40625 40.046875 
Q 41.40625 43.65625 38.1875 45.578125 
Q 34.96875 47.515625 29.890625 47.515625 
z
M 9.078125 54.6875 
L 30.46875 54.6875 
Q 40.09375 54.6875 45.265625 51.171875 
Q 50.4375 47.65625 50.4375 41.15625 
Q 50.4375 36.140625 47.796875 33.171875 
Q 45.171875 30.21875 39.984375 29.5 
Q 46.1875 28.328125 49.609375 24.609375 
Q 53.03125 20.90625 53.03125 15.328125 
Q 53.03125 8.015625 47.390625 4 
Q 41.75 0 31.296875 0 
L 9.078125 0 
z
" id="DejaVuSans-1074"/>
      <path d="M 56.203125 29.59375 
L 56.203125 25.203125 
L 14.890625 25.203125 
Q 15.484375 15.921875 20.484375 11.0625 
Q 25.484375 6.203125 34.421875 6.203125 
Q 39.59375 6.203125 44.453125 7.46875 
Q 49.3125 8.734375 54.109375 11.28125 
L 54.109375 2.78125 
Q 49.265625 0.734375 44.1875 -0.34375 
Q 39.109375 -1.421875 33.890625 -1.421875 
Q 20.796875 -1.421875 13.15625 6.1875 
Q 5.515625 13.8125 5.515625 26.8125 
Q 5.515625 40.234375 12.765625 48.109375 
Q 20.015625 56 32.328125 56 
Q 43.359375 56 49.78125 48.890625 
Q 56.203125 41.796875 56.203125 29.59375 
z
M 47.21875 32.234375 
Q 47.125 39.59375 43.09375 43.984375 
Q 39.0625 48.390625 32.421875 48.390625 
Q 24.90625 48.390625 20.390625 44.140625 
Q 15.875 39.890625 15.1875 32.171875 
z
" id="DejaVuSans-1077"/>
      <path d="M 9.078125 54.6875 
L 18.109375 54.6875 
L 18.109375 32.375 
L 47.265625 32.375 
L 47.265625 54.6875 
L 56.296875 54.6875 
L 56.296875 0 
L 47.265625 0 
L 47.265625 25.203125 
L 18.109375 25.203125 
L 18.109375 0 
L 9.078125 0 
z
" id="DejaVuSans-1085"/>
      <path d="M 30.609375 48.390625 
Q 23.390625 48.390625 19.1875 42.75 
Q 14.984375 37.109375 14.984375 27.296875 
Q 14.984375 17.484375 19.15625 11.84375 
Q 23.34375 6.203125 30.609375 6.203125 
Q 37.796875 6.203125 41.984375 11.859375 
Q 46.1875 17.53125 46.1875 27.296875 
Q 46.1875 37.015625 41.984375 42.703125 
Q 37.796875 48.390625 30.609375 48.390625 
z
M 30.609375 56 
Q 42.328125 56 49.015625 48.375 
Q 55.71875 40.765625 55.71875 27.296875 
Q 55.71875 13.875 49.015625 6.21875 
Q 42.328125 -1.421875 30.609375 -1.421875 
Q 18.84375 -1.421875 12.171875 6.21875 
Q 5.515625 13.875 5.515625 27.296875 
Q 5.515625 40.765625 12.171875 48.375 
Q 18.84375 56 30.609375 56 
z
" id="DejaVuSans-1086"/>
      <path id="DejaVuSans-32"/>
      <path d="M 48.78125 52.59375 
L 48.78125 44.1875 
Q 44.96875 46.296875 41.140625 47.34375 
Q 37.3125 48.390625 33.40625 48.390625 
Q 24.65625 48.390625 19.8125 42.84375 
Q 14.984375 37.3125 14.984375 27.296875 
Q 14.984375 17.28125 19.8125 11.734375 
Q 24.65625 6.203125 33.40625 6.203125 
Q 37.3125 6.203125 41.140625 7.25 
Q 44.96875 8.296875 48.78125 10.40625 
L 48.78125 2.09375 
Q 45.015625 0.34375 40.984375 -0.53125 
Q 36.96875 -1.421875 32.421875 -1.421875 
Q 20.0625 -1.421875 12.78125 6.34375 
Q 5.515625 14.109375 5.515625 27.296875 
Q 5.515625 40.671875 12.859375 48.328125 
Q 20.21875 56 33.015625 56 
Q 37.15625 56 41.109375 55.140625 
Q 45.0625 54.296875 48.78125 52.59375 
z
" id="DejaVuSans-1089"/>
      <path d="M 41.015625 0 
L 41.015625 23 
L 24.265625 23 
Q 16.796875 23 11.8125 27.640625 
Q 7.328125 31.84375 7.328125 40.828125 
L 7.328125 54.6875 
L 16.3125 54.6875 
L 16.3125 41.65625 
Q 16.3125 35.9375 18.84375 33.0625 
Q 21.4375 30.171875 26.515625 30.171875 
L 41.015625 30.171875 
L 41.015625 54.6875 
L 50 54.6875 
L 50 0 
z
" id="DejaVuSans-1095"/>
      <path d="M 55.90625 54.6875 
L 55.90625 0 
L 46.96875 0 
L 46.96875 43.890625 
L 20.609375 0 
L 9.078125 0 
L 9.078125 54.6875 
L 18.015625 54.6875 
L 18.015625 10.890625 
L 44.34375 54.6875 
z
" id="DejaVuSans-1080"/>
      <path d="M 2.9375 54.6875 
L 55.328125 54.6875 
L 55.328125 47.515625 
L 33.546875 47.515625 
L 33.546875 0 
L 24.703125 0 
L 24.703125 47.515625 
L 2.9375 47.515625 
z
" id="DejaVuSans-1090"/>
      <path d="M 61.046875 54.6875 
L 70.03125 54.6875 
L 70.03125 0 
L 61.046875 0 
z
M 65.546875 56 
z
M 43.453125 16.21875 
Q 43.453125 20.609375 40.25 22.90625 
Q 37.0625 25.203125 30.90625 25.203125 
L 18.109375 25.203125 
L 18.109375 7.171875 
L 30.90625 7.171875 
Q 37.0625 7.171875 40.25 9.484375 
Q 43.453125 11.8125 43.453125 16.21875 
z
M 9.078125 54.6875 
L 18.109375 54.6875 
L 18.109375 32.375 
L 31.296875 32.375 
Q 41.75 32.375 47.390625 28.390625 
Q 53.03125 24.421875 53.03125 16.21875 
Q 53.03125 8.015625 47.390625 4 
Q 41.75 0 31.296875 0 
L 9.078125 0 
z
" id="DejaVuSans-1099"/>
      <path d="M 9.078125 54.6875 
L 22.21875 54.6875 
L 37.75 18.0625 
L 53.328125 54.6875 
L 66.359375 54.6875 
L 66.359375 0 
L 57.328125 0 
L 57.328125 46.09375 
L 42.234375 10.5 
L 33.25 10.5 
L 18.109375 46.09375 
L 18.109375 0 
L 9.078125 0 
z
" id="DejaVuSans-1084"/>
      <path d="M 34.46875 29.5 
Q 40.53125 28.328125 43.890625 24.75 
Q 47.265625 21.1875 47.265625 15.921875 
Q 47.265625 7.46875 40.96875 3.015625 
Q 34.671875 -1.421875 23.046875 -1.421875 
Q 19.140625 -1.421875 15.015625 -0.734375 
Q 10.890625 -0.046875 6.5 1.3125 
L 6.5 9.671875 
Q 9.96875 7.859375 14.109375 6.953125 
Q 18.265625 6.0625 22.796875 6.0625 
Q 30.171875 6.0625 34.296875 8.796875 
Q 38.421875 11.53125 38.421875 15.921875 
Q 38.421875 20.21875 34.765625 22.828125 
Q 31.109375 25.4375 24.421875 25.4375 
L 17.1875 25.4375 
L 17.1875 32.859375 
L 24.75 32.859375 
Q 30.421875 32.859375 33.71875 35.03125 
Q 37.015625 37.203125 37.015625 40.625 
Q 37.015625 43.75 33.609375 46 
Q 30.21875 48.25 24.421875 48.25 
Q 20.953125 48.25 17.015625 47.609375 
Q 13.09375 46.96875 8.34375 45.5625 
L 8.34375 53.71875 
Q 13.140625 54.890625 17.28125 55.46875 
Q 21.4375 56.0625 25.140625 56.0625 
Q 34.71875 56.0625 40.25 52.21875 
Q 45.796875 48.390625 45.796875 41.5 
Q 45.796875 36.96875 42.859375 33.8125 
Q 39.9375 30.671875 34.46875 29.5 
z
" id="DejaVuSans-1079"/>
      <path d="M 34.28125 27.484375 
Q 23.390625 27.484375 19.1875 25 
Q 14.984375 22.515625 14.984375 16.5 
Q 14.984375 11.71875 18.140625 8.90625 
Q 21.296875 6.109375 26.703125 6.109375 
Q 34.1875 6.109375 38.703125 11.40625 
Q 43.21875 16.703125 43.21875 25.484375 
L 43.21875 27.484375 
z
M 52.203125 31.203125 
L 52.203125 0 
L 43.21875 0 
L 43.21875 8.296875 
Q 40.140625 3.328125 35.546875 0.953125 
Q 30.953125 -1.421875 24.3125 -1.421875 
Q 15.921875 -1.421875 10.953125 3.296875 
Q 6 8.015625 6 15.921875 
Q 6 25.140625 12.171875 29.828125 
Q 18.359375 34.515625 30.609375 34.515625 
L 43.21875 34.515625 
L 43.21875 35.40625 
Q 43.21875 41.609375 39.140625 45 
Q 35.0625 48.390625 27.6875 48.390625 
Q 23 48.390625 18.546875 47.265625 
Q 14.109375 46.140625 10.015625 43.890625 
L 10.015625 52.203125 
Q 14.9375 54.109375 19.578125 55.046875 
Q 24.21875 56 28.609375 56 
Q 40.484375 56 46.34375 49.84375 
Q 52.203125 43.703125 52.203125 31.203125 
z
" id="DejaVuSans-1072"/>
      <path d="M 56.296875 54.6875 
L 56.296875 0 
L 47.265625 0 
L 47.265625 47.515625 
L 18.109375 47.515625 
L 18.109375 0 
L 9.078125 0 
L 9.078125 54.6875 
z
" id="DejaVuSans-1087"/>
      <path d="M 21.625 7.171875 
L 47.703125 7.171875 
L 47.703125 47.515625 
L 28.8125 47.515625 
L 28.8125 40.671875 
Q 28.8125 20.5625 23.046875 9.8125 
z
M 8.59375 7.171875 
Q 13.03125 9.125 14.984375 13.28125 
Q 19.78125 23.578125 19.78125 44.34375 
L 19.78125 54.6875 
L 56.734375 54.6875 
L 56.734375 7.171875 
L 63.921875 7.171875 
L 63.921875 -13.8125 
L 56.734375 -13.8125 
L 56.734375 0 
L 12.40625 0 
L 12.40625 -13.8125 
L 5.21875 -13.8125 
L 5.21875 7.171875 
z
" id="DejaVuSans-1076"/>
     </defs>
     <use xlink:href="#DejaVuSans-1047"/>
     <use x="64.111328" xlink:href="#DejaVuSans-1074"/>
     <use x="123.046875" xlink:href="#DejaVuSans-1077"/>
     <use x="184.570312" xlink:href="#DejaVuSans-1085"/>
     <use x="249.951172" xlink:href="#DejaVuSans-1086"/>
     <use x="311.132812" xlink:href="#DejaVuSans-32"/>
     <use x="342.919922" xlink:href="#DejaVuSans-1089"/>
     <use x="397.900391" xlink:href="#DejaVuSans-32"/>
     <use x="429.6875" xlink:href="#DejaVuSans-1095"/>
     <use x="488.769531" xlink:href="#DejaVuSans-1080"/>
     <use x="553.759766" xlink:href="#DejaVuSans-1089"/>
     <use x="608.740234" xlink:href="#DejaVuSans-1090"/>
     <use x="666.992188" xlink:href="#DejaVuSans-1099"/>
     <use x="745.947266" xlink:href="#DejaVuSans-1084"/>
     <use x="821.386719" xlink:href="#DejaVuSans-32"/>
     <use x="853.173828" xlink:href="#DejaVuSans-1079"/>
     <use x="906.347656" xlink:href="#DejaVuSans-1072"/>
     <use x="967.626953" xlink:href="#DejaVuSans-1087"/>
     <use x="1033.007812" xlink:href="#DejaVuSans-1072"/>
     <use x="1094.287109" xlink:href="#DejaVuSans-1079"/>
     <use x="1147.460938" xlink:href="#DejaVuSans-1076"/>
     <use x="1216.601562" xlink:href="#DejaVuSans-1099"/>
     <use x="1295.556641" xlink:href="#DejaVuSans-1074"/>
     <use x="1354.492188" xlink:href="#DejaVuSans-1072"/>
     <use x="1415.771484" xlink:href="#DejaVuSans-1085"/>
     <use x="1481.152344" xlink:href="#DejaVuSans-1080"/>
     <use x="1546.142578" xlink:href="#DejaVuSans-1077"/>
     <use x="1607.666016" xlink:href="#DejaVuSans-1084"/>
    </g>
   </g>
  </g>
  <g id="axes_2">
   <g id="patch_7">
    <path d="M 60.175 107.6 
L 108.26901 107.6 
L 108.26901 26.8 
L 60.175 26.8 
z
" style="fill:#ffffff;"/>
   </g>
   <g id="PolyCollection_1">
    <path clip-path="url(#pcf2ce47161)" d="M 62.361091 103.927273 
L 62.361091 30.472727 
L 62.802726 103.927273 
L 63.244361 103.927273 
L 63.685995 103.927273 
L 64.12763 103.927273 
L 64.569264 103.927273 
L 65.010899 103.927273 
L 65.452534 103.927273 
L 65.894168 103.927273 
L 66.335803 103.927273 
L 66.777438 103.927273 
L 67.219072 103.927273 
L 67.660707 103.927273 
L 68.102341 103.927273 
L 68.543976 103.927273 
L 68.985611 103.927273 
L 69.427245 103.927273 
L 69.86888 103.927273 
L 70.310515 103.927273 
L 70.752149 103.927273 
L 71.193784 103.927273 
L 71.635418 103.927273 
L 72.077053 103.927273 
L 72.518688 103.927273 
L 72.960322 103.927273 
L 73.401957 103.927273 
L 73.843592 103.927273 
L 74.285226 103.927273 
L 74.726861 103.927273 
L 75.168495 103.927273 
L 75.61013 103.927273 
L 76.051765 103.927273 
L 76.493399 103.927273 
L 76.935034 103.927273 
L 77.376669 103.927273 
L 77.818303 103.927273 
L 78.259938 103.927273 
L 78.701572 103.927273 
L 79.143207 103.927273 
L 79.584842 103.927273 
L 80.026476 103.927273 
L 80.468111 103.927273 
L 80.909746 103.927273 
L 81.35138 103.927273 
L 81.793015 103.927273 
L 82.234649 103.927273 
L 82.676284 103.927273 
L 83.117919 103.927273 
L 83.559553 103.927273 
L 84.001188 103.927273 
L 84.442822 103.927273 
L 84.884457 103.927273 
L 85.326092 103.927273 
L 85.767726 103.927273 
L 86.209361 103.927273 
L 86.650996 103.927273 
L 87.09263 103.927273 
L 87.534265 103.927273 
L 87.975899 103.927273 
L 88.417534 103.927273 
L 88.859169 103.927273 
L 89.300803 103.927273 
L 89.742438 103.927273 
L 90.184073 103.927273 
L 90.625707 103.927273 
L 91.067342 103.927273 
L 91.508976 103.927273 
L 91.950611 103.927273 
L 92.392246 103.927273 
L 92.83388 103.927273 
L 93.275515 103.927273 
L 93.71715 103.927273 
L 94.158784 103.927273 
L 94.600419 103.927273 
L 95.042053 103.927273 
L 95.483688 103.927273 
L 95.925323 103.927273 
L 96.366957 103.927273 
L 96.808592 103.927273 
L 97.250227 103.927273 
L 97.691861 103.927273 
L 98.133496 103.927273 
L 98.57513 103.927273 
L 99.016765 103.927273 
L 99.4584 103.927273 
L 99.900034 103.927273 
L 100.341669 103.927273 
L 100.783303 103.927273 
L 101.224938 103.927273 
L 101.666573 103.927273 
L 102.108207 103.927273 
L 102.549842 103.927273 
L 102.991477 103.927273 
L 103.433111 103.927273 
L 103.874746 103.927273 
L 104.31638 103.927273 
L 104.758015 103.927273 
L 105.19965 103.927273 
L 105.641284 103.927273 
L 106.082919 103.927273 
L 106.082919 103.927273 
L 106.082919 103.927273 
L 105.641284 103.927273 
L 105.19965 103.927273 
L 104.758015 103.927273 
L 104.31638 103.927273 
L 103.874746 103.927273 
L 103.433111 103.927273 
L 102.991477 103.927273 
L 102.549842 103.927273 
L 102.108207 103.927273 
L 101.666573 103.927273 
L 101.224938 103.927273 
L 100.783303 103.927273 
L 100.341669 103.927273 
L 99.900034 103.927273 
L 99.4584 103.927273 
L 99.016765 103.927273 
L 98.57513 103.927273 
L 98.133496 103.927273 
L 97.691861 103.927273 
L 97.250227 103.927273 
L 96.808592 103.927273 
L 96.366957 103.927273 
L 95.925323 103.927273 
L 95.483688 103.927273 
L 95.042053 103.927273 
L 94.600419 103.927273 
L 94.158784 103.927273 
L 93.71715 103.927273 
L 93.275515 103.927273 
L 92.83388 103.927273 
L 92.392246 103.927273 
L 91.950611 103.927273 
L 91.508976 103.927273 
L 91.067342 103.927273 
L 90.625707 103.927273 
L 90.184073 103.927273 
L 89.742438 103.927273 
L 89.300803 103.927273 
L 88.859169 103.927273 
L 88.417534 103.927273 
L 87.975899 103.927273 
L 87.534265 103.927273 
L 87.09263 103.927273 
L 86.650996 103.927273 
L 86.209361 103.927273 
L 85.767726 103.927273 
L 85.326092 103.927273 
L 84.884457 103.927273 
L 84.442822 103.927273 
L 84.001188 103.927273 
L 83.559553 103.927273 
L 83.117919 103.927273 
L 82.676284 103.927273 
L 82.234649 103.927273 
L 81.793015 103.927273 
L 81.35138 103.927273 
L 80.909746 103.927273 
L 80.468111 103.927273 
L 80.026476 103.927273 
L 79.584842 103.927273 
L 79.143207 103.927273 
L 78.701572 103.927273 
L 78.259938 103.927273 
L 77.818303 103.927273 
L 77.376669 103.927273 
L 76.935034 103.927273 
L 76.493399 103.927273 
L 76.051765 103.927273 
L 75.61013 103.927273 
L 75.168495 103.927273 
L 74.726861 103.927273 
L 74.285226 103.927273 
L 73.843592 103.927273 
L 73.401957 103.927273 
L 72.960322 103.927273 
L 72.518688 103.927273 
L 72.077053 103.927273 
L 71.635418 103.927273 
L 71.193784 103.927273 
L 70.752149 103.927273 
L 70.310515 103.927273 
L 69.86888 103.927273 
L 69.427245 103.927273 
L 68.985611 103.927273 
L 68.543976 103.927273 
L 68.102341 103.927273 
L 67.660707 103.927273 
L 67.219072 103.927273 
L 66.777438 103.927273 
L 66.335803 103.927273 
L 65.894168 103.927273 
L 65.452534 103.927273 
L 65.010899 103.927273 
L 64.569264 103.927273 
L 64.12763 103.927273 
L 63.685995 103.927273 
L 63.244361 103.927273 
L 62.802726 103.927273 
L 62.361091 103.927273 
z
" style="fill:#1f77b4;"/>
   </g>
   <g id="matplotlib.axis_3">
    <g id="xtick_7">
     <g id="line2d_20">
      <path clip-path="url(#pcf2ce47161)" d="M 62.361091 107.6 
L 62.361091 26.8 
" style="fill:none;stroke:#b0b0b0;stroke-linecap:square;stroke-width:0.8;"/>
     </g>
     <g id="line2d_21">
      <g>
       <use style="stroke:#000000;stroke-width:0.8;" x="62.361091" xlink:href="#ma4a9bf5433" y="107.6"/>
      </g>
     </g>
     <g id="text_13">
      <!-- 0 -->
      <g transform="translate(59.179841 122.198437)scale(0.1 -0.1)">
       <use xlink:href="#DejaVuSans-48"/>
      </g>
     </g>
    </g>
    <g id="xtick_8">
     <g id="line2d_22">
      <path clip-path="url(#pcf2ce47161)" d="M 106.524554 107.6 
L 106.524554 26.8 
" style="fill:none;stroke:#b0b0b0;stroke-linecap:square;stroke-width:0.8;"/>
     </g>
     <g id="line2d_23">
      <g>
       <use style="stroke:#000000;stroke-width:0.8;" x="106.524554" xlink:href="#ma4a9bf5433" y="107.6"/>
      </g>
     </g>
     <g id="text_14">
      <!-- 100 -->
      <g transform="translate(96.980804 122.198437)scale(0.1 -0.1)">
       <use xlink:href="#DejaVuSans-49"/>
       <use x="63.623047" xlink:href="#DejaVuSans-48"/>
       <use x="127.246094" xlink:href="#DejaVuSans-48"/>
      </g>
     </g>
    </g>
    <g id="text_15">
     <!-- q -->
     <g transform="translate(81.047786 135.876562)scale(0.1 -0.1)">
      <defs>
       <path d="M 14.796875 27.296875 
Q 14.796875 17.390625 18.875 11.75 
Q 22.953125 6.109375 30.078125 6.109375 
Q 37.203125 6.109375 41.296875 11.75 
Q 45.40625 17.390625 45.40625 27.296875 
Q 45.40625 37.203125 41.296875 42.84375 
Q 37.203125 48.484375 30.078125 48.484375 
Q 22.953125 48.484375 18.875 42.84375 
Q 14.796875 37.203125 14.796875 27.296875 
z
M 45.40625 8.203125 
Q 42.578125 3.328125 38.25 0.953125 
Q 33.9375 -1.421875 27.875 -1.421875 
Q 17.96875 -1.421875 11.734375 6.484375 
Q 5.515625 14.40625 5.515625 27.296875 
Q 5.515625 40.1875 11.734375 48.09375 
Q 17.96875 56 27.875 56 
Q 33.9375 56 38.25 53.625 
Q 42.578125 51.265625 45.40625 46.390625 
L 45.40625 54.6875 
L 54.390625 54.6875 
L 54.390625 -20.796875 
L 45.40625 -20.796875 
z
" id="DejaVuSans-113"/>
      </defs>
      <use xlink:href="#DejaVuSans-113"/>
     </g>
    </g>
   </g>
   <g id="matplotlib.axis_4">
    <g id="ytick_4">
     <g id="line2d_24">
      <path clip-path="url(#pcf2ce47161)" d="M 60.175 103.927273 
L 108.26901 103.927273 
" style="fill:none;stroke:#b0b0b0;stroke-linecap:square;stroke-width:0.8;"/>
     </g>
     <g id="line2d_25">
      <g>
       <use style="stroke:#000000;stroke-width:0.8;" x="60.175" xlink:href="#mfa4f0e1fad" y="103.927273"/>
      </g>
     </g>
     <g id="text_16">
      <!-- 0.000 -->
      <g transform="translate(24.546875 107.726491)scale(0.1 -0.1)">
       <use xlink:href="#DejaVuSans-48"/>
       <use x="63.623047" xlink:href="#DejaVuSans-46"/>
       <use x="95.410156" xlink:href="#DejaVuSans-48"/>
       <use x="159.033203" xlink:href="#DejaVuSans-48"/>
       <use x="222.65625" xlink:href="#DejaVuSans-48"/>
      </g>
     </g>
    </g>
    <g id="ytick_5">
     <g id="line2d_26">
      <path clip-path="url(#pcf2ce47161)" d="M 60.175 74.545455 
L 108.26901 74.545455 
" style="fill:none;stroke:#b0b0b0;stroke-linecap:square;stroke-width:0.8;"/>
     </g>
     <g id="line2d_27">
      <g>
       <use style="stroke:#000000;stroke-width:0.8;" x="60.175" xlink:href="#mfa4f0e1fad" y="74.545455"/>
      </g>
     </g>
     <g id="text_17">
      <!-- 0.001 -->
      <g transform="translate(24.546875 78.344673)scale(0.1 -0.1)">
       <use xlink:href="#DejaVuSans-48"/>
       <use x="63.623047" xlink:href="#DejaVuSans-46"/>
       <use x="95.410156" xlink:href="#DejaVuSans-48"/>
       <use x="159.033203" xlink:href="#DejaVuSans-48"/>
       <use x="222.65625" xlink:href="#DejaVuSans-49"/>
      </g>
     </g>
    </g>
    <g id="ytick_6">
     <g id="line2d_28">
      <path clip-path="url(#pcf2ce47161)" d="M 60.175 45.163636 
L 108.26901 45.163636 
" style="fill:none;stroke:#b0b0b0;stroke-linecap:square;stroke-width:0.8;"/>
     </g>
     <g id="line2d_29">
      <g>
       <use style="stroke:#000000;stroke-width:0.8;" x="60.175" xlink:href="#mfa4f0e1fad" y="45.163636"/>
      </g>
     </g>
     <g id="text_18">
      <!-- 0.002 -->
      <g transform="translate(24.546875 48.962855)scale(0.1 -0.1)">
       <use xlink:href="#DejaVuSans-48"/>
       <use x="63.623047" xlink:href="#DejaVuSans-46"/>
       <use x="95.410156" xlink:href="#DejaVuSans-48"/>
       <use x="159.033203" xlink:href="#DejaVuSans-48"/>
       <use x="222.65625" xlink:href="#DejaVuSans-50"/>
      </g>
     </g>
    </g>
    <g id="text_19">
     <!-- Rxx -->
     <g transform="translate(18.467187 76.592969)rotate(-90)scale(0.1 -0.1)">
      <defs>
       <path d="M 44.390625 34.1875 
Q 47.5625 33.109375 50.5625 29.59375 
Q 53.5625 26.078125 56.59375 19.921875 
L 66.609375 0 
L 56 0 
L 46.6875 18.703125 
Q 43.0625 26.03125 39.671875 28.421875 
Q 36.28125 30.8125 30.421875 30.8125 
L 19.671875 30.8125 
L 19.671875 0 
L 9.8125 0 
L 9.8125 72.90625 
L 32.078125 72.90625 
Q 44.578125 72.90625 50.734375 67.671875 
Q 56.890625 62.453125 56.890625 51.90625 
Q 56.890625 45.015625 53.6875 40.46875 
Q 50.484375 35.9375 44.390625 34.1875 
z
M 19.671875 64.796875 
L 19.671875 38.921875 
L 32.078125 38.921875 
Q 39.203125 38.921875 42.84375 42.21875 
Q 46.484375 45.515625 46.484375 51.90625 
Q 46.484375 58.296875 42.84375 61.546875 
Q 39.203125 64.796875 32.078125 64.796875 
z
" id="DejaVuSans-82"/>
       <path d="M 54.890625 54.6875 
L 35.109375 28.078125 
L 55.90625 0 
L 45.3125 0 
L 29.390625 21.484375 
L 13.484375 0 
L 2.875 0 
L 24.125 28.609375 
L 4.6875 54.6875 
L 15.28125 54.6875 
L 29.78125 35.203125 
L 44.28125 54.6875 
z
" id="DejaVuSans-120"/>
      </defs>
      <use xlink:href="#DejaVuSans-82"/>
      <use x="69.482422" xlink:href="#DejaVuSans-120"/>
      <use x="128.662109" xlink:href="#DejaVuSans-120"/>
     </g>
    </g>
   </g>
   <g id="line2d_30">
    <path clip-path="url(#pcf2ce47161)" d="M 62.361091 30.472727 
L 62.802726 103.927273 
L 63.244361 103.927273 
L 63.685995 103.927273 
L 64.12763 103.927273 
L 64.569264 103.927273 
L 65.010899 103.927273 
L 65.452534 103.927273 
L 65.894168 103.927273 
L 66.335803 103.927273 
L 66.777438 103.927273 
L 67.219072 103.927273 
L 67.660707 103.927273 
L 68.102341 103.927273 
L 68.543976 103.927273 
L 68.985611 103.927273 
L 69.427245 103.927273 
L 69.86888 103.927273 
L 70.310515 103.927273 
L 70.752149 103.927273 
L 71.193784 103.927273 
L 71.635418 103.927273 
L 72.077053 103.927273 
L 72.518688 103.927273 
L 72.960322 103.927273 
L 73.401957 103.927273 
L 73.843592 103.927273 
L 74.285226 103.927273 
L 74.726861 103.927273 
L 75.168495 103.927273 
L 75.61013 103.927273 
L 76.051765 103.927273 
L 76.493399 103.927273 
L 76.935034 103.927273 
L 77.376669 103.927273 
L 77.818303 103.927273 
L 78.259938 103.927273 
L 78.701572 103.927273 
L 79.143207 103.927273 
L 79.584842 103.927273 
L 80.026476 103.927273 
L 80.468111 103.927273 
L 80.909746 103.927273 
L 81.35138 103.927273 
L 81.793015 103.927273 
L 82.234649 103.927273 
L 82.676284 103.927273 
L 83.117919 103.927273 
L 83.559553 103.927273 
L 84.001188 103.927273 
L 84.442822 103.927273 
L 84.884457 103.927273 
L 85.326092 103.927273 
L 85.767726 103.927273 
L 86.209361 103.927273 
L 86.650996 103.927273 
L 87.09263 103.927273 
L 87.534265 103.927273 
L 87.975899 103.927273 
L 88.417534 103.927273 
L 88.859169 103.927273 
L 89.300803 103.927273 
L 89.742438 103.927273 
L 90.184073 103.927273 
L 90.625707 103.927273 
L 91.067342 103.927273 
L 91.508976 103.927273 
L 91.950611 103.927273 
L 92.392246 103.927273 
L 92.83388 103.927273 
L 93.275515 103.927273 
L 93.71715 103.927273 
L 94.158784 103.927273 
L 94.600419 103.927273 
L 95.042053 103.927273 
L 95.483688 103.927273 
L 95.925323 103.927273 
L 96.366957 103.927273 
L 96.808592 103.927273 
L 97.250227 103.927273 
L 97.691861 103.927273 
L 98.133496 103.927273 
L 98.57513 103.927273 
L 99.016765 103.927273 
L 99.4584 103.927273 
L 99.900034 103.927273 
L 100.341669 103.927273 
L 100.783303 103.927273 
L 101.224938 103.927273 
L 101.666573 103.927273 
L 102.108207 103.927273 
L 102.549842 103.927273 
L 102.991477 103.927273 
L 103.433111 103.927273 
L 103.874746 103.927273 
L 104.31638 103.927273 
L 104.758015 103.927273 
L 105.19965 103.927273 
L 105.641284 103.927273 
L 106.082919 103.927273 
" style="fill:none;stroke:#1f77b4;stroke-linecap:square;stroke-width:1.5;"/>
   </g>
   <g id="patch_8">
    <path d="M 60.175 107.6 
L 60.175 26.8 
" style="fill:none;stroke:#000000;stroke-linecap:square;stroke-linejoin:miter;stroke-width:0.8;"/>
   </g>
   <g id="patch_9">
    <path d="M 108.26901 107.6 
L 108.26901 26.8 
" style="fill:none;stroke:#000000;stroke-linecap:square;stroke-linejoin:miter;stroke-width:0.8;"/>
   </g>
   <g id="patch_10">
    <path d="M 60.175 107.6 
L 108.26901 107.6 
" style="fill:none;stroke:#000000;stroke-linecap:square;stroke-linejoin:miter;stroke-width:0.8;"/>
   </g>
   <g id="patch_11">
    <path d="M 60.175 26.8 
L 108.26901 26.8 
" style="fill:none;stroke:#000000;stroke-linecap:square;stroke-linejoin:miter;stroke-width:0.8;"/>
   </g>
  </g>
  <g id="axes_3">
   <g id="patch_12">
    <path d="M 60.175 246.2 
L 211.683626 246.2 
L 211.683626 165.4 
L 60.175 165.4 
z
" style="fill:#ffffff;"/>
   </g>
   <g id="matplotlib.axis_5">
    <g id="xtick_9">
     <g id="line2d_31">
      <path clip-path="url(#pb41b2edff9)" d="M 94.663983 246.2 
L 94.663983 165.4 
" style="fill:none;stroke:#b0b0b0;stroke-linecap:square;stroke-width:0.8;"/>
     </g>
     <g id="line2d_32">
      <g>
       <use style="stroke:#000000;stroke-width:0.8;" x="94.663983" xlink:href="#ma4a9bf5433" y="246.2"/>
      </g>
     </g>
     <g id="text_20">
      <!-- 0 -->
      <g transform="translate(91.482733 260.798437)scale(0.1 -0.1)">
       <use xlink:href="#DejaVuSans-48"/>
      </g>
     </g>
    </g>
    <g id="xtick_10">
     <g id="line2d_33">
      <path clip-path="url(#pb41b2edff9)" d="M 149.868438 246.2 
L 149.868438 165.4 
" style="fill:none;stroke:#b0b0b0;stroke-linecap:square;stroke-width:0.8;"/>
     </g>
     <g id="line2d_34">
      <g>
       <use style="stroke:#000000;stroke-width:0.8;" x="149.868438" xlink:href="#ma4a9bf5433" y="246.2"/>
      </g>
     </g>
     <g id="text_21">
      <!-- 200 -->
      <g transform="translate(140.324688 260.798437)scale(0.1 -0.1)">
       <use xlink:href="#DejaVuSans-50"/>
       <use x="63.623047" xlink:href="#DejaVuSans-48"/>
       <use x="127.246094" xlink:href="#DejaVuSans-48"/>
      </g>
     </g>
    </g>
    <g id="xtick_11">
     <g id="line2d_35">
      <path clip-path="url(#pb41b2edff9)" d="M 205.072893 246.2 
L 205.072893 165.4 
" style="fill:none;stroke:#b0b0b0;stroke-linecap:square;stroke-width:0.8;"/>
     </g>
     <g id="line2d_36">
      <g>
       <use style="stroke:#000000;stroke-width:0.8;" x="205.072893" xlink:href="#ma4a9bf5433" y="246.2"/>
      </g>
     </g>
     <g id="text_22">
      <!-- 400 -->
      <g transform="translate(195.529143 260.798437)scale(0.1 -0.1)">
       <use xlink:href="#DejaVuSans-52"/>
       <use x="63.623047" xlink:href="#DejaVuSans-48"/>
       <use x="127.246094" xlink:href="#DejaVuSans-48"/>
      </g>
     </g>
    </g>
    <g id="text_23">
     <!-- x -->
     <g transform="translate(132.969938 274.476562)scale(0.1 -0.1)">
      <use xlink:href="#DejaVuSans-120"/>
     </g>
    </g>
   </g>
   <g id="matplotlib.axis_6">
    <g id="ytick_7">
     <g id="line2d_37">
      <path clip-path="url(#pb41b2edff9)" d="M 60.175 242.528337 
L 211.683626 242.528337 
" style="fill:none;stroke:#b0b0b0;stroke-linecap:square;stroke-width:0.8;"/>
     </g>
     <g id="line2d_38">
      <g>
       <use style="stroke:#000000;stroke-width:0.8;" x="60.175" xlink:href="#mfa4f0e1fad" y="242.528337"/>
      </g>
     </g>
     <g id="text_24">
      <!-- −1 -->
      <g transform="translate(38.432812 246.327555)scale(0.1 -0.1)">
       <use xlink:href="#DejaVuSans-8722"/>
       <use x="83.789062" xlink:href="#DejaVuSans-49"/>
      </g>
     </g>
    </g>
    <g id="ytick_8">
     <g id="line2d_39">
      <path clip-path="url(#pb41b2edff9)" d="M 60.175 205.800199 
L 211.683626 205.800199 
" style="fill:none;stroke:#b0b0b0;stroke-linecap:square;stroke-width:0.8;"/>
     </g>
     <g id="line2d_40">
      <g>
       <use style="stroke:#000000;stroke-width:0.8;" x="60.175" xlink:href="#mfa4f0e1fad" y="205.800199"/>
      </g>
     </g>
     <g id="text_25">
      <!-- 0 -->
      <g transform="translate(46.8125 209.599418)scale(0.1 -0.1)">
       <use xlink:href="#DejaVuSans-48"/>
      </g>
     </g>
    </g>
    <g id="ytick_9">
     <g id="line2d_41">
      <path clip-path="url(#pb41b2edff9)" d="M 60.175 169.072062 
L 211.683626 169.072062 
" style="fill:none;stroke:#b0b0b0;stroke-linecap:square;stroke-width:0.8;"/>
     </g>
     <g id="line2d_42">
      <g>
       <use style="stroke:#000000;stroke-width:0.8;" x="60.175" xlink:href="#mfa4f0e1fad" y="169.072062"/>
      </g>
     </g>
     <g id="text_26">
      <!-- 1 -->
      <g transform="translate(46.8125 172.871281)scale(0.1 -0.1)">
       <use xlink:href="#DejaVuSans-49"/>
      </g>
     </g>
    </g>
    <g id="text_27">
     <!-- sin(x) -->
     <g transform="translate(32.353125 219.823438)rotate(-90)scale(0.1 -0.1)">
      <defs>
       <path d="M 44.28125 53.078125 
L 44.28125 44.578125 
Q 40.484375 46.53125 36.375 47.5 
Q 32.28125 48.484375 27.875 48.484375 
Q 21.1875 48.484375 17.84375 46.4375 
Q 14.5 44.390625 14.5 40.28125 
Q 14.5 37.15625 16.890625 35.375 
Q 19.28125 33.59375 26.515625 31.984375 
L 29.59375 31.296875 
Q 39.15625 29.25 43.1875 25.515625 
Q 47.21875 21.78125 47.21875 15.09375 
Q 47.21875 7.46875 41.1875 3.015625 
Q 35.15625 -1.421875 24.609375 -1.421875 
Q 20.21875 -1.421875 15.453125 -0.5625 
Q 10.6875 0.296875 5.421875 2 
L 5.421875 11.28125 
Q 10.40625 8.6875 15.234375 7.390625 
Q 20.0625 6.109375 24.8125 6.109375 
Q 31.15625 6.109375 34.5625 8.28125 
Q 37.984375 10.453125 37.984375 14.40625 
Q 37.984375 18.0625 35.515625 20.015625 
Q 33.0625 21.96875 24.703125 23.78125 
L 21.578125 24.515625 
Q 13.234375 26.265625 9.515625 29.90625 
Q 5.8125 33.546875 5.8125 39.890625 
Q 5.8125 47.609375 11.28125 51.796875 
Q 16.75 56 26.8125 56 
Q 31.78125 56 36.171875 55.265625 
Q 40.578125 54.546875 44.28125 53.078125 
z
" id="DejaVuSans-115"/>
       <path d="M 9.421875 54.6875 
L 18.40625 54.6875 
L 18.40625 0 
L 9.421875 0 
z
M 9.421875 75.984375 
L 18.40625 75.984375 
L 18.40625 64.59375 
L 9.421875 64.59375 
z
" id="DejaVuSans-105"/>
       <path d="M 54.890625 33.015625 
L 54.890625 0 
L 45.90625 0 
L 45.90625 32.71875 
Q 45.90625 40.484375 42.875 44.328125 
Q 39.84375 48.1875 33.796875 48.1875 
Q 26.515625 48.1875 22.3125 43.546875 
Q 18.109375 38.921875 18.109375 30.90625 
L 18.109375 0 
L 9.078125 0 
L 9.078125 54.6875 
L 18.109375 54.6875 
L 18.109375 46.1875 
Q 21.34375 51.125 25.703125 53.5625 
Q 30.078125 56 35.796875 56 
Q 45.21875 56 50.046875 50.171875 
Q 54.890625 44.34375 54.890625 33.015625 
z
" id="DejaVuSans-110"/>
      </defs>
      <use xlink:href="#DejaVuSans-115"/>
      <use x="52.099609" xlink:href="#DejaVuSans-105"/>
      <use x="79.882812" xlink:href="#DejaVuSans-110"/>
      <use x="143.261719" xlink:href="#DejaVuSans-40"/>
      <use x="182.275391" xlink:href="#DejaVuSans-120"/>
      <use x="241.455078" xlink:href="#DejaVuSans-41"/>
     </g>
    </g>
   </g>
   <g id="line2d_43">
    <path clip-path="url(#pb41b2edff9)" d="M 67.061756 205.800199 
L 72.030157 192.861823 
L 74.790379 186.29072 
L 76.998558 181.582229 
L 78.930714 177.966054 
L 80.586847 175.297578 
L 82.242981 173.067813 
L 83.623092 171.56814 
L 85.003204 170.410502 
L 86.107293 169.738548 
L 87.211382 169.297266 
L 88.315471 169.089477 
L 89.41956 169.116513 
L 90.523649 169.378198 
L 91.627738 169.87286 
L 92.731827 170.597335 
L 94.111939 171.818904 
L 95.49205 173.380003 
L 96.872161 175.265034 
L 98.528295 177.927925 
L 100.460451 181.538282 
L 102.392607 185.623397 
L 104.876807 191.44373 
L 107.913052 199.167235 
L 116.745765 222.053151 
L 119.229966 227.687129 
L 121.162122 231.588725 
L 123.094277 234.98569 
L 124.750411 237.445048 
L 126.130522 239.148145 
L 127.510634 240.518041 
L 128.890745 241.541047 
L 129.994834 242.102703 
L 131.098923 242.432148 
L 132.203013 242.527273 
L 133.307102 242.38747 
L 134.411191 242.013633 
L 135.51528 241.408154 
L 136.619369 240.574906 
L 137.99948 239.2213 
L 139.379592 237.533762 
L 141.035725 235.091892 
L 142.691859 232.228726 
L 144.624015 228.411146 
L 146.832193 223.511186 
L 149.592416 216.765816 
L 153.73275 205.91719 
L 158.701151 192.971379 
L 161.461374 186.389939 
L 163.669552 181.670305 
L 165.601708 178.042524 
L 167.257841 175.362899 
L 168.913975 173.121045 
L 170.294086 171.610706 
L 171.674198 170.441976 
L 172.778287 169.760917 
L 173.882376 169.310386 
L 174.986465 169.093266 
L 176.090554 169.110945 
L 177.194643 169.363309 
L 178.298732 169.848746 
L 179.402821 170.564149 
L 180.782933 171.774684 
L 182.163044 173.325191 
L 183.543156 175.200177 
L 185.199289 177.851878 
L 186.855423 180.905553 
L 188.787579 184.917336 
L 190.995757 189.997644 
L 194.032002 197.613868 
L 204.244826 223.897184 
L 204.796871 225.160776 
L 204.796871 225.160776 
" style="fill:none;stroke:#1f77b4;stroke-linecap:square;stroke-width:1.5;"/>
   </g>
   <g id="patch_13">
    <path d="M 60.175 246.2 
L 60.175 165.4 
" style="fill:none;stroke:#000000;stroke-linecap:square;stroke-linejoin:miter;stroke-width:0.8;"/>
   </g>
   <g id="patch_14">
    <path d="M 211.683626 246.2 
L 211.683626 165.4 
" style="fill:none;stroke:#000000;stroke-linecap:square;stroke-linejoin:miter;stroke-width:0.8;"/>
   </g>
   <g id="patch_15">
    <path d="M 60.175 246.2 
L 211.683626 246.2 
" style="fill:none;stroke:#000000;stroke-linecap:square;stroke-linejoin:miter;stroke-width:0.8;"/>
   </g>
   <g id="patch_16">
    <path d="M 60.175 165.4 
L 211.683626 165.4 
" style="fill:none;stroke:#000000;stroke-linecap:square;stroke-linejoin:miter;stroke-width:0.8;"/>
   </g>
   <g id="text_28">
    <!-- Входной сигнал -->
    <g transform="translate(85.256501 159.4)scale(0.12 -0.12)">
     <defs>
      <path d="M 19.671875 34.8125 
L 19.671875 8.109375 
L 35.5 8.109375 
Q 43.453125 8.109375 47.28125 11.40625 
Q 51.125 14.703125 51.125 21.484375 
Q 51.125 28.328125 47.28125 31.5625 
Q 43.453125 34.8125 35.5 34.8125 
z
M 19.671875 64.796875 
L 19.671875 42.828125 
L 34.28125 42.828125 
Q 41.5 42.828125 45.03125 45.53125 
Q 48.578125 48.25 48.578125 53.8125 
Q 48.578125 59.328125 45.03125 62.0625 
Q 41.5 64.796875 34.28125 64.796875 
z
M 9.8125 72.90625 
L 35.015625 72.90625 
Q 46.296875 72.90625 52.390625 68.21875 
Q 58.5 63.53125 58.5 54.890625 
Q 58.5 48.1875 55.375 44.234375 
Q 52.25 40.28125 46.1875 39.3125 
Q 53.46875 37.75 57.5 32.78125 
Q 61.53125 27.828125 61.53125 20.40625 
Q 61.53125 10.640625 54.890625 5.3125 
Q 48.25 0 35.984375 0 
L 9.8125 0 
z
" id="DejaVuSans-1042"/>
      <path d="M 54.890625 54.6875 
L 35.109375 28.078125 
L 55.90625 0 
L 45.3125 0 
L 29.390625 21.484375 
L 13.484375 0 
L 2.875 0 
L 24.125 28.609375 
L 4.6875 54.6875 
L 15.28125 54.6875 
L 29.78125 35.203125 
L 44.28125 54.6875 
z
" id="DejaVuSans-1093"/>
      <path d="M 55.90625 54.6875 
L 55.90625 0 
L 46.96875 0 
L 46.96875 43.890625 
L 20.609375 0 
L 9.078125 0 
L 9.078125 54.6875 
L 18.015625 54.6875 
L 18.015625 10.890625 
L 44.34375 54.6875 
z
M 17.21875 75.515625 
L 22.984375 75.515625 
Q 23.515625 71.859375 25.875 70.015625 
Q 28.25 68.1875 32.5 68.1875 
Q 36.703125 68.1875 39.046875 70 
Q 41.390625 71.8125 42.015625 75.515625 
L 47.78125 75.515625 
Q 47.296875 68.53125 43.4375 65.015625 
Q 39.578125 61.5 32.5 61.5 
Q 25.421875 61.5 21.5625 65.015625 
Q 17.703125 68.53125 17.21875 75.515625 
z
" id="DejaVuSans-1081"/>
      <path d="M 9.078125 0 
L 9.078125 54.6875 
L 47.65625 54.6875 
L 47.65625 47.515625 
L 18.109375 47.515625 
L 18.109375 0 
z
" id="DejaVuSans-1075"/>
      <path d="M 3.71875 0 
L 3.71875 7.46875 
Q 12.59375 8.84375 15.328125 14.984375 
Q 18.65625 23.640625 18.65625 45.75 
L 18.65625 54.6875 
L 55.609375 54.6875 
L 55.609375 0 
L 46.625 0 
L 46.625 47.515625 
L 27.640625 47.515625 
L 27.640625 42.09375 
Q 27.640625 21 23.34375 11.53125 
Q 18.75 1.421875 3.71875 0 
z
" id="DejaVuSans-1083"/>
     </defs>
     <use xlink:href="#DejaVuSans-1042"/>
     <use x="68.603516" xlink:href="#DejaVuSans-1093"/>
     <use x="127.783203" xlink:href="#DejaVuSans-1086"/>
     <use x="188.964844" xlink:href="#DejaVuSans-1076"/>
     <use x="258.105469" xlink:href="#DejaVuSans-1085"/>
     <use x="323.486328" xlink:href="#DejaVuSans-1086"/>
     <use x="384.667969" xlink:href="#DejaVuSans-1081"/>
     <use x="449.658203" xlink:href="#DejaVuSans-32"/>
     <use x="481.445312" xlink:href="#DejaVuSans-1089"/>
     <use x="536.425781" xlink:href="#DejaVuSans-1080"/>
     <use x="601.416016" xlink:href="#DejaVuSans-1075"/>
     <use x="653.955078" xlink:href="#DejaVuSans-1085"/>
     <use x="719.335938" xlink:href="#DejaVuSans-1072"/>
     <use x="780.615234" xlink:href="#DejaVuSans-1083"/>
    </g>
   </g>
  </g>
  <g id="axes_4">
   <g id="patch_17">
    <path d="M 267.004232 246.2 
L 418.512859 246.2 
L 418.512859 165.4 
L 267.004232 165.4 
z
" style="fill:#ffffff;"/>
   </g>
   <g id="matplotlib.axis_7">
    <g id="xtick_12">
     <g id="line2d_44">
      <path clip-path="url(#pdefad11a21)" d="M 301.493215 246.2 
L 301.493215 165.4 
" style="fill:none;stroke:#b0b0b0;stroke-linecap:square;stroke-width:0.8;"/>
     </g>
     <g id="line2d_45">
      <g>
       <use style="stroke:#000000;stroke-width:0.8;" x="301.493215" xlink:href="#ma4a9bf5433" y="246.2"/>
      </g>
     </g>
     <g id="text_29">
      <!-- 0 -->
      <g transform="translate(298.311965 260.798437)scale(0.1 -0.1)">
       <use xlink:href="#DejaVuSans-48"/>
      </g>
     </g>
    </g>
    <g id="xtick_13">
     <g id="line2d_46">
      <path clip-path="url(#pdefad11a21)" d="M 356.69767 246.2 
L 356.69767 165.4 
" style="fill:none;stroke:#b0b0b0;stroke-linecap:square;stroke-width:0.8;"/>
     </g>
     <g id="line2d_47">
      <g>
       <use style="stroke:#000000;stroke-width:0.8;" x="356.69767" xlink:href="#ma4a9bf5433" y="246.2"/>
      </g>
     </g>
     <g id="text_30">
      <!-- 200 -->
      <g transform="translate(347.15392 260.798437)scale(0.1 -0.1)">
       <use xlink:href="#DejaVuSans-50"/>
       <use x="63.623047" xlink:href="#DejaVuSans-48"/>
       <use x="127.246094" xlink:href="#DejaVuSans-48"/>
      </g>
     </g>
    </g>
    <g id="xtick_14">
     <g id="line2d_48">
      <path clip-path="url(#pdefad11a21)" d="M 411.902125 246.2 
L 411.902125 165.4 
" style="fill:none;stroke:#b0b0b0;stroke-linecap:square;stroke-width:0.8;"/>
     </g>
     <g id="line2d_49">
      <g>
       <use style="stroke:#000000;stroke-width:0.8;" x="411.902125" xlink:href="#ma4a9bf5433" y="246.2"/>
      </g>
     </g>
     <g id="text_31">
      <!-- 400 -->
      <g transform="translate(402.358375 260.798437)scale(0.1 -0.1)">
       <use xlink:href="#DejaVuSans-52"/>
       <use x="63.623047" xlink:href="#DejaVuSans-48"/>
       <use x="127.246094" xlink:href="#DejaVuSans-48"/>
      </g>
     </g>
    </g>
    <g id="text_32">
     <!-- x -->
     <g transform="translate(339.799171 274.476562)scale(0.1 -0.1)">
      <use xlink:href="#DejaVuSans-120"/>
     </g>
    </g>
   </g>
   <g id="matplotlib.axis_8">
    <g id="ytick_10">
     <g id="line2d_50">
      <path clip-path="url(#pdefad11a21)" d="M 267.004232 242.528337 
L 418.512859 242.528337 
" style="fill:none;stroke:#b0b0b0;stroke-linecap:square;stroke-width:0.8;"/>
     </g>
     <g id="line2d_51">
      <g>
       <use style="stroke:#000000;stroke-width:0.8;" x="267.004232" xlink:href="#mfa4f0e1fad" y="242.528337"/>
      </g>
     </g>
     <g id="text_33">
      <!-- −1 -->
      <g transform="translate(245.262045 246.327555)scale(0.1 -0.1)">
       <use xlink:href="#DejaVuSans-8722"/>
       <use x="83.789062" xlink:href="#DejaVuSans-49"/>
      </g>
     </g>
    </g>
    <g id="ytick_11">
     <g id="line2d_52">
      <path clip-path="url(#pdefad11a21)" d="M 267.004232 205.800199 
L 418.512859 205.800199 
" style="fill:none;stroke:#b0b0b0;stroke-linecap:square;stroke-width:0.8;"/>
     </g>
     <g id="line2d_53">
      <g>
       <use style="stroke:#000000;stroke-width:0.8;" x="267.004232" xlink:href="#mfa4f0e1fad" y="205.800199"/>
      </g>
     </g>
     <g id="text_34">
      <!-- 0 -->
      <g transform="translate(253.641732 209.599418)scale(0.1 -0.1)">
       <use xlink:href="#DejaVuSans-48"/>
      </g>
     </g>
    </g>
    <g id="ytick_12">
     <g id="line2d_54">
      <path clip-path="url(#pdefad11a21)" d="M 267.004232 169.072062 
L 418.512859 169.072062 
" style="fill:none;stroke:#b0b0b0;stroke-linecap:square;stroke-width:0.8;"/>
     </g>
     <g id="line2d_55">
      <g>
       <use style="stroke:#000000;stroke-width:0.8;" x="267.004232" xlink:href="#mfa4f0e1fad" y="169.072062"/>
      </g>
     </g>
     <g id="text_35">
      <!-- 1 -->
      <g transform="translate(253.641732 172.871281)scale(0.1 -0.1)">
       <use xlink:href="#DejaVuSans-49"/>
      </g>
     </g>
    </g>
    <g id="text_36">
     <!-- sin(x) -->
     <g transform="translate(239.182357 219.823438)rotate(-90)scale(0.1 -0.1)">
      <use xlink:href="#DejaVuSans-115"/>
      <use x="52.099609" xlink:href="#DejaVuSans-105"/>
      <use x="79.882812" xlink:href="#DejaVuSans-110"/>
      <use x="143.261719" xlink:href="#DejaVuSans-40"/>
      <use x="182.275391" xlink:href="#DejaVuSans-120"/>
      <use x="241.455078" xlink:href="#DejaVuSans-41"/>
     </g>
    </g>
   </g>
   <g id="line2d_56">
    <path clip-path="url(#pdefad11a21)" d="M 273.890988 205.800199 
L 301.493215 205.800199 
L 306.461616 192.861823 
L 309.221839 186.29072 
L 311.430017 181.582229 
L 313.362173 177.966054 
L 315.018307 175.297578 
L 316.674441 173.067813 
L 318.054552 171.56814 
L 319.434663 170.410502 
L 320.538752 169.738548 
L 321.642842 169.297266 
L 322.746931 169.089477 
L 323.85102 169.116513 
L 324.955109 169.378198 
L 326.059198 169.87286 
L 327.163287 170.597335 
L 328.543398 171.818904 
L 329.92351 173.380003 
L 331.303621 175.265034 
L 332.959755 177.927925 
L 334.891911 181.538282 
L 336.824067 185.623397 
L 339.308267 191.44373 
L 342.344512 199.167235 
L 351.177225 222.053151 
L 353.661425 227.687129 
L 355.593581 231.588725 
L 357.525737 234.98569 
L 359.181871 237.445048 
L 360.561982 239.148145 
L 361.942094 240.518041 
L 363.322205 241.541047 
L 364.426294 242.102703 
L 365.530383 242.432148 
L 366.634472 242.527273 
L 367.738561 242.38747 
L 368.84265 242.013633 
L 369.94674 241.408154 
L 371.050829 240.574906 
L 372.43094 239.2213 
L 373.811051 237.533762 
L 375.467185 235.091892 
L 377.123319 232.228726 
L 379.055475 228.411146 
L 381.263653 223.511186 
L 384.023876 216.765816 
L 388.16421 205.91719 
L 393.132611 192.971379 
L 395.892833 186.389939 
L 398.101012 181.670305 
L 400.033167 178.042524 
L 401.689301 175.362899 
L 403.345435 173.121045 
L 404.725546 171.610706 
L 406.105658 170.441976 
L 407.209747 169.760917 
L 408.313836 169.310386 
L 409.417925 169.093266 
L 410.522014 169.110945 
L 411.626103 169.363309 
L 411.626103 169.363309 
" style="fill:none;stroke:#1f77b4;stroke-linecap:square;stroke-width:1.5;"/>
   </g>
   <g id="patch_18">
    <path d="M 267.004232 246.2 
L 267.004232 165.4 
" style="fill:none;stroke:#000000;stroke-linecap:square;stroke-linejoin:miter;stroke-width:0.8;"/>
   </g>
   <g id="patch_19">
    <path d="M 418.512859 246.2 
L 418.512859 165.4 
" style="fill:none;stroke:#000000;stroke-linecap:square;stroke-linejoin:miter;stroke-width:0.8;"/>
   </g>
   <g id="patch_20">
    <path d="M 267.004232 246.2 
L 418.512859 246.2 
" style="fill:none;stroke:#000000;stroke-linecap:square;stroke-linejoin:miter;stroke-width:0.8;"/>
   </g>
   <g id="patch_21">
    <path d="M 267.004232 165.4 
L 418.512859 165.4 
" style="fill:none;stroke:#000000;stroke-linecap:square;stroke-linejoin:miter;stroke-width:0.8;"/>
   </g>
   <g id="text_37">
    <!-- Выходной сигнал -->
    <g transform="translate(287.348546 159.4)scale(0.12 -0.12)">
     <use xlink:href="#DejaVuSans-1042"/>
     <use x="68.603516" xlink:href="#DejaVuSans-1099"/>
     <use x="147.558594" xlink:href="#DejaVuSans-1093"/>
     <use x="206.738281" xlink:href="#DejaVuSans-1086"/>
     <use x="267.919922" xlink:href="#DejaVuSans-1076"/>
     <use x="337.060547" xlink:href="#DejaVuSans-1085"/>
     <use x="402.441406" xlink:href="#DejaVuSans-1086"/>
     <use x="463.623047" xlink:href="#DejaVuSans-1081"/>
     <use x="528.613281" xlink:href="#DejaVuSans-32"/>
     <use x="560.400391" xlink:href="#DejaVuSans-1089"/>
     <use x="615.380859" xlink:href="#DejaVuSans-1080"/>
     <use x="680.371094" xlink:href="#DejaVuSans-1075"/>
     <use x="732.910156" xlink:href="#DejaVuSans-1085"/>
     <use x="798.291016" xlink:href="#DejaVuSans-1072"/>
     <use x="859.570312" xlink:href="#DejaVuSans-1083"/>
    </g>
   </g>
  </g>
 </g>
 <defs>
  <clipPath id="p35b548604c">
   <rect height="80.8" width="254.923243" x="163.589616" y="26.8"/>
  </clipPath>
  <clipPath id="pcf2ce47161">
   <rect height="80.8" width="48.09401" x="60.175" y="26.8"/>
  </clipPath>
  <clipPath id="pb41b2edff9">
   <rect height="80.8" width="151.508626" x="60.175" y="165.4"/>
  </clipPath>
  <clipPath id="pdefad11a21">
   <rect height="80.8" width="151.508626" x="267.004232" y="165.4"/>
  </clipPath>
 </defs>
</svg>
