<?xml version="1.0" encoding="utf-8" standalone="no"?>
<!DOCTYPE svg PUBLIC "-//W3C//DTD SVG 1.1//EN"
  "http://www.w3.org/Graphics/SVG/1.1/DTD/svg11.dtd">
<!-- Created with matplotlib (https://matplotlib.org/) -->
<svg height="288pt" version="1.1" viewBox="0 0 432 288" width="432pt" xmlns="http://www.w3.org/2000/svg" xmlns:xlink="http://www.w3.org/1999/xlink">
 <metadata>
  <rdf:RDF xmlns:cc="http://creativecommons.org/ns#" xmlns:dc="http://purl.org/dc/elements/1.1/" xmlns:rdf="http://www.w3.org/1999/02/22-rdf-syntax-ns#">
   <cc:Work>
    <dc:type rdf:resource="http://purl.org/dc/dcmitype/StillImage"/>
    <dc:date>2021-05-18T20:39:49.451164</dc:date>
    <dc:format>image/svg+xml</dc:format>
    <dc:creator>
     <cc:Agent>
      <dc:title>Matplotlib v3.3.4, https://matplotlib.org/</dc:title>
     </cc:Agent>
    </dc:creator>
   </cc:Work>
  </rdf:RDF>
 </metadata>
 <defs>
  <style type="text/css">*{stroke-linecap:butt;stroke-linejoin:round;}</style>
 </defs>
 <g id="figure_1">
  <g id="patch_1">
   <path d="M 0 288 
L 432 288 
L 432 0 
L 0 0 
z
" style="fill:none;"/>
  </g>
  <g id="axes_1">
   <g id="patch_2">
    <path d="M 156.554511 107.6 
L 421.2 107.6 
L 421.2 26.8 
L 156.554511 26.8 
z
" style="fill:#ffffff;"/>
   </g>
   <g id="matplotlib.axis_1">
    <g id="xtick_1">
     <g id="line2d_1">
      <path clip-path="url(#p0589bde844)" d="M 168.583851 107.6 
L 168.583851 26.8 
" style="fill:none;stroke:#b0b0b0;stroke-linecap:square;stroke-width:0.8;"/>
     </g>
     <g id="line2d_2">
      <defs>
       <path d="M 0 0 
L 0 3.5 
" id="m7d3b53e617" style="stroke:#000000;stroke-width:0.8;"/>
      </defs>
      <g>
       <use style="stroke:#000000;stroke-width:0.8;" x="168.583851" xlink:href="#m7d3b53e617" y="107.6"/>
      </g>
     </g>
     <g id="text_1">
      <!-- 0 -->
      <g transform="translate(165.402601 122.198437)scale(0.1 -0.1)">
       <defs>
        <path d="M 31.78125 66.40625 
Q 24.171875 66.40625 20.328125 58.90625 
Q 16.5 51.421875 16.5 36.375 
Q 16.5 21.390625 20.328125 13.890625 
Q 24.171875 6.390625 31.78125 6.390625 
Q 39.453125 6.390625 43.28125 13.890625 
Q 47.125 21.390625 47.125 36.375 
Q 47.125 51.421875 43.28125 58.90625 
Q 39.453125 66.40625 31.78125 66.40625 
z
M 31.78125 74.21875 
Q 44.046875 74.21875 50.515625 64.515625 
Q 56.984375 54.828125 56.984375 36.375 
Q 56.984375 17.96875 50.515625 8.265625 
Q 44.046875 -1.421875 31.78125 -1.421875 
Q 19.53125 -1.421875 13.0625 8.265625 
Q 6.59375 17.96875 6.59375 36.375 
Q 6.59375 54.828125 13.0625 64.515625 
Q 19.53125 74.21875 31.78125 74.21875 
z
" id="DejaVuSans-48"/>
       </defs>
       <use xlink:href="#DejaVuSans-48"/>
      </g>
     </g>
    </g>
    <g id="xtick_2">
     <g id="line2d_3">
      <path clip-path="url(#p0589bde844)" d="M 216.79764 107.6 
L 216.79764 26.8 
" style="fill:none;stroke:#b0b0b0;stroke-linecap:square;stroke-width:0.8;"/>
     </g>
     <g id="line2d_4">
      <g>
       <use style="stroke:#000000;stroke-width:0.8;" x="216.79764" xlink:href="#m7d3b53e617" y="107.6"/>
      </g>
     </g>
     <g id="text_2">
      <!-- 100 -->
      <g transform="translate(207.25389 122.198437)scale(0.1 -0.1)">
       <defs>
        <path d="M 12.40625 8.296875 
L 28.515625 8.296875 
L 28.515625 63.921875 
L 10.984375 60.40625 
L 10.984375 69.390625 
L 28.421875 72.90625 
L 38.28125 72.90625 
L 38.28125 8.296875 
L 54.390625 8.296875 
L 54.390625 0 
L 12.40625 0 
z
" id="DejaVuSans-49"/>
       </defs>
       <use xlink:href="#DejaVuSans-49"/>
       <use x="63.623047" xlink:href="#DejaVuSans-48"/>
       <use x="127.246094" xlink:href="#DejaVuSans-48"/>
      </g>
     </g>
    </g>
    <g id="xtick_3">
     <g id="line2d_5">
      <path clip-path="url(#p0589bde844)" d="M 265.01143 107.6 
L 265.01143 26.8 
" style="fill:none;stroke:#b0b0b0;stroke-linecap:square;stroke-width:0.8;"/>
     </g>
     <g id="line2d_6">
      <g>
       <use style="stroke:#000000;stroke-width:0.8;" x="265.01143" xlink:href="#m7d3b53e617" y="107.6"/>
      </g>
     </g>
     <g id="text_3">
      <!-- 200 -->
      <g transform="translate(255.46768 122.198437)scale(0.1 -0.1)">
       <defs>
        <path d="M 19.1875 8.296875 
L 53.609375 8.296875 
L 53.609375 0 
L 7.328125 0 
L 7.328125 8.296875 
Q 12.9375 14.109375 22.625 23.890625 
Q 32.328125 33.6875 34.8125 36.53125 
Q 39.546875 41.84375 41.421875 45.53125 
Q 43.3125 49.21875 43.3125 52.78125 
Q 43.3125 58.59375 39.234375 62.25 
Q 35.15625 65.921875 28.609375 65.921875 
Q 23.96875 65.921875 18.8125 64.3125 
Q 13.671875 62.703125 7.8125 59.421875 
L 7.8125 69.390625 
Q 13.765625 71.78125 18.9375 73 
Q 24.125 74.21875 28.421875 74.21875 
Q 39.75 74.21875 46.484375 68.546875 
Q 53.21875 62.890625 53.21875 53.421875 
Q 53.21875 48.921875 51.53125 44.890625 
Q 49.859375 40.875 45.40625 35.40625 
Q 44.1875 33.984375 37.640625 27.21875 
Q 31.109375 20.453125 19.1875 8.296875 
z
" id="DejaVuSans-50"/>
       </defs>
       <use xlink:href="#DejaVuSans-50"/>
       <use x="63.623047" xlink:href="#DejaVuSans-48"/>
       <use x="127.246094" xlink:href="#DejaVuSans-48"/>
      </g>
     </g>
    </g>
    <g id="xtick_4">
     <g id="line2d_7">
      <path clip-path="url(#p0589bde844)" d="M 313.225219 107.6 
L 313.225219 26.8 
" style="fill:none;stroke:#b0b0b0;stroke-linecap:square;stroke-width:0.8;"/>
     </g>
     <g id="line2d_8">
      <g>
       <use style="stroke:#000000;stroke-width:0.8;" x="313.225219" xlink:href="#m7d3b53e617" y="107.6"/>
      </g>
     </g>
     <g id="text_4">
      <!-- 300 -->
      <g transform="translate(303.681469 122.198437)scale(0.1 -0.1)">
       <defs>
        <path d="M 40.578125 39.3125 
Q 47.65625 37.796875 51.625 33 
Q 55.609375 28.21875 55.609375 21.1875 
Q 55.609375 10.40625 48.1875 4.484375 
Q 40.765625 -1.421875 27.09375 -1.421875 
Q 22.515625 -1.421875 17.65625 -0.515625 
Q 12.796875 0.390625 7.625 2.203125 
L 7.625 11.71875 
Q 11.71875 9.328125 16.59375 8.109375 
Q 21.484375 6.890625 26.8125 6.890625 
Q 36.078125 6.890625 40.9375 10.546875 
Q 45.796875 14.203125 45.796875 21.1875 
Q 45.796875 27.640625 41.28125 31.265625 
Q 36.765625 34.90625 28.71875 34.90625 
L 20.21875 34.90625 
L 20.21875 43.015625 
L 29.109375 43.015625 
Q 36.375 43.015625 40.234375 45.921875 
Q 44.09375 48.828125 44.09375 54.296875 
Q 44.09375 59.90625 40.109375 62.90625 
Q 36.140625 65.921875 28.71875 65.921875 
Q 24.65625 65.921875 20.015625 65.03125 
Q 15.375 64.15625 9.8125 62.3125 
L 9.8125 71.09375 
Q 15.4375 72.65625 20.34375 73.4375 
Q 25.25 74.21875 29.59375 74.21875 
Q 40.828125 74.21875 47.359375 69.109375 
Q 53.90625 64.015625 53.90625 55.328125 
Q 53.90625 49.265625 50.4375 45.09375 
Q 46.96875 40.921875 40.578125 39.3125 
z
" id="DejaVuSans-51"/>
       </defs>
       <use xlink:href="#DejaVuSans-51"/>
       <use x="63.623047" xlink:href="#DejaVuSans-48"/>
       <use x="127.246094" xlink:href="#DejaVuSans-48"/>
      </g>
     </g>
    </g>
    <g id="xtick_5">
     <g id="line2d_9">
      <path clip-path="url(#p0589bde844)" d="M 361.439008 107.6 
L 361.439008 26.8 
" style="fill:none;stroke:#b0b0b0;stroke-linecap:square;stroke-width:0.8;"/>
     </g>
     <g id="line2d_10">
      <g>
       <use style="stroke:#000000;stroke-width:0.8;" x="361.439008" xlink:href="#m7d3b53e617" y="107.6"/>
      </g>
     </g>
     <g id="text_5">
      <!-- 400 -->
      <g transform="translate(351.895258 122.198437)scale(0.1 -0.1)">
       <defs>
        <path d="M 37.796875 64.3125 
L 12.890625 25.390625 
L 37.796875 25.390625 
z
M 35.203125 72.90625 
L 47.609375 72.90625 
L 47.609375 25.390625 
L 58.015625 25.390625 
L 58.015625 17.1875 
L 47.609375 17.1875 
L 47.609375 0 
L 37.796875 0 
L 37.796875 17.1875 
L 4.890625 17.1875 
L 4.890625 26.703125 
z
" id="DejaVuSans-52"/>
       </defs>
       <use xlink:href="#DejaVuSans-52"/>
       <use x="63.623047" xlink:href="#DejaVuSans-48"/>
       <use x="127.246094" xlink:href="#DejaVuSans-48"/>
      </g>
     </g>
    </g>
    <g id="xtick_6">
     <g id="line2d_11">
      <path clip-path="url(#p0589bde844)" d="M 409.652797 107.6 
L 409.652797 26.8 
" style="fill:none;stroke:#b0b0b0;stroke-linecap:square;stroke-width:0.8;"/>
     </g>
     <g id="line2d_12">
      <g>
       <use style="stroke:#000000;stroke-width:0.8;" x="409.652797" xlink:href="#m7d3b53e617" y="107.6"/>
      </g>
     </g>
     <g id="text_6">
      <!-- 500 -->
      <g transform="translate(400.109047 122.198437)scale(0.1 -0.1)">
       <defs>
        <path d="M 10.796875 72.90625 
L 49.515625 72.90625 
L 49.515625 64.59375 
L 19.828125 64.59375 
L 19.828125 46.734375 
Q 21.96875 47.46875 24.109375 47.828125 
Q 26.265625 48.1875 28.421875 48.1875 
Q 40.625 48.1875 47.75 41.5 
Q 54.890625 34.8125 54.890625 23.390625 
Q 54.890625 11.625 47.5625 5.09375 
Q 40.234375 -1.421875 26.90625 -1.421875 
Q 22.3125 -1.421875 17.546875 -0.640625 
Q 12.796875 0.140625 7.71875 1.703125 
L 7.71875 11.625 
Q 12.109375 9.234375 16.796875 8.0625 
Q 21.484375 6.890625 26.703125 6.890625 
Q 35.15625 6.890625 40.078125 11.328125 
Q 45.015625 15.765625 45.015625 23.390625 
Q 45.015625 31 40.078125 35.4375 
Q 35.15625 39.890625 26.703125 39.890625 
Q 22.75 39.890625 18.8125 39.015625 
Q 14.890625 38.140625 10.796875 36.28125 
z
" id="DejaVuSans-53"/>
       </defs>
       <use xlink:href="#DejaVuSans-53"/>
       <use x="63.623047" xlink:href="#DejaVuSans-48"/>
       <use x="127.246094" xlink:href="#DejaVuSans-48"/>
      </g>
     </g>
    </g>
    <g id="text_7">
     <!-- t -->
     <g transform="translate(286.917099 135.876562)scale(0.1 -0.1)">
      <defs>
       <path d="M 18.3125 70.21875 
L 18.3125 54.6875 
L 36.8125 54.6875 
L 36.8125 47.703125 
L 18.3125 47.703125 
L 18.3125 18.015625 
Q 18.3125 11.328125 20.140625 9.421875 
Q 21.96875 7.515625 27.59375 7.515625 
L 36.8125 7.515625 
L 36.8125 0 
L 27.59375 0 
Q 17.1875 0 13.234375 3.875 
Q 9.28125 7.765625 9.28125 18.015625 
L 9.28125 47.703125 
L 2.6875 47.703125 
L 2.6875 54.6875 
L 9.28125 54.6875 
L 9.28125 70.21875 
z
" id="DejaVuSans-116"/>
      </defs>
      <use xlink:href="#DejaVuSans-116"/>
     </g>
    </g>
   </g>
   <g id="matplotlib.axis_2">
    <g id="ytick_1">
     <g id="line2d_13">
      <path clip-path="url(#p0589bde844)" d="M 156.554511 103.927273 
L 421.2 103.927273 
" style="fill:none;stroke:#b0b0b0;stroke-linecap:square;stroke-width:0.8;"/>
     </g>
     <g id="line2d_14">
      <defs>
       <path d="M 0 0 
L -3.5 0 
" id="m4a0ba43e08" style="stroke:#000000;stroke-width:0.8;"/>
      </defs>
      <g>
       <use style="stroke:#000000;stroke-width:0.8;" x="156.554511" xlink:href="#m4a0ba43e08" y="103.927273"/>
      </g>
     </g>
     <g id="text_8">
      <!-- 0.00 -->
      <g transform="translate(127.288886 107.726491)scale(0.1 -0.1)">
       <defs>
        <path d="M 10.6875 12.40625 
L 21 12.40625 
L 21 0 
L 10.6875 0 
z
" id="DejaVuSans-46"/>
       </defs>
       <use xlink:href="#DejaVuSans-48"/>
       <use x="63.623047" xlink:href="#DejaVuSans-46"/>
       <use x="95.410156" xlink:href="#DejaVuSans-48"/>
       <use x="159.033203" xlink:href="#DejaVuSans-48"/>
      </g>
     </g>
    </g>
    <g id="ytick_2">
     <g id="line2d_15">
      <path clip-path="url(#p0589bde844)" d="M 156.554511 81.890909 
L 421.2 81.890909 
" style="fill:none;stroke:#b0b0b0;stroke-linecap:square;stroke-width:0.8;"/>
     </g>
     <g id="line2d_16">
      <g>
       <use style="stroke:#000000;stroke-width:0.8;" x="156.554511" xlink:href="#m4a0ba43e08" y="81.890909"/>
      </g>
     </g>
     <g id="text_9">
      <!-- 0.02 -->
      <g transform="translate(127.288886 85.690128)scale(0.1 -0.1)">
       <use xlink:href="#DejaVuSans-48"/>
       <use x="63.623047" xlink:href="#DejaVuSans-46"/>
       <use x="95.410156" xlink:href="#DejaVuSans-48"/>
       <use x="159.033203" xlink:href="#DejaVuSans-50"/>
      </g>
     </g>
    </g>
    <g id="ytick_3">
     <g id="line2d_17">
      <path clip-path="url(#p0589bde844)" d="M 156.554511 59.854545 
L 421.2 59.854545 
" style="fill:none;stroke:#b0b0b0;stroke-linecap:square;stroke-width:0.8;"/>
     </g>
     <g id="line2d_18">
      <g>
       <use style="stroke:#000000;stroke-width:0.8;" x="156.554511" xlink:href="#m4a0ba43e08" y="59.854545"/>
      </g>
     </g>
     <g id="text_10">
      <!-- 0.04 -->
      <g transform="translate(127.288886 63.653764)scale(0.1 -0.1)">
       <use xlink:href="#DejaVuSans-48"/>
       <use x="63.623047" xlink:href="#DejaVuSans-46"/>
       <use x="95.410156" xlink:href="#DejaVuSans-48"/>
       <use x="159.033203" xlink:href="#DejaVuSans-52"/>
      </g>
     </g>
    </g>
    <g id="ytick_4">
     <g id="line2d_19">
      <path clip-path="url(#p0589bde844)" d="M 156.554511 37.818182 
L 421.2 37.818182 
" style="fill:none;stroke:#b0b0b0;stroke-linecap:square;stroke-width:0.8;"/>
     </g>
     <g id="line2d_20">
      <g>
       <use style="stroke:#000000;stroke-width:0.8;" x="156.554511" xlink:href="#m4a0ba43e08" y="37.818182"/>
      </g>
     </g>
     <g id="text_11">
      <!-- 0.06 -->
      <g transform="translate(127.288886 41.617401)scale(0.1 -0.1)">
       <defs>
        <path d="M 33.015625 40.375 
Q 26.375 40.375 22.484375 35.828125 
Q 18.609375 31.296875 18.609375 23.390625 
Q 18.609375 15.53125 22.484375 10.953125 
Q 26.375 6.390625 33.015625 6.390625 
Q 39.65625 6.390625 43.53125 10.953125 
Q 47.40625 15.53125 47.40625 23.390625 
Q 47.40625 31.296875 43.53125 35.828125 
Q 39.65625 40.375 33.015625 40.375 
z
M 52.59375 71.296875 
L 52.59375 62.3125 
Q 48.875 64.0625 45.09375 64.984375 
Q 41.3125 65.921875 37.59375 65.921875 
Q 27.828125 65.921875 22.671875 59.328125 
Q 17.53125 52.734375 16.796875 39.40625 
Q 19.671875 43.65625 24.015625 45.921875 
Q 28.375 48.1875 33.59375 48.1875 
Q 44.578125 48.1875 50.953125 41.515625 
Q 57.328125 34.859375 57.328125 23.390625 
Q 57.328125 12.15625 50.6875 5.359375 
Q 44.046875 -1.421875 33.015625 -1.421875 
Q 20.359375 -1.421875 13.671875 8.265625 
Q 6.984375 17.96875 6.984375 36.375 
Q 6.984375 53.65625 15.1875 63.9375 
Q 23.390625 74.21875 37.203125 74.21875 
Q 40.921875 74.21875 44.703125 73.484375 
Q 48.484375 72.75 52.59375 71.296875 
z
" id="DejaVuSans-54"/>
       </defs>
       <use xlink:href="#DejaVuSans-48"/>
       <use x="63.623047" xlink:href="#DejaVuSans-46"/>
       <use x="95.410156" xlink:href="#DejaVuSans-48"/>
       <use x="159.033203" xlink:href="#DejaVuSans-54"/>
      </g>
     </g>
    </g>
    <g id="text_12">
     <!-- h(t) -->
     <g transform="translate(121.209198 76.230469)rotate(-90)scale(0.1 -0.1)">
      <defs>
       <path d="M 54.890625 33.015625 
L 54.890625 0 
L 45.90625 0 
L 45.90625 32.71875 
Q 45.90625 40.484375 42.875 44.328125 
Q 39.84375 48.1875 33.796875 48.1875 
Q 26.515625 48.1875 22.3125 43.546875 
Q 18.109375 38.921875 18.109375 30.90625 
L 18.109375 0 
L 9.078125 0 
L 9.078125 75.984375 
L 18.109375 75.984375 
L 18.109375 46.1875 
Q 21.34375 51.125 25.703125 53.5625 
Q 30.078125 56 35.796875 56 
Q 45.21875 56 50.046875 50.171875 
Q 54.890625 44.34375 54.890625 33.015625 
z
" id="DejaVuSans-104"/>
       <path d="M 31 75.875 
Q 24.46875 64.65625 21.28125 53.65625 
Q 18.109375 42.671875 18.109375 31.390625 
Q 18.109375 20.125 21.3125 9.0625 
Q 24.515625 -2 31 -13.1875 
L 23.1875 -13.1875 
Q 15.875 -1.703125 12.234375 9.375 
Q 8.59375 20.453125 8.59375 31.390625 
Q 8.59375 42.28125 12.203125 53.3125 
Q 15.828125 64.359375 23.1875 75.875 
z
" id="DejaVuSans-40"/>
       <path d="M 8.015625 75.875 
L 15.828125 75.875 
Q 23.140625 64.359375 26.78125 53.3125 
Q 30.421875 42.28125 30.421875 31.390625 
Q 30.421875 20.453125 26.78125 9.375 
Q 23.140625 -1.703125 15.828125 -13.1875 
L 8.015625 -13.1875 
Q 14.5 -2 17.703125 9.0625 
Q 20.90625 20.125 20.90625 31.390625 
Q 20.90625 42.671875 17.703125 53.65625 
Q 14.5 64.65625 8.015625 75.875 
z
" id="DejaVuSans-41"/>
      </defs>
      <use xlink:href="#DejaVuSans-104"/>
      <use x="63.378906" xlink:href="#DejaVuSans-40"/>
      <use x="102.392578" xlink:href="#DejaVuSans-116"/>
      <use x="141.601562" xlink:href="#DejaVuSans-41"/>
     </g>
    </g>
   </g>
   <g id="line2d_21">
    <path clip-path="url(#p0589bde844)" d="M 168.583851 30.472727 
L 170.030265 43.787777 
L 171.476679 54.689218 
L 172.923092 63.614563 
L 174.369506 70.922018 
L 175.81592 76.904856 
L 177.262333 81.803189 
L 178.708747 85.813605 
L 180.155161 89.097056 
L 181.601574 91.785318 
L 183.047988 93.986281 
L 184.494402 95.788277 
L 185.940815 97.263627 
L 187.387229 98.471541 
L 189.315781 99.748573 
L 191.244332 100.726688 
L 193.172884 101.475854 
L 195.583573 102.170755 
L 198.476401 102.749843 
L 201.851366 103.18892 
L 206.190607 103.522056 
L 212.458399 103.75694 
L 223.065433 103.887978 
L 251.511569 103.926503 
L 409.17066 103.927273 
L 409.17066 103.927273 
" style="fill:none;stroke:#1f77b4;stroke-linecap:square;stroke-width:1.5;"/>
   </g>
   <g id="patch_3">
    <path d="M 156.554511 107.6 
L 156.554511 26.8 
" style="fill:none;stroke:#000000;stroke-linecap:square;stroke-linejoin:miter;stroke-width:0.8;"/>
   </g>
   <g id="patch_4">
    <path d="M 421.2 107.6 
L 421.2 26.8 
" style="fill:none;stroke:#000000;stroke-linecap:square;stroke-linejoin:miter;stroke-width:0.8;"/>
   </g>
   <g id="patch_5">
    <path d="M 156.554511 107.6 
L 421.2 107.6 
" style="fill:none;stroke:#000000;stroke-linecap:square;stroke-linejoin:miter;stroke-width:0.8;"/>
   </g>
   <g id="patch_6">
    <path d="M 156.554511 26.8 
L 421.2 26.8 
" style="fill:none;stroke:#000000;stroke-linecap:square;stroke-linejoin:miter;stroke-width:0.8;"/>
   </g>
   <g id="text_13">
    <!-- Апериодическое звено 1-го порядка -->
    <g transform="translate(173.207568 20.8)scale(0.12 -0.12)">
     <defs>
      <path d="M 34.1875 63.1875 
L 20.796875 26.90625 
L 47.609375 26.90625 
z
M 28.609375 72.90625 
L 39.796875 72.90625 
L 67.578125 0 
L 57.328125 0 
L 50.6875 18.703125 
L 17.828125 18.703125 
L 11.1875 0 
L 0.78125 0 
z
" id="DejaVuSans-1040"/>
      <path d="M 56.296875 54.6875 
L 56.296875 0 
L 47.265625 0 
L 47.265625 47.515625 
L 18.109375 47.515625 
L 18.109375 0 
L 9.078125 0 
L 9.078125 54.6875 
z
" id="DejaVuSans-1087"/>
      <path d="M 56.203125 29.59375 
L 56.203125 25.203125 
L 14.890625 25.203125 
Q 15.484375 15.921875 20.484375 11.0625 
Q 25.484375 6.203125 34.421875 6.203125 
Q 39.59375 6.203125 44.453125 7.46875 
Q 49.3125 8.734375 54.109375 11.28125 
L 54.109375 2.78125 
Q 49.265625 0.734375 44.1875 -0.34375 
Q 39.109375 -1.421875 33.890625 -1.421875 
Q 20.796875 -1.421875 13.15625 6.1875 
Q 5.515625 13.8125 5.515625 26.8125 
Q 5.515625 40.234375 12.765625 48.109375 
Q 20.015625 56 32.328125 56 
Q 43.359375 56 49.78125 48.890625 
Q 56.203125 41.796875 56.203125 29.59375 
z
M 47.21875 32.234375 
Q 47.125 39.59375 43.09375 43.984375 
Q 39.0625 48.390625 32.421875 48.390625 
Q 24.90625 48.390625 20.390625 44.140625 
Q 15.875 39.890625 15.1875 32.171875 
z
" id="DejaVuSans-1077"/>
      <path d="M 18.109375 8.203125 
L 18.109375 -20.796875 
L 9.078125 -20.796875 
L 9.078125 54.6875 
L 18.109375 54.6875 
L 18.109375 46.390625 
Q 20.953125 51.265625 25.265625 53.625 
Q 29.59375 56 35.59375 56 
Q 45.5625 56 51.78125 48.09375 
Q 58.015625 40.1875 58.015625 27.296875 
Q 58.015625 14.40625 51.78125 6.484375 
Q 45.5625 -1.421875 35.59375 -1.421875 
Q 29.59375 -1.421875 25.265625 0.953125 
Q 20.953125 3.328125 18.109375 8.203125 
z
M 48.6875 27.296875 
Q 48.6875 37.203125 44.609375 42.84375 
Q 40.53125 48.484375 33.40625 48.484375 
Q 26.265625 48.484375 22.1875 42.84375 
Q 18.109375 37.203125 18.109375 27.296875 
Q 18.109375 17.390625 22.1875 11.75 
Q 26.265625 6.109375 33.40625 6.109375 
Q 40.53125 6.109375 44.609375 11.75 
Q 48.6875 17.390625 48.6875 27.296875 
z
" id="DejaVuSans-1088"/>
      <path d="M 55.90625 54.6875 
L 55.90625 0 
L 46.96875 0 
L 46.96875 43.890625 
L 20.609375 0 
L 9.078125 0 
L 9.078125 54.6875 
L 18.015625 54.6875 
L 18.015625 10.890625 
L 44.34375 54.6875 
z
" id="DejaVuSans-1080"/>
      <path d="M 30.609375 48.390625 
Q 23.390625 48.390625 19.1875 42.75 
Q 14.984375 37.109375 14.984375 27.296875 
Q 14.984375 17.484375 19.15625 11.84375 
Q 23.34375 6.203125 30.609375 6.203125 
Q 37.796875 6.203125 41.984375 11.859375 
Q 46.1875 17.53125 46.1875 27.296875 
Q 46.1875 37.015625 41.984375 42.703125 
Q 37.796875 48.390625 30.609375 48.390625 
z
M 30.609375 56 
Q 42.328125 56 49.015625 48.375 
Q 55.71875 40.765625 55.71875 27.296875 
Q 55.71875 13.875 49.015625 6.21875 
Q 42.328125 -1.421875 30.609375 -1.421875 
Q 18.84375 -1.421875 12.171875 6.21875 
Q 5.515625 13.875 5.515625 27.296875 
Q 5.515625 40.765625 12.171875 48.375 
Q 18.84375 56 30.609375 56 
z
" id="DejaVuSans-1086"/>
      <path d="M 21.625 7.171875 
L 47.703125 7.171875 
L 47.703125 47.515625 
L 28.8125 47.515625 
L 28.8125 40.671875 
Q 28.8125 20.5625 23.046875 9.8125 
z
M 8.59375 7.171875 
Q 13.03125 9.125 14.984375 13.28125 
Q 19.78125 23.578125 19.78125 44.34375 
L 19.78125 54.6875 
L 56.734375 54.6875 
L 56.734375 7.171875 
L 63.921875 7.171875 
L 63.921875 -13.8125 
L 56.734375 -13.8125 
L 56.734375 0 
L 12.40625 0 
L 12.40625 -13.8125 
L 5.21875 -13.8125 
L 5.21875 7.171875 
z
" id="DejaVuSans-1076"/>
      <path d="M 41.015625 0 
L 41.015625 23 
L 24.265625 23 
Q 16.796875 23 11.8125 27.640625 
Q 7.328125 31.84375 7.328125 40.828125 
L 7.328125 54.6875 
L 16.3125 54.6875 
L 16.3125 41.65625 
Q 16.3125 35.9375 18.84375 33.0625 
Q 21.4375 30.171875 26.515625 30.171875 
L 41.015625 30.171875 
L 41.015625 54.6875 
L 50 54.6875 
L 50 0 
z
" id="DejaVuSans-1095"/>
      <path d="M 48.78125 52.59375 
L 48.78125 44.1875 
Q 44.96875 46.296875 41.140625 47.34375 
Q 37.3125 48.390625 33.40625 48.390625 
Q 24.65625 48.390625 19.8125 42.84375 
Q 14.984375 37.3125 14.984375 27.296875 
Q 14.984375 17.28125 19.8125 11.734375 
Q 24.65625 6.203125 33.40625 6.203125 
Q 37.3125 6.203125 41.140625 7.25 
Q 44.96875 8.296875 48.78125 10.40625 
L 48.78125 2.09375 
Q 45.015625 0.34375 40.984375 -0.53125 
Q 36.96875 -1.421875 32.421875 -1.421875 
Q 20.0625 -1.421875 12.78125 6.34375 
Q 5.515625 14.109375 5.515625 27.296875 
Q 5.515625 40.671875 12.859375 48.328125 
Q 20.21875 56 33.015625 56 
Q 37.15625 56 41.109375 55.140625 
Q 45.0625 54.296875 48.78125 52.59375 
z
" id="DejaVuSans-1089"/>
      <path d="M 9.078125 54.6875 
L 18.015625 54.6875 
L 18.015625 29 
L 43.359375 54.6875 
L 54.390625 54.6875 
L 33.5 33.546875 
L 57.078125 0 
L 47.015625 0 
L 27.640625 27.59375 
L 18.015625 17.828125 
L 18.015625 0 
L 9.078125 0 
z
" id="DejaVuSans-1082"/>
      <path id="DejaVuSans-32"/>
      <path d="M 34.46875 29.5 
Q 40.53125 28.328125 43.890625 24.75 
Q 47.265625 21.1875 47.265625 15.921875 
Q 47.265625 7.46875 40.96875 3.015625 
Q 34.671875 -1.421875 23.046875 -1.421875 
Q 19.140625 -1.421875 15.015625 -0.734375 
Q 10.890625 -0.046875 6.5 1.3125 
L 6.5 9.671875 
Q 9.96875 7.859375 14.109375 6.953125 
Q 18.265625 6.0625 22.796875 6.0625 
Q 30.171875 6.0625 34.296875 8.796875 
Q 38.421875 11.53125 38.421875 15.921875 
Q 38.421875 20.21875 34.765625 22.828125 
Q 31.109375 25.4375 24.421875 25.4375 
L 17.1875 25.4375 
L 17.1875 32.859375 
L 24.75 32.859375 
Q 30.421875 32.859375 33.71875 35.03125 
Q 37.015625 37.203125 37.015625 40.625 
Q 37.015625 43.75 33.609375 46 
Q 30.21875 48.25 24.421875 48.25 
Q 20.953125 48.25 17.015625 47.609375 
Q 13.09375 46.96875 8.34375 45.5625 
L 8.34375 53.71875 
Q 13.140625 54.890625 17.28125 55.46875 
Q 21.4375 56.0625 25.140625 56.0625 
Q 34.71875 56.0625 40.25 52.21875 
Q 45.796875 48.390625 45.796875 41.5 
Q 45.796875 36.96875 42.859375 33.8125 
Q 39.9375 30.671875 34.46875 29.5 
z
" id="DejaVuSans-1079"/>
      <path d="M 18.0625 25.203125 
L 18.0625 7.171875 
L 30.859375 7.171875 
Q 37.015625 7.171875 40.234375 9.484375 
Q 43.453125 11.8125 43.453125 16.21875 
Q 43.453125 20.609375 40.234375 22.90625 
Q 37.015625 25.203125 30.859375 25.203125 
z
M 18.0625 47.515625 
L 18.0625 32.375 
L 29.890625 32.375 
Q 34.96875 32.375 38.1875 34.390625 
Q 41.40625 36.421875 41.40625 40.046875 
Q 41.40625 43.65625 38.1875 45.578125 
Q 34.96875 47.515625 29.890625 47.515625 
z
M 9.078125 54.6875 
L 30.46875 54.6875 
Q 40.09375 54.6875 45.265625 51.171875 
Q 50.4375 47.65625 50.4375 41.15625 
Q 50.4375 36.140625 47.796875 33.171875 
Q 45.171875 30.21875 39.984375 29.5 
Q 46.1875 28.328125 49.609375 24.609375 
Q 53.03125 20.90625 53.03125 15.328125 
Q 53.03125 8.015625 47.390625 4 
Q 41.75 0 31.296875 0 
L 9.078125 0 
z
" id="DejaVuSans-1074"/>
      <path d="M 9.078125 54.6875 
L 18.109375 54.6875 
L 18.109375 32.375 
L 47.265625 32.375 
L 47.265625 54.6875 
L 56.296875 54.6875 
L 56.296875 0 
L 47.265625 0 
L 47.265625 25.203125 
L 18.109375 25.203125 
L 18.109375 0 
L 9.078125 0 
z
" id="DejaVuSans-1085"/>
      <path d="M 4.890625 31.390625 
L 31.203125 31.390625 
L 31.203125 23.390625 
L 4.890625 23.390625 
z
" id="DejaVuSans-45"/>
      <path d="M 9.078125 0 
L 9.078125 54.6875 
L 47.65625 54.6875 
L 47.65625 47.515625 
L 18.109375 47.515625 
L 18.109375 0 
z
" id="DejaVuSans-1075"/>
      <path d="M 18.453125 38.921875 
Q 18.453125 34.859375 21.578125 32.5625 
Q 24.703125 30.28125 30.515625 30.28125 
L 42.625 30.28125 
L 42.625 47.515625 
L 30.515625 47.515625 
Q 24.703125 47.515625 21.578125 45.265625 
Q 18.453125 43.015625 18.453125 38.921875 
z
M 5.671875 0 
L 22.359375 23.96875 
Q 16.703125 25.25 12.9375 28.59375 
Q 9.1875 31.9375 9.1875 38.921875 
Q 9.1875 46.828125 14.421875 50.75 
Q 19.671875 54.6875 30.28125 54.6875 
L 51.65625 54.6875 
L 51.65625 0 
L 42.625 0 
L 42.625 23.09375 
L 31.453125 23.09375 
L 15.328125 0 
z
" id="DejaVuSans-1103"/>
      <path d="M 34.28125 27.484375 
Q 23.390625 27.484375 19.1875 25 
Q 14.984375 22.515625 14.984375 16.5 
Q 14.984375 11.71875 18.140625 8.90625 
Q 21.296875 6.109375 26.703125 6.109375 
Q 34.1875 6.109375 38.703125 11.40625 
Q 43.21875 16.703125 43.21875 25.484375 
L 43.21875 27.484375 
z
M 52.203125 31.203125 
L 52.203125 0 
L 43.21875 0 
L 43.21875 8.296875 
Q 40.140625 3.328125 35.546875 0.953125 
Q 30.953125 -1.421875 24.3125 -1.421875 
Q 15.921875 -1.421875 10.953125 3.296875 
Q 6 8.015625 6 15.921875 
Q 6 25.140625 12.171875 29.828125 
Q 18.359375 34.515625 30.609375 34.515625 
L 43.21875 34.515625 
L 43.21875 35.40625 
Q 43.21875 41.609375 39.140625 45 
Q 35.0625 48.390625 27.6875 48.390625 
Q 23 48.390625 18.546875 47.265625 
Q 14.109375 46.140625 10.015625 43.890625 
L 10.015625 52.203125 
Q 14.9375 54.109375 19.578125 55.046875 
Q 24.21875 56 28.609375 56 
Q 40.484375 56 46.34375 49.84375 
Q 52.203125 43.703125 52.203125 31.203125 
z
" id="DejaVuSans-1072"/>
     </defs>
     <use xlink:href="#DejaVuSans-1040"/>
     <use x="68.408203" xlink:href="#DejaVuSans-1087"/>
     <use x="133.789062" xlink:href="#DejaVuSans-1077"/>
     <use x="195.3125" xlink:href="#DejaVuSans-1088"/>
     <use x="258.789062" xlink:href="#DejaVuSans-1080"/>
     <use x="323.779297" xlink:href="#DejaVuSans-1086"/>
     <use x="384.960938" xlink:href="#DejaVuSans-1076"/>
     <use x="454.101562" xlink:href="#DejaVuSans-1080"/>
     <use x="519.091797" xlink:href="#DejaVuSans-1095"/>
     <use x="578.173828" xlink:href="#DejaVuSans-1077"/>
     <use x="639.697266" xlink:href="#DejaVuSans-1089"/>
     <use x="694.677734" xlink:href="#DejaVuSans-1082"/>
     <use x="755.078125" xlink:href="#DejaVuSans-1086"/>
     <use x="816.259766" xlink:href="#DejaVuSans-1077"/>
     <use x="877.783203" xlink:href="#DejaVuSans-32"/>
     <use x="909.570312" xlink:href="#DejaVuSans-1079"/>
     <use x="962.744141" xlink:href="#DejaVuSans-1074"/>
     <use x="1021.679688" xlink:href="#DejaVuSans-1077"/>
     <use x="1083.203125" xlink:href="#DejaVuSans-1085"/>
     <use x="1148.583984" xlink:href="#DejaVuSans-1086"/>
     <use x="1209.765625" xlink:href="#DejaVuSans-32"/>
     <use x="1241.552734" xlink:href="#DejaVuSans-49"/>
     <use x="1305.175781" xlink:href="#DejaVuSans-45"/>
     <use x="1341.259766" xlink:href="#DejaVuSans-1075"/>
     <use x="1393.798828" xlink:href="#DejaVuSans-1086"/>
     <use x="1454.980469" xlink:href="#DejaVuSans-32"/>
     <use x="1486.767578" xlink:href="#DejaVuSans-1087"/>
     <use x="1552.148438" xlink:href="#DejaVuSans-1086"/>
     <use x="1613.330078" xlink:href="#DejaVuSans-1088"/>
     <use x="1676.806641" xlink:href="#DejaVuSans-1103"/>
     <use x="1736.962891" xlink:href="#DejaVuSans-1076"/>
     <use x="1806.103516" xlink:href="#DejaVuSans-1082"/>
     <use x="1866.503906" xlink:href="#DejaVuSans-1072"/>
    </g>
   </g>
  </g>
  <g id="axes_2">
   <g id="patch_7">
    <path d="M 47.8 107.6 
L 94.936468 107.6 
L 94.936468 26.8 
L 47.8 26.8 
z
" style="fill:#ffffff;"/>
   </g>
   <g id="PolyCollection_1">
    <path clip-path="url(#pdb1d49c8cb)" d="M 49.942567 103.927273 
L 49.942567 30.472727 
L 50.375408 35.210032 
L 50.80825 39.641814 
L 51.241092 43.787777 
L 51.673934 47.666355 
L 52.106776 51.294791 
L 52.539617 54.689218 
L 52.972459 57.864729 
L 53.405301 60.835441 
L 53.838143 63.614563 
L 54.270984 66.214452 
L 54.703826 68.646665 
L 55.136668 70.922018 
L 55.56951 73.050626 
L 56.002351 75.041954 
L 56.435193 76.904856 
L 56.868035 78.647613 
L 57.300877 80.277974 
L 57.733718 81.803189 
L 58.16656 83.230038 
L 58.599402 84.564865 
L 59.032244 85.813605 
L 59.465085 86.98181 
L 59.897927 88.074674 
L 60.330769 89.097056 
L 60.763611 90.053501 
L 61.196452 90.948263 
L 61.629294 91.785318 
L 62.062136 92.568389 
L 62.494978 93.300958 
L 62.927819 93.986281 
L 63.360661 94.627406 
L 63.793503 95.227182 
L 64.226345 95.788277 
L 64.659187 96.313185 
L 65.092028 96.804241 
L 65.52487 97.263627 
L 65.957712 97.693385 
L 66.390554 98.095428 
L 66.823395 98.471541 
L 67.256237 98.823397 
L 67.689079 99.152562 
L 68.121921 99.460497 
L 68.554762 99.748573 
L 68.987604 100.01807 
L 69.420446 100.270186 
L 69.853288 100.506043 
L 70.286129 100.726688 
L 70.718971 100.933104 
L 71.151813 101.126207 
L 71.584655 101.306856 
L 72.017496 101.475854 
L 72.450338 101.633954 
L 72.88318 101.781857 
L 73.316022 101.920221 
L 73.748863 102.049662 
L 74.181705 102.170755 
L 74.614547 102.284038 
L 75.047389 102.390015 
L 75.48023 102.489157 
L 75.913072 102.581906 
L 76.345914 102.668673 
L 76.778756 102.749843 
L 77.211598 102.825779 
L 77.644439 102.896818 
L 78.077281 102.963275 
L 78.510123 103.025446 
L 78.942965 103.083608 
L 79.375806 103.138018 
L 79.808648 103.18892 
L 80.24149 103.236538 
L 80.674332 103.281086 
L 81.107173 103.32276 
L 81.540015 103.361747 
L 81.972857 103.39822 
L 82.405699 103.43234 
L 82.83854 103.46426 
L 83.271382 103.494121 
L 83.704224 103.522056 
L 84.137066 103.54819 
L 84.569907 103.572638 
L 85.002749 103.595509 
L 85.435591 103.616906 
L 85.868433 103.636922 
L 86.301274 103.655648 
L 86.734116 103.673166 
L 87.166958 103.689554 
L 87.5998 103.704885 
L 88.032642 103.719228 
L 88.465483 103.732645 
L 88.898325 103.745197 
L 89.331167 103.75694 
L 89.764009 103.767925 
L 90.19685 103.778202 
L 90.629692 103.787816 
L 91.062534 103.79681 
L 91.495376 103.805224 
L 91.928217 103.813095 
L 92.361059 103.820459 
L 92.793901 103.827348 
L 92.793901 103.927273 
L 92.793901 103.927273 
L 92.361059 103.927273 
L 91.928217 103.927273 
L 91.495376 103.927273 
L 91.062534 103.927273 
L 90.629692 103.927273 
L 90.19685 103.927273 
L 89.764009 103.927273 
L 89.331167 103.927273 
L 88.898325 103.927273 
L 88.465483 103.927273 
L 88.032642 103.927273 
L 87.5998 103.927273 
L 87.166958 103.927273 
L 86.734116 103.927273 
L 86.301274 103.927273 
L 85.868433 103.927273 
L 85.435591 103.927273 
L 85.002749 103.927273 
L 84.569907 103.927273 
L 84.137066 103.927273 
L 83.704224 103.927273 
L 83.271382 103.927273 
L 82.83854 103.927273 
L 82.405699 103.927273 
L 81.972857 103.927273 
L 81.540015 103.927273 
L 81.107173 103.927273 
L 80.674332 103.927273 
L 80.24149 103.927273 
L 79.808648 103.927273 
L 79.375806 103.927273 
L 78.942965 103.927273 
L 78.510123 103.927273 
L 78.077281 103.927273 
L 77.644439 103.927273 
L 77.211598 103.927273 
L 76.778756 103.927273 
L 76.345914 103.927273 
L 75.913072 103.927273 
L 75.48023 103.927273 
L 75.047389 103.927273 
L 74.614547 103.927273 
L 74.181705 103.927273 
L 73.748863 103.927273 
L 73.316022 103.927273 
L 72.88318 103.927273 
L 72.450338 103.927273 
L 72.017496 103.927273 
L 71.584655 103.927273 
L 71.151813 103.927273 
L 70.718971 103.927273 
L 70.286129 103.927273 
L 69.853288 103.927273 
L 69.420446 103.927273 
L 68.987604 103.927273 
L 68.554762 103.927273 
L 68.121921 103.927273 
L 67.689079 103.927273 
L 67.256237 103.927273 
L 66.823395 103.927273 
L 66.390554 103.927273 
L 65.957712 103.927273 
L 65.52487 103.927273 
L 65.092028 103.927273 
L 64.659187 103.927273 
L 64.226345 103.927273 
L 63.793503 103.927273 
L 63.360661 103.927273 
L 62.927819 103.927273 
L 62.494978 103.927273 
L 62.062136 103.927273 
L 61.629294 103.927273 
L 61.196452 103.927273 
L 60.763611 103.927273 
L 60.330769 103.927273 
L 59.897927 103.927273 
L 59.465085 103.927273 
L 59.032244 103.927273 
L 58.599402 103.927273 
L 58.16656 103.927273 
L 57.733718 103.927273 
L 57.300877 103.927273 
L 56.868035 103.927273 
L 56.435193 103.927273 
L 56.002351 103.927273 
L 55.56951 103.927273 
L 55.136668 103.927273 
L 54.703826 103.927273 
L 54.270984 103.927273 
L 53.838143 103.927273 
L 53.405301 103.927273 
L 52.972459 103.927273 
L 52.539617 103.927273 
L 52.106776 103.927273 
L 51.673934 103.927273 
L 51.241092 103.927273 
L 50.80825 103.927273 
L 50.375408 103.927273 
L 49.942567 103.927273 
z
" style="fill:#1f77b4;"/>
   </g>
   <g id="matplotlib.axis_3">
    <g id="xtick_7">
     <g id="line2d_22">
      <path clip-path="url(#pdb1d49c8cb)" d="M 49.942567 107.6 
L 49.942567 26.8 
" style="fill:none;stroke:#b0b0b0;stroke-linecap:square;stroke-width:0.8;"/>
     </g>
     <g id="line2d_23">
      <g>
       <use style="stroke:#000000;stroke-width:0.8;" x="49.942567" xlink:href="#m7d3b53e617" y="107.6"/>
      </g>
     </g>
     <g id="text_14">
      <!-- 0 -->
      <g transform="translate(46.761317 122.198437)scale(0.1 -0.1)">
       <use xlink:href="#DejaVuSans-48"/>
      </g>
     </g>
    </g>
    <g id="xtick_8">
     <g id="line2d_24">
      <path clip-path="url(#pdb1d49c8cb)" d="M 93.226743 107.6 
L 93.226743 26.8 
" style="fill:none;stroke:#b0b0b0;stroke-linecap:square;stroke-width:0.8;"/>
     </g>
     <g id="line2d_25">
      <g>
       <use style="stroke:#000000;stroke-width:0.8;" x="93.226743" xlink:href="#m7d3b53e617" y="107.6"/>
      </g>
     </g>
     <g id="text_15">
      <!-- 100 -->
      <g transform="translate(83.682993 122.198437)scale(0.1 -0.1)">
       <use xlink:href="#DejaVuSans-49"/>
       <use x="63.623047" xlink:href="#DejaVuSans-48"/>
       <use x="127.246094" xlink:href="#DejaVuSans-48"/>
      </g>
     </g>
    </g>
    <g id="text_16">
     <!-- q -->
     <g transform="translate(68.194015 135.876562)scale(0.1 -0.1)">
      <defs>
       <path d="M 14.796875 27.296875 
Q 14.796875 17.390625 18.875 11.75 
Q 22.953125 6.109375 30.078125 6.109375 
Q 37.203125 6.109375 41.296875 11.75 
Q 45.40625 17.390625 45.40625 27.296875 
Q 45.40625 37.203125 41.296875 42.84375 
Q 37.203125 48.484375 30.078125 48.484375 
Q 22.953125 48.484375 18.875 42.84375 
Q 14.796875 37.203125 14.796875 27.296875 
z
M 45.40625 8.203125 
Q 42.578125 3.328125 38.25 0.953125 
Q 33.9375 -1.421875 27.875 -1.421875 
Q 17.96875 -1.421875 11.734375 6.484375 
Q 5.515625 14.40625 5.515625 27.296875 
Q 5.515625 40.1875 11.734375 48.09375 
Q 17.96875 56 27.875 56 
Q 33.9375 56 38.25 53.625 
Q 42.578125 51.265625 45.40625 46.390625 
L 45.40625 54.6875 
L 54.390625 54.6875 
L 54.390625 -20.796875 
L 45.40625 -20.796875 
z
" id="DejaVuSans-113"/>
      </defs>
      <use xlink:href="#DejaVuSans-113"/>
     </g>
    </g>
   </g>
   <g id="matplotlib.axis_4">
    <g id="ytick_5">
     <g id="line2d_26">
      <path clip-path="url(#pdb1d49c8cb)" d="M 47.8 103.927273 
L 94.936468 103.927273 
" style="fill:none;stroke:#b0b0b0;stroke-linecap:square;stroke-width:0.8;"/>
     </g>
     <g id="line2d_27">
      <g>
       <use style="stroke:#000000;stroke-width:0.8;" x="47.8" xlink:href="#m4a0ba43e08" y="103.927273"/>
      </g>
     </g>
     <g id="text_17">
      <!-- 0.0 -->
      <g transform="translate(24.896875 107.726491)scale(0.1 -0.1)">
       <use xlink:href="#DejaVuSans-48"/>
       <use x="63.623047" xlink:href="#DejaVuSans-46"/>
       <use x="95.410156" xlink:href="#DejaVuSans-48"/>
      </g>
     </g>
    </g>
    <g id="ytick_6">
     <g id="line2d_28">
      <path clip-path="url(#pdb1d49c8cb)" d="M 47.8 83.296827 
L 94.936468 83.296827 
" style="fill:none;stroke:#b0b0b0;stroke-linecap:square;stroke-width:0.8;"/>
     </g>
     <g id="line2d_29">
      <g>
       <use style="stroke:#000000;stroke-width:0.8;" x="47.8" xlink:href="#m4a0ba43e08" y="83.296827"/>
      </g>
     </g>
     <g id="text_18">
      <!-- 2.5 -->
      <g transform="translate(24.896875 87.096045)scale(0.1 -0.1)">
       <use xlink:href="#DejaVuSans-50"/>
       <use x="63.623047" xlink:href="#DejaVuSans-46"/>
       <use x="95.410156" xlink:href="#DejaVuSans-53"/>
      </g>
     </g>
    </g>
    <g id="ytick_7">
     <g id="line2d_30">
      <path clip-path="url(#pdb1d49c8cb)" d="M 47.8 62.666381 
L 94.936468 62.666381 
" style="fill:none;stroke:#b0b0b0;stroke-linecap:square;stroke-width:0.8;"/>
     </g>
     <g id="line2d_31">
      <g>
       <use style="stroke:#000000;stroke-width:0.8;" x="47.8" xlink:href="#m4a0ba43e08" y="62.666381"/>
      </g>
     </g>
     <g id="text_19">
      <!-- 5.0 -->
      <g transform="translate(24.896875 66.465599)scale(0.1 -0.1)">
       <use xlink:href="#DejaVuSans-53"/>
       <use x="63.623047" xlink:href="#DejaVuSans-46"/>
       <use x="95.410156" xlink:href="#DejaVuSans-48"/>
      </g>
     </g>
    </g>
    <g id="ytick_8">
     <g id="line2d_32">
      <path clip-path="url(#pdb1d49c8cb)" d="M 47.8 42.035935 
L 94.936468 42.035935 
" style="fill:none;stroke:#b0b0b0;stroke-linecap:square;stroke-width:0.8;"/>
     </g>
     <g id="line2d_33">
      <g>
       <use style="stroke:#000000;stroke-width:0.8;" x="47.8" xlink:href="#m4a0ba43e08" y="42.035935"/>
      </g>
     </g>
     <g id="text_20">
      <!-- 7.5 -->
      <g transform="translate(24.896875 45.835153)scale(0.1 -0.1)">
       <defs>
        <path d="M 8.203125 72.90625 
L 55.078125 72.90625 
L 55.078125 68.703125 
L 28.609375 0 
L 18.3125 0 
L 43.21875 64.59375 
L 8.203125 64.59375 
z
" id="DejaVuSans-55"/>
       </defs>
       <use xlink:href="#DejaVuSans-55"/>
       <use x="63.623047" xlink:href="#DejaVuSans-46"/>
       <use x="95.410156" xlink:href="#DejaVuSans-53"/>
      </g>
     </g>
    </g>
    <g id="text_21">
     <!-- Rxx -->
     <g transform="translate(18.817188 76.592969)rotate(-90)scale(0.1 -0.1)">
      <defs>
       <path d="M 44.390625 34.1875 
Q 47.5625 33.109375 50.5625 29.59375 
Q 53.5625 26.078125 56.59375 19.921875 
L 66.609375 0 
L 56 0 
L 46.6875 18.703125 
Q 43.0625 26.03125 39.671875 28.421875 
Q 36.28125 30.8125 30.421875 30.8125 
L 19.671875 30.8125 
L 19.671875 0 
L 9.8125 0 
L 9.8125 72.90625 
L 32.078125 72.90625 
Q 44.578125 72.90625 50.734375 67.671875 
Q 56.890625 62.453125 56.890625 51.90625 
Q 56.890625 45.015625 53.6875 40.46875 
Q 50.484375 35.9375 44.390625 34.1875 
z
M 19.671875 64.796875 
L 19.671875 38.921875 
L 32.078125 38.921875 
Q 39.203125 38.921875 42.84375 42.21875 
Q 46.484375 45.515625 46.484375 51.90625 
Q 46.484375 58.296875 42.84375 61.546875 
Q 39.203125 64.796875 32.078125 64.796875 
z
" id="DejaVuSans-82"/>
       <path d="M 54.890625 54.6875 
L 35.109375 28.078125 
L 55.90625 0 
L 45.3125 0 
L 29.390625 21.484375 
L 13.484375 0 
L 2.875 0 
L 24.125 28.609375 
L 4.6875 54.6875 
L 15.28125 54.6875 
L 29.78125 35.203125 
L 44.28125 54.6875 
z
" id="DejaVuSans-120"/>
      </defs>
      <use xlink:href="#DejaVuSans-82"/>
      <use x="69.482422" xlink:href="#DejaVuSans-120"/>
      <use x="128.662109" xlink:href="#DejaVuSans-120"/>
     </g>
    </g>
    <g id="text_22">
     <!-- 1e−5 -->
     <g transform="translate(47.8 23.8)scale(0.1 -0.1)">
      <defs>
       <path d="M 56.203125 29.59375 
L 56.203125 25.203125 
L 14.890625 25.203125 
Q 15.484375 15.921875 20.484375 11.0625 
Q 25.484375 6.203125 34.421875 6.203125 
Q 39.59375 6.203125 44.453125 7.46875 
Q 49.3125 8.734375 54.109375 11.28125 
L 54.109375 2.78125 
Q 49.265625 0.734375 44.1875 -0.34375 
Q 39.109375 -1.421875 33.890625 -1.421875 
Q 20.796875 -1.421875 13.15625 6.1875 
Q 5.515625 13.8125 5.515625 26.8125 
Q 5.515625 40.234375 12.765625 48.109375 
Q 20.015625 56 32.328125 56 
Q 43.359375 56 49.78125 48.890625 
Q 56.203125 41.796875 56.203125 29.59375 
z
M 47.21875 32.234375 
Q 47.125 39.59375 43.09375 43.984375 
Q 39.0625 48.390625 32.421875 48.390625 
Q 24.90625 48.390625 20.390625 44.140625 
Q 15.875 39.890625 15.1875 32.171875 
z
" id="DejaVuSans-101"/>
       <path d="M 10.59375 35.5 
L 73.1875 35.5 
L 73.1875 27.203125 
L 10.59375 27.203125 
z
" id="DejaVuSans-8722"/>
      </defs>
      <use xlink:href="#DejaVuSans-49"/>
      <use x="63.623047" xlink:href="#DejaVuSans-101"/>
      <use x="125.146484" xlink:href="#DejaVuSans-8722"/>
      <use x="208.935547" xlink:href="#DejaVuSans-53"/>
     </g>
    </g>
   </g>
   <g id="line2d_34">
    <path clip-path="url(#pdb1d49c8cb)" d="M 49.942567 30.472727 
L 50.375408 35.210032 
L 50.80825 39.641814 
L 51.241092 43.787777 
L 51.673934 47.666355 
L 52.106776 51.294791 
L 52.539617 54.689218 
L 52.972459 57.864729 
L 53.405301 60.835441 
L 53.838143 63.614563 
L 54.270984 66.214452 
L 54.703826 68.646665 
L 55.136668 70.922018 
L 55.56951 73.050626 
L 56.002351 75.041954 
L 56.435193 76.904856 
L 56.868035 78.647613 
L 57.300877 80.277974 
L 57.733718 81.803189 
L 58.16656 83.230038 
L 58.599402 84.564865 
L 59.032244 85.813605 
L 59.465085 86.98181 
L 59.897927 88.074674 
L 60.330769 89.097056 
L 60.763611 90.053501 
L 61.196452 90.948263 
L 61.629294 91.785318 
L 62.062136 92.568389 
L 62.494978 93.300958 
L 62.927819 93.986281 
L 63.360661 94.627406 
L 63.793503 95.227182 
L 64.226345 95.788277 
L 64.659187 96.313185 
L 65.092028 96.804241 
L 65.52487 97.263627 
L 65.957712 97.693385 
L 66.390554 98.095428 
L 66.823395 98.471541 
L 67.256237 98.823397 
L 67.689079 99.152562 
L 68.121921 99.460497 
L 68.554762 99.748573 
L 68.987604 100.01807 
L 69.420446 100.270186 
L 69.853288 100.506043 
L 70.286129 100.726688 
L 70.718971 100.933104 
L 71.151813 101.126207 
L 71.584655 101.306856 
L 72.017496 101.475854 
L 72.450338 101.633954 
L 72.88318 101.781857 
L 73.316022 101.920221 
L 73.748863 102.049662 
L 74.181705 102.170755 
L 74.614547 102.284038 
L 75.047389 102.390015 
L 75.48023 102.489157 
L 75.913072 102.581906 
L 76.345914 102.668673 
L 76.778756 102.749843 
L 77.211598 102.825779 
L 77.644439 102.896818 
L 78.077281 102.963275 
L 78.510123 103.025446 
L 78.942965 103.083608 
L 79.375806 103.138018 
L 79.808648 103.18892 
L 80.24149 103.236538 
L 80.674332 103.281086 
L 81.107173 103.32276 
L 81.540015 103.361747 
L 81.972857 103.39822 
L 82.405699 103.43234 
L 82.83854 103.46426 
L 83.271382 103.494121 
L 83.704224 103.522056 
L 84.137066 103.54819 
L 84.569907 103.572638 
L 85.002749 103.595509 
L 85.435591 103.616906 
L 85.868433 103.636922 
L 86.301274 103.655648 
L 86.734116 103.673166 
L 87.166958 103.689554 
L 87.5998 103.704885 
L 88.032642 103.719228 
L 88.465483 103.732645 
L 88.898325 103.745197 
L 89.331167 103.75694 
L 89.764009 103.767925 
L 90.19685 103.778202 
L 90.629692 103.787816 
L 91.062534 103.79681 
L 91.495376 103.805224 
L 91.928217 103.813095 
L 92.361059 103.820459 
L 92.793901 103.827348 
" style="fill:none;stroke:#1f77b4;stroke-linecap:square;stroke-width:1.5;"/>
   </g>
   <g id="patch_8">
    <path d="M 47.8 107.6 
L 47.8 26.8 
" style="fill:none;stroke:#000000;stroke-linecap:square;stroke-linejoin:miter;stroke-width:0.8;"/>
   </g>
   <g id="patch_9">
    <path d="M 94.936468 107.6 
L 94.936468 26.8 
" style="fill:none;stroke:#000000;stroke-linecap:square;stroke-linejoin:miter;stroke-width:0.8;"/>
   </g>
   <g id="patch_10">
    <path d="M 47.8 107.6 
L 94.936468 107.6 
" style="fill:none;stroke:#000000;stroke-linecap:square;stroke-linejoin:miter;stroke-width:0.8;"/>
   </g>
   <g id="patch_11">
    <path d="M 47.8 26.8 
L 94.936468 26.8 
" style="fill:none;stroke:#000000;stroke-linecap:square;stroke-linejoin:miter;stroke-width:0.8;"/>
   </g>
  </g>
  <g id="axes_3">
   <g id="patch_12">
    <path d="M 47.8 246.2 
L 203.690978 246.2 
L 203.690978 165.4 
L 47.8 165.4 
z
" style="fill:#ffffff;"/>
   </g>
   <g id="matplotlib.axis_5">
    <g id="xtick_9">
     <g id="line2d_35">
      <path clip-path="url(#p493fc66a56)" d="M 54.885954 246.2 
L 54.885954 165.4 
" style="fill:none;stroke:#b0b0b0;stroke-linecap:square;stroke-width:0.8;"/>
     </g>
     <g id="line2d_36">
      <g>
       <use style="stroke:#000000;stroke-width:0.8;" x="54.885954" xlink:href="#m7d3b53e617" y="246.2"/>
      </g>
     </g>
     <g id="text_23">
      <!-- 0 -->
      <g transform="translate(51.704704 260.798437)scale(0.1 -0.1)">
       <use xlink:href="#DejaVuSans-48"/>
      </g>
     </g>
    </g>
    <g id="xtick_10">
     <g id="line2d_37">
      <path clip-path="url(#p493fc66a56)" d="M 111.687185 246.2 
L 111.687185 165.4 
" style="fill:none;stroke:#b0b0b0;stroke-linecap:square;stroke-width:0.8;"/>
     </g>
     <g id="line2d_38">
      <g>
       <use style="stroke:#000000;stroke-width:0.8;" x="111.687185" xlink:href="#m7d3b53e617" y="246.2"/>
      </g>
     </g>
     <g id="text_24">
      <!-- 200 -->
      <g transform="translate(102.143435 260.798437)scale(0.1 -0.1)">
       <use xlink:href="#DejaVuSans-50"/>
       <use x="63.623047" xlink:href="#DejaVuSans-48"/>
       <use x="127.246094" xlink:href="#DejaVuSans-48"/>
      </g>
     </g>
    </g>
    <g id="xtick_11">
     <g id="line2d_39">
      <path clip-path="url(#p493fc66a56)" d="M 168.488415 246.2 
L 168.488415 165.4 
" style="fill:none;stroke:#b0b0b0;stroke-linecap:square;stroke-width:0.8;"/>
     </g>
     <g id="line2d_40">
      <g>
       <use style="stroke:#000000;stroke-width:0.8;" x="168.488415" xlink:href="#m7d3b53e617" y="246.2"/>
      </g>
     </g>
     <g id="text_25">
      <!-- 400 -->
      <g transform="translate(158.944665 260.798437)scale(0.1 -0.1)">
       <use xlink:href="#DejaVuSans-52"/>
       <use x="63.623047" xlink:href="#DejaVuSans-48"/>
       <use x="127.246094" xlink:href="#DejaVuSans-48"/>
      </g>
     </g>
    </g>
    <g id="text_26">
     <!-- x -->
     <g transform="translate(122.786114 274.476562)scale(0.1 -0.1)">
      <use xlink:href="#DejaVuSans-120"/>
     </g>
    </g>
   </g>
   <g id="matplotlib.axis_6">
    <g id="ytick_9">
     <g id="line2d_41">
      <path clip-path="url(#p493fc66a56)" d="M 47.8 242.528337 
L 203.690978 242.528337 
" style="fill:none;stroke:#b0b0b0;stroke-linecap:square;stroke-width:0.8;"/>
     </g>
     <g id="line2d_42">
      <g>
       <use style="stroke:#000000;stroke-width:0.8;" x="47.8" xlink:href="#m4a0ba43e08" y="242.528337"/>
      </g>
     </g>
     <g id="text_27">
      <!-- −1 -->
      <g transform="translate(26.057813 246.327555)scale(0.1 -0.1)">
       <use xlink:href="#DejaVuSans-8722"/>
       <use x="83.789062" xlink:href="#DejaVuSans-49"/>
      </g>
     </g>
    </g>
    <g id="ytick_10">
     <g id="line2d_43">
      <path clip-path="url(#p493fc66a56)" d="M 47.8 205.800199 
L 203.690978 205.800199 
" style="fill:none;stroke:#b0b0b0;stroke-linecap:square;stroke-width:0.8;"/>
     </g>
     <g id="line2d_44">
      <g>
       <use style="stroke:#000000;stroke-width:0.8;" x="47.8" xlink:href="#m4a0ba43e08" y="205.800199"/>
      </g>
     </g>
     <g id="text_28">
      <!-- 0 -->
      <g transform="translate(34.4375 209.599418)scale(0.1 -0.1)">
       <use xlink:href="#DejaVuSans-48"/>
      </g>
     </g>
    </g>
    <g id="ytick_11">
     <g id="line2d_45">
      <path clip-path="url(#p493fc66a56)" d="M 47.8 169.072062 
L 203.690978 169.072062 
" style="fill:none;stroke:#b0b0b0;stroke-linecap:square;stroke-width:0.8;"/>
     </g>
     <g id="line2d_46">
      <g>
       <use style="stroke:#000000;stroke-width:0.8;" x="47.8" xlink:href="#m4a0ba43e08" y="169.072062"/>
      </g>
     </g>
     <g id="text_29">
      <!-- 1 -->
      <g transform="translate(34.4375 172.871281)scale(0.1 -0.1)">
       <use xlink:href="#DejaVuSans-49"/>
      </g>
     </g>
    </g>
    <g id="text_30">
     <!-- sin(x) -->
     <g transform="translate(19.978125 219.823437)rotate(-90)scale(0.1 -0.1)">
      <defs>
       <path d="M 44.28125 53.078125 
L 44.28125 44.578125 
Q 40.484375 46.53125 36.375 47.5 
Q 32.28125 48.484375 27.875 48.484375 
Q 21.1875 48.484375 17.84375 46.4375 
Q 14.5 44.390625 14.5 40.28125 
Q 14.5 37.15625 16.890625 35.375 
Q 19.28125 33.59375 26.515625 31.984375 
L 29.59375 31.296875 
Q 39.15625 29.25 43.1875 25.515625 
Q 47.21875 21.78125 47.21875 15.09375 
Q 47.21875 7.46875 41.1875 3.015625 
Q 35.15625 -1.421875 24.609375 -1.421875 
Q 20.21875 -1.421875 15.453125 -0.5625 
Q 10.6875 0.296875 5.421875 2 
L 5.421875 11.28125 
Q 10.40625 8.6875 15.234375 7.390625 
Q 20.0625 6.109375 24.8125 6.109375 
Q 31.15625 6.109375 34.5625 8.28125 
Q 37.984375 10.453125 37.984375 14.40625 
Q 37.984375 18.0625 35.515625 20.015625 
Q 33.0625 21.96875 24.703125 23.78125 
L 21.578125 24.515625 
Q 13.234375 26.265625 9.515625 29.90625 
Q 5.8125 33.546875 5.8125 39.890625 
Q 5.8125 47.609375 11.28125 51.796875 
Q 16.75 56 26.8125 56 
Q 31.78125 56 36.171875 55.265625 
Q 40.578125 54.546875 44.28125 53.078125 
z
" id="DejaVuSans-115"/>
       <path d="M 9.421875 54.6875 
L 18.40625 54.6875 
L 18.40625 0 
L 9.421875 0 
z
M 9.421875 75.984375 
L 18.40625 75.984375 
L 18.40625 64.59375 
L 9.421875 64.59375 
z
" id="DejaVuSans-105"/>
       <path d="M 54.890625 33.015625 
L 54.890625 0 
L 45.90625 0 
L 45.90625 32.71875 
Q 45.90625 40.484375 42.875 44.328125 
Q 39.84375 48.1875 33.796875 48.1875 
Q 26.515625 48.1875 22.3125 43.546875 
Q 18.109375 38.921875 18.109375 30.90625 
L 18.109375 0 
L 9.078125 0 
L 9.078125 54.6875 
L 18.109375 54.6875 
L 18.109375 46.1875 
Q 21.34375 51.125 25.703125 53.5625 
Q 30.078125 56 35.796875 56 
Q 45.21875 56 50.046875 50.171875 
Q 54.890625 44.34375 54.890625 33.015625 
z
" id="DejaVuSans-110"/>
      </defs>
      <use xlink:href="#DejaVuSans-115"/>
      <use x="52.099609" xlink:href="#DejaVuSans-105"/>
      <use x="79.882812" xlink:href="#DejaVuSans-110"/>
      <use x="143.261719" xlink:href="#DejaVuSans-40"/>
      <use x="182.275391" xlink:href="#DejaVuSans-120"/>
      <use x="241.455078" xlink:href="#DejaVuSans-41"/>
     </g>
    </g>
   </g>
   <g id="line2d_47">
    <path clip-path="url(#p493fc66a56)" d="M 54.885954 205.800199 
L 59.998064 192.861823 
L 62.838126 186.29072 
L 65.110175 181.582229 
L 67.098218 177.966054 
L 68.802255 175.297578 
L 70.506292 173.067813 
L 71.926323 171.56814 
L 73.346354 170.410502 
L 74.482378 169.738548 
L 75.618403 169.297266 
L 76.754427 169.089477 
L 77.890452 169.116513 
L 79.026477 169.378198 
L 80.162501 169.87286 
L 81.298526 170.597335 
L 82.718557 171.818904 
L 84.138588 173.380003 
L 85.558618 175.265034 
L 87.262655 177.927925 
L 88.966692 180.991695 
L 90.954735 185.013681 
L 93.226784 190.103332 
L 96.066846 197.013017 
L 102.314981 213.039615 
L 105.723055 221.391219 
L 108.279111 227.092903 
L 110.267154 231.060569 
L 112.255197 234.53394 
L 113.959234 237.065886 
L 115.379265 238.833685 
L 116.799295 240.271424 
L 118.219326 241.364738 
L 119.355351 241.983944 
L 120.491375 242.371697 
L 121.6274 242.525518 
L 122.763425 242.444422 
L 123.899449 242.128928 
L 125.035474 241.581054 
L 126.171498 240.804304 
L 127.591529 239.519218 
L 129.01156 237.897222 
L 130.431591 235.954523 
L 132.135628 233.227502 
L 134.123671 229.550474 
L 136.39572 224.783704 
L 138.951775 218.848001 
L 142.359849 210.313132 
L 149.744009 191.605417 
L 152.300065 185.770261 
L 154.572114 181.12138 
L 156.560157 177.56708 
L 158.264194 174.957904 
L 159.684225 173.121045 
L 161.104255 171.610706 
L 162.524286 170.441976 
L 163.660311 169.760917 
L 164.796335 169.310386 
L 165.93236 169.093266 
L 167.068385 169.110945 
L 168.204409 169.363309 
L 169.340434 169.848746 
L 170.476459 170.564149 
L 171.896489 171.774684 
L 173.31652 173.325191 
L 174.736551 175.200177 
L 176.440588 177.851878 
L 178.144625 180.905553 
L 180.132668 184.917336 
L 182.404717 189.997644 
L 185.244779 196.899469 
L 190.924902 211.47835 
L 194.616982 220.616077 
L 196.605025 225.160776 
L 196.605025 225.160776 
" style="fill:none;stroke:#1f77b4;stroke-linecap:square;stroke-width:1.5;"/>
   </g>
   <g id="patch_13">
    <path d="M 47.8 246.2 
L 47.8 165.4 
" style="fill:none;stroke:#000000;stroke-linecap:square;stroke-linejoin:miter;stroke-width:0.8;"/>
   </g>
   <g id="patch_14">
    <path d="M 203.690978 246.2 
L 203.690978 165.4 
" style="fill:none;stroke:#000000;stroke-linecap:square;stroke-linejoin:miter;stroke-width:0.8;"/>
   </g>
   <g id="patch_15">
    <path d="M 47.8 246.2 
L 203.690978 246.2 
" style="fill:none;stroke:#000000;stroke-linecap:square;stroke-linejoin:miter;stroke-width:0.8;"/>
   </g>
   <g id="patch_16">
    <path d="M 47.8 165.4 
L 203.690978 165.4 
" style="fill:none;stroke:#000000;stroke-linecap:square;stroke-linejoin:miter;stroke-width:0.8;"/>
   </g>
   <g id="text_31">
    <!-- Входной сигнал -->
    <g transform="translate(75.072677 159.4)scale(0.12 -0.12)">
     <defs>
      <path d="M 19.671875 34.8125 
L 19.671875 8.109375 
L 35.5 8.109375 
Q 43.453125 8.109375 47.28125 11.40625 
Q 51.125 14.703125 51.125 21.484375 
Q 51.125 28.328125 47.28125 31.5625 
Q 43.453125 34.8125 35.5 34.8125 
z
M 19.671875 64.796875 
L 19.671875 42.828125 
L 34.28125 42.828125 
Q 41.5 42.828125 45.03125 45.53125 
Q 48.578125 48.25 48.578125 53.8125 
Q 48.578125 59.328125 45.03125 62.0625 
Q 41.5 64.796875 34.28125 64.796875 
z
M 9.8125 72.90625 
L 35.015625 72.90625 
Q 46.296875 72.90625 52.390625 68.21875 
Q 58.5 63.53125 58.5 54.890625 
Q 58.5 48.1875 55.375 44.234375 
Q 52.25 40.28125 46.1875 39.3125 
Q 53.46875 37.75 57.5 32.78125 
Q 61.53125 27.828125 61.53125 20.40625 
Q 61.53125 10.640625 54.890625 5.3125 
Q 48.25 0 35.984375 0 
L 9.8125 0 
z
" id="DejaVuSans-1042"/>
      <path d="M 54.890625 54.6875 
L 35.109375 28.078125 
L 55.90625 0 
L 45.3125 0 
L 29.390625 21.484375 
L 13.484375 0 
L 2.875 0 
L 24.125 28.609375 
L 4.6875 54.6875 
L 15.28125 54.6875 
L 29.78125 35.203125 
L 44.28125 54.6875 
z
" id="DejaVuSans-1093"/>
      <path d="M 55.90625 54.6875 
L 55.90625 0 
L 46.96875 0 
L 46.96875 43.890625 
L 20.609375 0 
L 9.078125 0 
L 9.078125 54.6875 
L 18.015625 54.6875 
L 18.015625 10.890625 
L 44.34375 54.6875 
z
M 17.21875 75.515625 
L 22.984375 75.515625 
Q 23.515625 71.859375 25.875 70.015625 
Q 28.25 68.1875 32.5 68.1875 
Q 36.703125 68.1875 39.046875 70 
Q 41.390625 71.8125 42.015625 75.515625 
L 47.78125 75.515625 
Q 47.296875 68.53125 43.4375 65.015625 
Q 39.578125 61.5 32.5 61.5 
Q 25.421875 61.5 21.5625 65.015625 
Q 17.703125 68.53125 17.21875 75.515625 
z
" id="DejaVuSans-1081"/>
      <path d="M 3.71875 0 
L 3.71875 7.46875 
Q 12.59375 8.84375 15.328125 14.984375 
Q 18.65625 23.640625 18.65625 45.75 
L 18.65625 54.6875 
L 55.609375 54.6875 
L 55.609375 0 
L 46.625 0 
L 46.625 47.515625 
L 27.640625 47.515625 
L 27.640625 42.09375 
Q 27.640625 21 23.34375 11.53125 
Q 18.75 1.421875 3.71875 0 
z
" id="DejaVuSans-1083"/>
     </defs>
     <use xlink:href="#DejaVuSans-1042"/>
     <use x="68.603516" xlink:href="#DejaVuSans-1093"/>
     <use x="127.783203" xlink:href="#DejaVuSans-1086"/>
     <use x="188.964844" xlink:href="#DejaVuSans-1076"/>
     <use x="258.105469" xlink:href="#DejaVuSans-1085"/>
     <use x="323.486328" xlink:href="#DejaVuSans-1086"/>
     <use x="384.667969" xlink:href="#DejaVuSans-1081"/>
     <use x="449.658203" xlink:href="#DejaVuSans-32"/>
     <use x="481.445312" xlink:href="#DejaVuSans-1089"/>
     <use x="536.425781" xlink:href="#DejaVuSans-1080"/>
     <use x="601.416016" xlink:href="#DejaVuSans-1075"/>
     <use x="653.955078" xlink:href="#DejaVuSans-1085"/>
     <use x="719.335938" xlink:href="#DejaVuSans-1072"/>
     <use x="780.615234" xlink:href="#DejaVuSans-1083"/>
    </g>
   </g>
  </g>
  <g id="axes_4">
   <g id="patch_17">
    <path d="M 265.309022 246.2 
L 421.2 246.2 
L 421.2 165.4 
L 265.309022 165.4 
z
" style="fill:#ffffff;"/>
   </g>
   <g id="matplotlib.axis_7">
    <g id="xtick_12">
     <g id="line2d_48">
      <path clip-path="url(#p8515696ebd)" d="M 272.394975 246.2 
L 272.394975 165.4 
" style="fill:none;stroke:#b0b0b0;stroke-linecap:square;stroke-width:0.8;"/>
     </g>
     <g id="line2d_49">
      <g>
       <use style="stroke:#000000;stroke-width:0.8;" x="272.394975" xlink:href="#m7d3b53e617" y="246.2"/>
      </g>
     </g>
     <g id="text_32">
      <!-- 0 -->
      <g transform="translate(269.213725 260.798437)scale(0.1 -0.1)">
       <use xlink:href="#DejaVuSans-48"/>
      </g>
     </g>
    </g>
    <g id="xtick_13">
     <g id="line2d_50">
      <path clip-path="url(#p8515696ebd)" d="M 329.196206 246.2 
L 329.196206 165.4 
" style="fill:none;stroke:#b0b0b0;stroke-linecap:square;stroke-width:0.8;"/>
     </g>
     <g id="line2d_51">
      <g>
       <use style="stroke:#000000;stroke-width:0.8;" x="329.196206" xlink:href="#m7d3b53e617" y="246.2"/>
      </g>
     </g>
     <g id="text_33">
      <!-- 200 -->
      <g transform="translate(319.652456 260.798437)scale(0.1 -0.1)">
       <use xlink:href="#DejaVuSans-50"/>
       <use x="63.623047" xlink:href="#DejaVuSans-48"/>
       <use x="127.246094" xlink:href="#DejaVuSans-48"/>
      </g>
     </g>
    </g>
    <g id="xtick_14">
     <g id="line2d_52">
      <path clip-path="url(#p8515696ebd)" d="M 385.997437 246.2 
L 385.997437 165.4 
" style="fill:none;stroke:#b0b0b0;stroke-linecap:square;stroke-width:0.8;"/>
     </g>
     <g id="line2d_53">
      <g>
       <use style="stroke:#000000;stroke-width:0.8;" x="385.997437" xlink:href="#m7d3b53e617" y="246.2"/>
      </g>
     </g>
     <g id="text_34">
      <!-- 400 -->
      <g transform="translate(376.453687 260.798437)scale(0.1 -0.1)">
       <use xlink:href="#DejaVuSans-52"/>
       <use x="63.623047" xlink:href="#DejaVuSans-48"/>
       <use x="127.246094" xlink:href="#DejaVuSans-48"/>
      </g>
     </g>
    </g>
    <g id="text_35">
     <!-- x -->
     <g transform="translate(340.295136 274.476562)scale(0.1 -0.1)">
      <use xlink:href="#DejaVuSans-120"/>
     </g>
    </g>
   </g>
   <g id="matplotlib.axis_8">
    <g id="ytick_12">
     <g id="line2d_54">
      <path clip-path="url(#p8515696ebd)" d="M 265.309022 242.894146 
L 421.2 242.894146 
" style="fill:none;stroke:#b0b0b0;stroke-linecap:square;stroke-width:0.8;"/>
     </g>
     <g id="line2d_55">
      <g>
       <use style="stroke:#000000;stroke-width:0.8;" x="265.309022" xlink:href="#m4a0ba43e08" y="242.894146"/>
      </g>
     </g>
     <g id="text_36">
      <!-- −1 -->
      <g transform="translate(243.566834 246.693365)scale(0.1 -0.1)">
       <use xlink:href="#DejaVuSans-8722"/>
       <use x="83.789062" xlink:href="#DejaVuSans-49"/>
      </g>
     </g>
    </g>
    <g id="ytick_13">
     <g id="line2d_56">
      <path clip-path="url(#p8515696ebd)" d="M 265.309022 205.810153 
L 421.2 205.810153 
" style="fill:none;stroke:#b0b0b0;stroke-linecap:square;stroke-width:0.8;"/>
     </g>
     <g id="line2d_57">
      <g>
       <use style="stroke:#000000;stroke-width:0.8;" x="265.309022" xlink:href="#m4a0ba43e08" y="205.810153"/>
      </g>
     </g>
     <g id="text_37">
      <!-- 0 -->
      <g transform="translate(251.946522 209.609372)scale(0.1 -0.1)">
       <use xlink:href="#DejaVuSans-48"/>
      </g>
     </g>
    </g>
    <g id="ytick_14">
     <g id="line2d_58">
      <path clip-path="url(#p8515696ebd)" d="M 265.309022 168.72616 
L 421.2 168.72616 
" style="fill:none;stroke:#b0b0b0;stroke-linecap:square;stroke-width:0.8;"/>
     </g>
     <g id="line2d_59">
      <g>
       <use style="stroke:#000000;stroke-width:0.8;" x="265.309022" xlink:href="#m4a0ba43e08" y="168.72616"/>
      </g>
     </g>
     <g id="text_38">
      <!-- 1 -->
      <g transform="translate(251.946522 172.525378)scale(0.1 -0.1)">
       <use xlink:href="#DejaVuSans-49"/>
      </g>
     </g>
    </g>
    <g id="text_39">
     <!-- sin(x) -->
     <g transform="translate(237.487147 219.823437)rotate(-90)scale(0.1 -0.1)">
      <use xlink:href="#DejaVuSans-115"/>
      <use x="52.099609" xlink:href="#DejaVuSans-105"/>
      <use x="79.882812" xlink:href="#DejaVuSans-110"/>
      <use x="143.261719" xlink:href="#DejaVuSans-40"/>
      <use x="182.275391" xlink:href="#DejaVuSans-120"/>
      <use x="241.455078" xlink:href="#DejaVuSans-41"/>
     </g>
    </g>
   </g>
   <g id="line2d_60">
    <path clip-path="url(#p8515696ebd)" d="M 272.394975 205.810153 
L 272.962987 205.665035 
L 273.815006 205.129956 
L 274.667024 204.277622 
L 275.803049 202.751723 
L 277.22308 200.381102 
L 279.211123 196.512039 
L 287.447301 179.730257 
L 289.435344 176.445467 
L 291.139381 174.048497 
L 292.559412 172.381468 
L 293.979443 171.037485 
L 295.399474 170.033084 
L 296.535498 169.482443 
L 297.671523 169.161425 
L 298.807548 169.072727 
L 299.943572 169.21741 
L 301.079597 169.594926 
L 302.215621 170.203148 
L 303.351646 171.038409 
L 304.771677 172.393738 
L 306.191708 174.082329 
L 307.611738 176.087486 
L 309.315775 178.8833 
L 311.303818 182.63104 
L 313.575868 187.464548 
L 316.131923 193.455545 
L 319.824003 202.76005 
L 326.356145 219.321663 
L 329.196206 225.835194 
L 331.468255 230.482684 
L 333.456298 234.035894 
L 335.160335 236.644249 
L 336.580366 238.480513 
L 338.000397 239.990345 
L 339.420428 241.15866 
L 340.556452 241.839457 
L 341.692477 242.289789 
L 342.828502 242.506776 
L 343.964526 242.48903 
L 345.100551 242.236664 
L 346.236575 241.751293 
L 347.3726 241.036021 
L 348.792631 239.825741 
L 350.212662 238.275589 
L 351.632692 236.401052 
L 353.336729 233.750011 
L 355.040766 230.697118 
L 357.028809 226.686386 
L 359.300859 221.607436 
L 362.14092 214.707494 
L 367.821043 200.132704 
L 371.513123 190.997617 
L 374.069179 185.222006 
L 376.341228 180.641268 
L 378.329271 177.156932 
L 380.033308 174.614323 
L 381.453339 172.836865 
L 382.873369 171.388864 
L 384.2934 170.28479 
L 385.429425 169.656688 
L 386.565449 169.259846 
L 387.701474 169.096801 
L 388.837499 169.168596 
L 389.973523 169.474772 
L 391.109548 170.01337 
L 392.245573 170.780946 
L 393.665603 172.054798 
L 395.085634 173.665922 
L 396.505665 175.598221 
L 398.209702 178.313531 
L 400.197745 181.978167 
L 402.185788 186.109148 
L 404.741843 191.974664 
L 408.149917 200.455817 
L 414.114046 215.733187 
L 414.114046 215.733187 
" style="fill:none;stroke:#1f77b4;stroke-linecap:square;stroke-width:1.5;"/>
   </g>
   <g id="patch_18">
    <path d="M 265.309022 246.2 
L 265.309022 165.4 
" style="fill:none;stroke:#000000;stroke-linecap:square;stroke-linejoin:miter;stroke-width:0.8;"/>
   </g>
   <g id="patch_19">
    <path d="M 421.2 246.2 
L 421.2 165.4 
" style="fill:none;stroke:#000000;stroke-linecap:square;stroke-linejoin:miter;stroke-width:0.8;"/>
   </g>
   <g id="patch_20">
    <path d="M 265.309022 246.2 
L 421.2 246.2 
" style="fill:none;stroke:#000000;stroke-linecap:square;stroke-linejoin:miter;stroke-width:0.8;"/>
   </g>
   <g id="patch_21">
    <path d="M 265.309022 165.4 
L 421.2 165.4 
" style="fill:none;stroke:#000000;stroke-linecap:square;stroke-linejoin:miter;stroke-width:0.8;"/>
   </g>
   <g id="text_40">
    <!-- Выходной сигнал -->
    <g transform="translate(287.844511 159.4)scale(0.12 -0.12)">
     <defs>
      <path d="M 61.046875 54.6875 
L 70.03125 54.6875 
L 70.03125 0 
L 61.046875 0 
z
M 65.546875 56 
z
M 43.453125 16.21875 
Q 43.453125 20.609375 40.25 22.90625 
Q 37.0625 25.203125 30.90625 25.203125 
L 18.109375 25.203125 
L 18.109375 7.171875 
L 30.90625 7.171875 
Q 37.0625 7.171875 40.25 9.484375 
Q 43.453125 11.8125 43.453125 16.21875 
z
M 9.078125 54.6875 
L 18.109375 54.6875 
L 18.109375 32.375 
L 31.296875 32.375 
Q 41.75 32.375 47.390625 28.390625 
Q 53.03125 24.421875 53.03125 16.21875 
Q 53.03125 8.015625 47.390625 4 
Q 41.75 0 31.296875 0 
L 9.078125 0 
z
" id="DejaVuSans-1099"/>
     </defs>
     <use xlink:href="#DejaVuSans-1042"/>
     <use x="68.603516" xlink:href="#DejaVuSans-1099"/>
     <use x="147.558594" xlink:href="#DejaVuSans-1093"/>
     <use x="206.738281" xlink:href="#DejaVuSans-1086"/>
     <use x="267.919922" xlink:href="#DejaVuSans-1076"/>
     <use x="337.060547" xlink:href="#DejaVuSans-1085"/>
     <use x="402.441406" xlink:href="#DejaVuSans-1086"/>
     <use x="463.623047" xlink:href="#DejaVuSans-1081"/>
     <use x="528.613281" xlink:href="#DejaVuSans-32"/>
     <use x="560.400391" xlink:href="#DejaVuSans-1089"/>
     <use x="615.380859" xlink:href="#DejaVuSans-1080"/>
     <use x="680.371094" xlink:href="#DejaVuSans-1075"/>
     <use x="732.910156" xlink:href="#DejaVuSans-1085"/>
     <use x="798.291016" xlink:href="#DejaVuSans-1072"/>
     <use x="859.570312" xlink:href="#DejaVuSans-1083"/>
    </g>
   </g>
  </g>
 </g>
 <defs>
  <clipPath id="p0589bde844">
   <rect height="80.8" width="264.645489" x="156.554511" y="26.8"/>
  </clipPath>
  <clipPath id="pdb1d49c8cb">
   <rect height="80.8" width="47.136468" x="47.8" y="26.8"/>
  </clipPath>
  <clipPath id="p493fc66a56">
   <rect height="80.8" width="155.890978" x="47.8" y="165.4"/>
  </clipPath>
  <clipPath id="p8515696ebd">
   <rect height="80.8" width="155.890978" x="265.309022" y="165.4"/>
  </clipPath>
 </defs>
</svg>
