<?xml version="1.0" encoding="utf-8" standalone="no"?>
<!DOCTYPE svg PUBLIC "-//W3C//DTD SVG 1.1//EN"
  "http://www.w3.org/Graphics/SVG/1.1/DTD/svg11.dtd">
<!-- Created with matplotlib (https://matplotlib.org/) -->
<svg height="288pt" version="1.1" viewBox="0 0 432 288" width="432pt" xmlns="http://www.w3.org/2000/svg" xmlns:xlink="http://www.w3.org/1999/xlink">
 <metadata>
  <rdf:RDF xmlns:cc="http://creativecommons.org/ns#" xmlns:dc="http://purl.org/dc/elements/1.1/" xmlns:rdf="http://www.w3.org/1999/02/22-rdf-syntax-ns#">
   <cc:Work>
    <dc:type rdf:resource="http://purl.org/dc/dcmitype/StillImage"/>
    <dc:date>2021-05-18T20:39:50.674296</dc:date>
    <dc:format>image/svg+xml</dc:format>
    <dc:creator>
     <cc:Agent>
      <dc:title>Matplotlib v3.3.4, https://matplotlib.org/</dc:title>
     </cc:Agent>
    </dc:creator>
   </cc:Work>
  </rdf:RDF>
 </metadata>
 <defs>
  <style type="text/css">*{stroke-linecap:butt;stroke-linejoin:round;}</style>
 </defs>
 <g id="figure_1">
  <g id="patch_1">
   <path d="M 0 288 
L 432 288 
L 432 0 
L 0 0 
z
" style="fill:none;"/>
  </g>
  <g id="axes_1">
   <g id="patch_2">
    <path d="M 158.031944 107.6 
L 421.2 107.6 
L 421.2 26.8 
L 158.031944 26.8 
z
" style="fill:#ffffff;"/>
   </g>
   <g id="matplotlib.axis_1">
    <g id="xtick_1">
     <g id="line2d_1">
      <path clip-path="url(#p36b76a152a)" d="M 169.994128 107.6 
L 169.994128 26.8 
" style="fill:none;stroke:#b0b0b0;stroke-linecap:square;stroke-width:0.8;"/>
     </g>
     <g id="line2d_2">
      <defs>
       <path d="M 0 0 
L 0 3.5 
" id="m50a9eb040b" style="stroke:#000000;stroke-width:0.8;"/>
      </defs>
      <g>
       <use style="stroke:#000000;stroke-width:0.8;" x="169.994128" xlink:href="#m50a9eb040b" y="107.6"/>
      </g>
     </g>
     <g id="text_1">
      <!-- 0 -->
      <g transform="translate(166.812878 122.198437)scale(0.1 -0.1)">
       <defs>
        <path d="M 31.78125 66.40625 
Q 24.171875 66.40625 20.328125 58.90625 
Q 16.5 51.421875 16.5 36.375 
Q 16.5 21.390625 20.328125 13.890625 
Q 24.171875 6.390625 31.78125 6.390625 
Q 39.453125 6.390625 43.28125 13.890625 
Q 47.125 21.390625 47.125 36.375 
Q 47.125 51.421875 43.28125 58.90625 
Q 39.453125 66.40625 31.78125 66.40625 
z
M 31.78125 74.21875 
Q 44.046875 74.21875 50.515625 64.515625 
Q 56.984375 54.828125 56.984375 36.375 
Q 56.984375 17.96875 50.515625 8.265625 
Q 44.046875 -1.421875 31.78125 -1.421875 
Q 19.53125 -1.421875 13.0625 8.265625 
Q 6.59375 17.96875 6.59375 36.375 
Q 6.59375 54.828125 13.0625 64.515625 
Q 19.53125 74.21875 31.78125 74.21875 
z
" id="DejaVuSans-48"/>
       </defs>
       <use xlink:href="#DejaVuSans-48"/>
      </g>
     </g>
    </g>
    <g id="xtick_2">
     <g id="line2d_3">
      <path clip-path="url(#p36b76a152a)" d="M 217.938755 107.6 
L 217.938755 26.8 
" style="fill:none;stroke:#b0b0b0;stroke-linecap:square;stroke-width:0.8;"/>
     </g>
     <g id="line2d_4">
      <g>
       <use style="stroke:#000000;stroke-width:0.8;" x="217.938755" xlink:href="#m50a9eb040b" y="107.6"/>
      </g>
     </g>
     <g id="text_2">
      <!-- 100 -->
      <g transform="translate(208.395005 122.198437)scale(0.1 -0.1)">
       <defs>
        <path d="M 12.40625 8.296875 
L 28.515625 8.296875 
L 28.515625 63.921875 
L 10.984375 60.40625 
L 10.984375 69.390625 
L 28.421875 72.90625 
L 38.28125 72.90625 
L 38.28125 8.296875 
L 54.390625 8.296875 
L 54.390625 0 
L 12.40625 0 
z
" id="DejaVuSans-49"/>
       </defs>
       <use xlink:href="#DejaVuSans-49"/>
       <use x="63.623047" xlink:href="#DejaVuSans-48"/>
       <use x="127.246094" xlink:href="#DejaVuSans-48"/>
      </g>
     </g>
    </g>
    <g id="xtick_3">
     <g id="line2d_5">
      <path clip-path="url(#p36b76a152a)" d="M 265.883382 107.6 
L 265.883382 26.8 
" style="fill:none;stroke:#b0b0b0;stroke-linecap:square;stroke-width:0.8;"/>
     </g>
     <g id="line2d_6">
      <g>
       <use style="stroke:#000000;stroke-width:0.8;" x="265.883382" xlink:href="#m50a9eb040b" y="107.6"/>
      </g>
     </g>
     <g id="text_3">
      <!-- 200 -->
      <g transform="translate(256.339632 122.198437)scale(0.1 -0.1)">
       <defs>
        <path d="M 19.1875 8.296875 
L 53.609375 8.296875 
L 53.609375 0 
L 7.328125 0 
L 7.328125 8.296875 
Q 12.9375 14.109375 22.625 23.890625 
Q 32.328125 33.6875 34.8125 36.53125 
Q 39.546875 41.84375 41.421875 45.53125 
Q 43.3125 49.21875 43.3125 52.78125 
Q 43.3125 58.59375 39.234375 62.25 
Q 35.15625 65.921875 28.609375 65.921875 
Q 23.96875 65.921875 18.8125 64.3125 
Q 13.671875 62.703125 7.8125 59.421875 
L 7.8125 69.390625 
Q 13.765625 71.78125 18.9375 73 
Q 24.125 74.21875 28.421875 74.21875 
Q 39.75 74.21875 46.484375 68.546875 
Q 53.21875 62.890625 53.21875 53.421875 
Q 53.21875 48.921875 51.53125 44.890625 
Q 49.859375 40.875 45.40625 35.40625 
Q 44.1875 33.984375 37.640625 27.21875 
Q 31.109375 20.453125 19.1875 8.296875 
z
" id="DejaVuSans-50"/>
       </defs>
       <use xlink:href="#DejaVuSans-50"/>
       <use x="63.623047" xlink:href="#DejaVuSans-48"/>
       <use x="127.246094" xlink:href="#DejaVuSans-48"/>
      </g>
     </g>
    </g>
    <g id="xtick_4">
     <g id="line2d_7">
      <path clip-path="url(#p36b76a152a)" d="M 313.828008 107.6 
L 313.828008 26.8 
" style="fill:none;stroke:#b0b0b0;stroke-linecap:square;stroke-width:0.8;"/>
     </g>
     <g id="line2d_8">
      <g>
       <use style="stroke:#000000;stroke-width:0.8;" x="313.828008" xlink:href="#m50a9eb040b" y="107.6"/>
      </g>
     </g>
     <g id="text_4">
      <!-- 300 -->
      <g transform="translate(304.284258 122.198437)scale(0.1 -0.1)">
       <defs>
        <path d="M 40.578125 39.3125 
Q 47.65625 37.796875 51.625 33 
Q 55.609375 28.21875 55.609375 21.1875 
Q 55.609375 10.40625 48.1875 4.484375 
Q 40.765625 -1.421875 27.09375 -1.421875 
Q 22.515625 -1.421875 17.65625 -0.515625 
Q 12.796875 0.390625 7.625 2.203125 
L 7.625 11.71875 
Q 11.71875 9.328125 16.59375 8.109375 
Q 21.484375 6.890625 26.8125 6.890625 
Q 36.078125 6.890625 40.9375 10.546875 
Q 45.796875 14.203125 45.796875 21.1875 
Q 45.796875 27.640625 41.28125 31.265625 
Q 36.765625 34.90625 28.71875 34.90625 
L 20.21875 34.90625 
L 20.21875 43.015625 
L 29.109375 43.015625 
Q 36.375 43.015625 40.234375 45.921875 
Q 44.09375 48.828125 44.09375 54.296875 
Q 44.09375 59.90625 40.109375 62.90625 
Q 36.140625 65.921875 28.71875 65.921875 
Q 24.65625 65.921875 20.015625 65.03125 
Q 15.375 64.15625 9.8125 62.3125 
L 9.8125 71.09375 
Q 15.4375 72.65625 20.34375 73.4375 
Q 25.25 74.21875 29.59375 74.21875 
Q 40.828125 74.21875 47.359375 69.109375 
Q 53.90625 64.015625 53.90625 55.328125 
Q 53.90625 49.265625 50.4375 45.09375 
Q 46.96875 40.921875 40.578125 39.3125 
z
" id="DejaVuSans-51"/>
       </defs>
       <use xlink:href="#DejaVuSans-51"/>
       <use x="63.623047" xlink:href="#DejaVuSans-48"/>
       <use x="127.246094" xlink:href="#DejaVuSans-48"/>
      </g>
     </g>
    </g>
    <g id="xtick_5">
     <g id="line2d_9">
      <path clip-path="url(#p36b76a152a)" d="M 361.772635 107.6 
L 361.772635 26.8 
" style="fill:none;stroke:#b0b0b0;stroke-linecap:square;stroke-width:0.8;"/>
     </g>
     <g id="line2d_10">
      <g>
       <use style="stroke:#000000;stroke-width:0.8;" x="361.772635" xlink:href="#m50a9eb040b" y="107.6"/>
      </g>
     </g>
     <g id="text_5">
      <!-- 400 -->
      <g transform="translate(352.228885 122.198437)scale(0.1 -0.1)">
       <defs>
        <path d="M 37.796875 64.3125 
L 12.890625 25.390625 
L 37.796875 25.390625 
z
M 35.203125 72.90625 
L 47.609375 72.90625 
L 47.609375 25.390625 
L 58.015625 25.390625 
L 58.015625 17.1875 
L 47.609375 17.1875 
L 47.609375 0 
L 37.796875 0 
L 37.796875 17.1875 
L 4.890625 17.1875 
L 4.890625 26.703125 
z
" id="DejaVuSans-52"/>
       </defs>
       <use xlink:href="#DejaVuSans-52"/>
       <use x="63.623047" xlink:href="#DejaVuSans-48"/>
       <use x="127.246094" xlink:href="#DejaVuSans-48"/>
      </g>
     </g>
    </g>
    <g id="xtick_6">
     <g id="line2d_11">
      <path clip-path="url(#p36b76a152a)" d="M 409.717262 107.6 
L 409.717262 26.8 
" style="fill:none;stroke:#b0b0b0;stroke-linecap:square;stroke-width:0.8;"/>
     </g>
     <g id="line2d_12">
      <g>
       <use style="stroke:#000000;stroke-width:0.8;" x="409.717262" xlink:href="#m50a9eb040b" y="107.6"/>
      </g>
     </g>
     <g id="text_6">
      <!-- 500 -->
      <g transform="translate(400.173512 122.198437)scale(0.1 -0.1)">
       <defs>
        <path d="M 10.796875 72.90625 
L 49.515625 72.90625 
L 49.515625 64.59375 
L 19.828125 64.59375 
L 19.828125 46.734375 
Q 21.96875 47.46875 24.109375 47.828125 
Q 26.265625 48.1875 28.421875 48.1875 
Q 40.625 48.1875 47.75 41.5 
Q 54.890625 34.8125 54.890625 23.390625 
Q 54.890625 11.625 47.5625 5.09375 
Q 40.234375 -1.421875 26.90625 -1.421875 
Q 22.3125 -1.421875 17.546875 -0.640625 
Q 12.796875 0.140625 7.71875 1.703125 
L 7.71875 11.625 
Q 12.109375 9.234375 16.796875 8.0625 
Q 21.484375 6.890625 26.703125 6.890625 
Q 35.15625 6.890625 40.078125 11.328125 
Q 45.015625 15.765625 45.015625 23.390625 
Q 45.015625 31 40.078125 35.4375 
Q 35.15625 39.890625 26.703125 39.890625 
Q 22.75 39.890625 18.8125 39.015625 
Q 14.890625 38.140625 10.796875 36.28125 
z
" id="DejaVuSans-53"/>
       </defs>
       <use xlink:href="#DejaVuSans-53"/>
       <use x="63.623047" xlink:href="#DejaVuSans-48"/>
       <use x="127.246094" xlink:href="#DejaVuSans-48"/>
      </g>
     </g>
    </g>
    <g id="text_7">
     <!-- t -->
     <g transform="translate(287.655816 135.876562)scale(0.1 -0.1)">
      <defs>
       <path d="M 18.3125 70.21875 
L 18.3125 54.6875 
L 36.8125 54.6875 
L 36.8125 47.703125 
L 18.3125 47.703125 
L 18.3125 18.015625 
Q 18.3125 11.328125 20.140625 9.421875 
Q 21.96875 7.515625 27.59375 7.515625 
L 36.8125 7.515625 
L 36.8125 0 
L 27.59375 0 
Q 17.1875 0 13.234375 3.875 
Q 9.28125 7.765625 9.28125 18.015625 
L 9.28125 47.703125 
L 2.6875 47.703125 
L 2.6875 54.6875 
L 9.28125 54.6875 
L 9.28125 70.21875 
z
" id="DejaVuSans-116"/>
      </defs>
      <use xlink:href="#DejaVuSans-116"/>
     </g>
    </g>
   </g>
   <g id="matplotlib.axis_2">
    <g id="ytick_1">
     <g id="line2d_13">
      <path clip-path="url(#p36b76a152a)" d="M 158.031944 103.927273 
L 421.2 103.927273 
" style="fill:none;stroke:#b0b0b0;stroke-linecap:square;stroke-width:0.8;"/>
     </g>
     <g id="line2d_14">
      <defs>
       <path d="M 0 0 
L -3.5 0 
" id="m834af5ac4a" style="stroke:#000000;stroke-width:0.8;"/>
      </defs>
      <g>
       <use style="stroke:#000000;stroke-width:0.8;" x="158.031944" xlink:href="#m834af5ac4a" y="103.927273"/>
      </g>
     </g>
     <g id="text_8">
      <!-- 0.000 -->
      <g transform="translate(122.403819 107.726491)scale(0.1 -0.1)">
       <defs>
        <path d="M 10.6875 12.40625 
L 21 12.40625 
L 21 0 
L 10.6875 0 
z
" id="DejaVuSans-46"/>
       </defs>
       <use xlink:href="#DejaVuSans-48"/>
       <use x="63.623047" xlink:href="#DejaVuSans-46"/>
       <use x="95.410156" xlink:href="#DejaVuSans-48"/>
       <use x="159.033203" xlink:href="#DejaVuSans-48"/>
       <use x="222.65625" xlink:href="#DejaVuSans-48"/>
      </g>
     </g>
    </g>
    <g id="ytick_2">
     <g id="line2d_15">
      <path clip-path="url(#p36b76a152a)" d="M 158.031944 74.545445 
L 421.2 74.545445 
" style="fill:none;stroke:#b0b0b0;stroke-linecap:square;stroke-width:0.8;"/>
     </g>
     <g id="line2d_16">
      <g>
       <use style="stroke:#000000;stroke-width:0.8;" x="158.031944" xlink:href="#m834af5ac4a" y="74.545445"/>
      </g>
     </g>
     <g id="text_9">
      <!-- 0.002 -->
      <g transform="translate(122.403819 78.344664)scale(0.1 -0.1)">
       <use xlink:href="#DejaVuSans-48"/>
       <use x="63.623047" xlink:href="#DejaVuSans-46"/>
       <use x="95.410156" xlink:href="#DejaVuSans-48"/>
       <use x="159.033203" xlink:href="#DejaVuSans-48"/>
       <use x="222.65625" xlink:href="#DejaVuSans-50"/>
      </g>
     </g>
    </g>
    <g id="ytick_3">
     <g id="line2d_17">
      <path clip-path="url(#p36b76a152a)" d="M 158.031944 45.163618 
L 421.2 45.163618 
" style="fill:none;stroke:#b0b0b0;stroke-linecap:square;stroke-width:0.8;"/>
     </g>
     <g id="line2d_18">
      <g>
       <use style="stroke:#000000;stroke-width:0.8;" x="158.031944" xlink:href="#m834af5ac4a" y="45.163618"/>
      </g>
     </g>
     <g id="text_10">
      <!-- 0.004 -->
      <g transform="translate(122.403819 48.962836)scale(0.1 -0.1)">
       <use xlink:href="#DejaVuSans-48"/>
       <use x="63.623047" xlink:href="#DejaVuSans-46"/>
       <use x="95.410156" xlink:href="#DejaVuSans-48"/>
       <use x="159.033203" xlink:href="#DejaVuSans-48"/>
       <use x="222.65625" xlink:href="#DejaVuSans-52"/>
      </g>
     </g>
    </g>
    <g id="text_11">
     <!-- h(t) -->
     <g transform="translate(116.324131 76.230469)rotate(-90)scale(0.1 -0.1)">
      <defs>
       <path d="M 54.890625 33.015625 
L 54.890625 0 
L 45.90625 0 
L 45.90625 32.71875 
Q 45.90625 40.484375 42.875 44.328125 
Q 39.84375 48.1875 33.796875 48.1875 
Q 26.515625 48.1875 22.3125 43.546875 
Q 18.109375 38.921875 18.109375 30.90625 
L 18.109375 0 
L 9.078125 0 
L 9.078125 75.984375 
L 18.109375 75.984375 
L 18.109375 46.1875 
Q 21.34375 51.125 25.703125 53.5625 
Q 30.078125 56 35.796875 56 
Q 45.21875 56 50.046875 50.171875 
Q 54.890625 44.34375 54.890625 33.015625 
z
" id="DejaVuSans-104"/>
       <path d="M 31 75.875 
Q 24.46875 64.65625 21.28125 53.65625 
Q 18.109375 42.671875 18.109375 31.390625 
Q 18.109375 20.125 21.3125 9.0625 
Q 24.515625 -2 31 -13.1875 
L 23.1875 -13.1875 
Q 15.875 -1.703125 12.234375 9.375 
Q 8.59375 20.453125 8.59375 31.390625 
Q 8.59375 42.28125 12.203125 53.3125 
Q 15.828125 64.359375 23.1875 75.875 
z
" id="DejaVuSans-40"/>
       <path d="M 8.015625 75.875 
L 15.828125 75.875 
Q 23.140625 64.359375 26.78125 53.3125 
Q 30.421875 42.28125 30.421875 31.390625 
Q 30.421875 20.453125 26.78125 9.375 
Q 23.140625 -1.703125 15.828125 -13.1875 
L 8.015625 -13.1875 
Q 14.5 -2 17.703125 9.0625 
Q 20.90625 20.125 20.90625 31.390625 
Q 20.90625 42.671875 17.703125 53.65625 
Q 14.5 64.65625 8.015625 75.875 
z
" id="DejaVuSans-41"/>
      </defs>
      <use xlink:href="#DejaVuSans-104"/>
      <use x="63.378906" xlink:href="#DejaVuSans-40"/>
      <use x="102.392578" xlink:href="#DejaVuSans-116"/>
      <use x="141.601562" xlink:href="#DejaVuSans-41"/>
     </g>
    </g>
   </g>
   <g id="line2d_19">
    <path clip-path="url(#p36b76a152a)" d="M 169.994128 103.927273 
L 181.980285 85.754322 
L 188.692533 76.000697 
L 193.966442 68.711277 
L 198.760904 62.451703 
L 203.075921 57.170709 
L 206.911491 52.792959 
L 210.747061 48.742295 
L 214.103185 45.486699 
L 217.459309 42.517345 
L 220.815432 39.848777 
L 224.171556 37.494065 
L 227.048234 35.734331 
L 229.924912 34.220017 
L 232.801589 32.956574 
L 235.678267 31.948549 
L 238.554944 31.199569 
L 241.431622 30.712331 
L 244.3083 30.488587 
L 247.184977 30.529144 
L 250.061655 30.833854 
L 252.938332 31.401622 
L 255.81501 32.230404 
L 258.691688 33.317217 
L 261.568365 34.65815 
L 264.445043 36.248378 
L 267.32172 38.082176 
L 270.198398 40.152945 
L 273.554522 42.858359 
L 276.910646 45.862889 
L 280.26677 49.151818 
L 284.10234 53.238112 
L 287.93791 57.648645 
L 292.252926 62.962856 
L 297.047389 69.254473 
L 302.321298 76.572862 
L 308.554099 85.640994 
L 316.704686 97.940567 
L 320.540256 103.810285 
L 321.019702 103.927273 
L 409.237816 103.927273 
L 409.237816 103.927273 
" style="fill:none;stroke:#1f77b4;stroke-linecap:square;stroke-width:1.5;"/>
   </g>
   <g id="patch_3">
    <path d="M 158.031944 107.6 
L 158.031944 26.8 
" style="fill:none;stroke:#000000;stroke-linecap:square;stroke-linejoin:miter;stroke-width:0.8;"/>
   </g>
   <g id="patch_4">
    <path d="M 421.2 107.6 
L 421.2 26.8 
" style="fill:none;stroke:#000000;stroke-linecap:square;stroke-linejoin:miter;stroke-width:0.8;"/>
   </g>
   <g id="patch_5">
    <path d="M 158.031944 107.6 
L 421.2 107.6 
" style="fill:none;stroke:#000000;stroke-linecap:square;stroke-linejoin:miter;stroke-width:0.8;"/>
   </g>
   <g id="patch_6">
    <path d="M 158.031944 26.8 
L 421.2 26.8 
" style="fill:none;stroke:#000000;stroke-linecap:square;stroke-linejoin:miter;stroke-width:0.8;"/>
   </g>
   <g id="text_12">
    <!-- Чёрный ящик -->
    <g transform="translate(246.751597 20.8)scale(0.12 -0.12)">
     <defs>
      <path d="M 48.828125 0 
L 48.828125 29.890625 
L 28.46875 29.890625 
Q 19.390625 29.890625 13.96875 35.578125 
Q 8.546875 41.265625 8.546875 52.875 
L 8.546875 72.90625 
L 18.359375 72.90625 
L 18.359375 53.65625 
Q 18.359375 45.90625 21.390625 42.046875 
Q 24.421875 38.1875 30.46875 38.1875 
L 48.828125 38.1875 
L 48.828125 72.90625 
L 58.734375 72.90625 
L 58.734375 0 
z
" id="DejaVuSans-1063"/>
      <path d="M 56.203125 29.59375 
L 56.203125 25.203125 
L 14.890625 25.203125 
Q 15.484375 15.921875 20.484375 11.0625 
Q 25.484375 6.203125 34.421875 6.203125 
Q 39.59375 6.203125 44.453125 7.46875 
Q 49.3125 8.734375 54.109375 11.28125 
L 54.109375 2.78125 
Q 49.265625 0.734375 44.1875 -0.34375 
Q 39.109375 -1.421875 33.890625 -1.421875 
Q 20.796875 -1.421875 13.15625 6.1875 
Q 5.515625 13.8125 5.515625 26.8125 
Q 5.515625 40.234375 12.765625 48.109375 
Q 20.015625 56 32.328125 56 
Q 43.359375 56 49.78125 48.890625 
Q 56.203125 41.796875 56.203125 29.59375 
z
M 47.21875 32.234375 
Q 47.125 39.59375 43.09375 43.984375 
Q 39.0625 48.390625 32.421875 48.390625 
Q 24.90625 48.390625 20.390625 44.140625 
Q 15.875 39.890625 15.1875 32.171875 
z
M 36.96875 75.78125 
L 46.875 75.78125 
L 46.875 65.921875 
L 36.96875 65.921875 
z
M 17.875 75.78125 
L 27.78125 75.78125 
L 27.78125 65.921875 
L 17.875 65.921875 
z
" id="DejaVuSans-1105"/>
      <path d="M 18.109375 8.203125 
L 18.109375 -20.796875 
L 9.078125 -20.796875 
L 9.078125 54.6875 
L 18.109375 54.6875 
L 18.109375 46.390625 
Q 20.953125 51.265625 25.265625 53.625 
Q 29.59375 56 35.59375 56 
Q 45.5625 56 51.78125 48.09375 
Q 58.015625 40.1875 58.015625 27.296875 
Q 58.015625 14.40625 51.78125 6.484375 
Q 45.5625 -1.421875 35.59375 -1.421875 
Q 29.59375 -1.421875 25.265625 0.953125 
Q 20.953125 3.328125 18.109375 8.203125 
z
M 48.6875 27.296875 
Q 48.6875 37.203125 44.609375 42.84375 
Q 40.53125 48.484375 33.40625 48.484375 
Q 26.265625 48.484375 22.1875 42.84375 
Q 18.109375 37.203125 18.109375 27.296875 
Q 18.109375 17.390625 22.1875 11.75 
Q 26.265625 6.109375 33.40625 6.109375 
Q 40.53125 6.109375 44.609375 11.75 
Q 48.6875 17.390625 48.6875 27.296875 
z
" id="DejaVuSans-1088"/>
      <path d="M 9.078125 54.6875 
L 18.109375 54.6875 
L 18.109375 32.375 
L 47.265625 32.375 
L 47.265625 54.6875 
L 56.296875 54.6875 
L 56.296875 0 
L 47.265625 0 
L 47.265625 25.203125 
L 18.109375 25.203125 
L 18.109375 0 
L 9.078125 0 
z
" id="DejaVuSans-1085"/>
      <path d="M 61.046875 54.6875 
L 70.03125 54.6875 
L 70.03125 0 
L 61.046875 0 
z
M 65.546875 56 
z
M 43.453125 16.21875 
Q 43.453125 20.609375 40.25 22.90625 
Q 37.0625 25.203125 30.90625 25.203125 
L 18.109375 25.203125 
L 18.109375 7.171875 
L 30.90625 7.171875 
Q 37.0625 7.171875 40.25 9.484375 
Q 43.453125 11.8125 43.453125 16.21875 
z
M 9.078125 54.6875 
L 18.109375 54.6875 
L 18.109375 32.375 
L 31.296875 32.375 
Q 41.75 32.375 47.390625 28.390625 
Q 53.03125 24.421875 53.03125 16.21875 
Q 53.03125 8.015625 47.390625 4 
Q 41.75 0 31.296875 0 
L 9.078125 0 
z
" id="DejaVuSans-1099"/>
      <path d="M 55.90625 54.6875 
L 55.90625 0 
L 46.96875 0 
L 46.96875 43.890625 
L 20.609375 0 
L 9.078125 0 
L 9.078125 54.6875 
L 18.015625 54.6875 
L 18.015625 10.890625 
L 44.34375 54.6875 
z
M 17.21875 75.515625 
L 22.984375 75.515625 
Q 23.515625 71.859375 25.875 70.015625 
Q 28.25 68.1875 32.5 68.1875 
Q 36.703125 68.1875 39.046875 70 
Q 41.390625 71.8125 42.015625 75.515625 
L 47.78125 75.515625 
Q 47.296875 68.53125 43.4375 65.015625 
Q 39.578125 61.5 32.5 61.5 
Q 25.421875 61.5 21.5625 65.015625 
Q 17.703125 68.53125 17.21875 75.515625 
z
" id="DejaVuSans-1081"/>
      <path id="DejaVuSans-32"/>
      <path d="M 18.453125 38.921875 
Q 18.453125 34.859375 21.578125 32.5625 
Q 24.703125 30.28125 30.515625 30.28125 
L 42.625 30.28125 
L 42.625 47.515625 
L 30.515625 47.515625 
Q 24.703125 47.515625 21.578125 45.265625 
Q 18.453125 43.015625 18.453125 38.921875 
z
M 5.671875 0 
L 22.359375 23.96875 
Q 16.703125 25.25 12.9375 28.59375 
Q 9.1875 31.9375 9.1875 38.921875 
Q 9.1875 46.828125 14.421875 50.75 
Q 19.671875 54.6875 30.28125 54.6875 
L 51.65625 54.6875 
L 51.65625 0 
L 42.625 0 
L 42.625 23.09375 
L 31.453125 23.09375 
L 15.328125 0 
z
" id="DejaVuSans-1103"/>
      <path d="M 82.421875 0 
L 9.078125 0 
L 9.078125 54.6875 
L 18.109375 54.6875 
L 18.109375 7.171875 
L 41.21875 7.171875 
L 41.21875 54.6875 
L 50.25 54.6875 
L 50.25 7.171875 
L 73.390625 7.171875 
L 73.390625 54.6875 
L 82.421875 54.6875 
L 82.421875 7.171875 
L 89.59375 7.171875 
L 89.59375 -13.8125 
L 82.421875 -13.8125 
z
" id="DejaVuSans-1097"/>
      <path d="M 55.90625 54.6875 
L 55.90625 0 
L 46.96875 0 
L 46.96875 43.890625 
L 20.609375 0 
L 9.078125 0 
L 9.078125 54.6875 
L 18.015625 54.6875 
L 18.015625 10.890625 
L 44.34375 54.6875 
z
" id="DejaVuSans-1080"/>
      <path d="M 9.078125 54.6875 
L 18.015625 54.6875 
L 18.015625 29 
L 43.359375 54.6875 
L 54.390625 54.6875 
L 33.5 33.546875 
L 57.078125 0 
L 47.015625 0 
L 27.640625 27.59375 
L 18.015625 17.828125 
L 18.015625 0 
L 9.078125 0 
z
" id="DejaVuSans-1082"/>
     </defs>
     <use xlink:href="#DejaVuSans-1063"/>
     <use x="68.554688" xlink:href="#DejaVuSans-1105"/>
     <use x="130.078125" xlink:href="#DejaVuSans-1088"/>
     <use x="193.554688" xlink:href="#DejaVuSans-1085"/>
     <use x="258.935547" xlink:href="#DejaVuSans-1099"/>
     <use x="337.890625" xlink:href="#DejaVuSans-1081"/>
     <use x="402.880859" xlink:href="#DejaVuSans-32"/>
     <use x="434.667969" xlink:href="#DejaVuSans-1103"/>
     <use x="494.824219" xlink:href="#DejaVuSans-1097"/>
     <use x="589.013672" xlink:href="#DejaVuSans-1080"/>
     <use x="654.003906" xlink:href="#DejaVuSans-1082"/>
    </g>
   </g>
  </g>
  <g id="axes_2">
   <g id="patch_7">
    <path d="M 47.675 107.6 
L 90.129169 107.6 
L 90.129169 26.8 
L 47.675 26.8 
z
" style="fill:#ffffff;"/>
   </g>
   <g id="PolyCollection_1">
    <path clip-path="url(#p2a188030f2)" d="M 49.604735 103.927273 
L 49.604735 30.472727 
L 49.99458 30.476397 
L 50.384426 30.487365 
L 50.774271 30.505583 
L 51.164117 30.531003 
L 51.553962 30.563576 
L 51.943808 30.603251 
L 52.333653 30.649978 
L 52.723498 30.703706 
L 53.113344 30.764382 
L 53.503189 30.831955 
L 53.893035 30.90637 
L 54.28288 30.987573 
L 54.672726 31.075511 
L 55.062571 31.170128 
L 55.452417 31.271367 
L 55.842262 31.379174 
L 56.232107 31.49349 
L 56.621953 31.614259 
L 57.011798 31.741421 
L 57.401644 31.874919 
L 57.791489 32.014693 
L 58.181335 32.160684 
L 58.57118 32.31283 
L 58.961026 32.471072 
L 59.350871 32.635348 
L 59.740716 32.805597 
L 60.130562 32.981755 
L 60.520407 33.16376 
L 60.910253 33.351549 
L 61.300098 33.545059 
L 61.689944 33.744225 
L 62.079789 33.948983 
L 62.469635 34.159267 
L 62.85948 34.375013 
L 63.249325 34.596155 
L 63.639171 34.822626 
L 64.029016 35.05436 
L 64.418862 35.291291 
L 64.808707 35.533351 
L 65.198553 35.780472 
L 65.588398 36.032587 
L 65.978244 36.289627 
L 66.368089 36.551524 
L 66.757934 36.818209 
L 67.14778 37.089614 
L 67.537625 37.365668 
L 67.927471 37.646302 
L 68.317316 37.931447 
L 68.707162 38.221031 
L 69.097007 38.514986 
L 69.486853 38.81324 
L 69.876698 39.115722 
L 70.266543 39.422362 
L 70.656389 39.733089 
L 71.046234 40.04783 
L 71.43608 40.366516 
L 71.825925 40.689073 
L 72.215771 41.015431 
L 72.605616 41.345517 
L 72.995462 41.67926 
L 73.385307 42.016587 
L 73.775152 42.357426 
L 74.164998 42.701705 
L 74.554843 43.049352 
L 74.944689 43.400294 
L 75.334534 43.754458 
L 75.72438 44.111773 
L 76.114225 44.472166 
L 76.50407 44.835563 
L 76.893916 45.201893 
L 77.283761 45.571083 
L 77.673607 45.943061 
L 78.063452 46.317753 
L 78.453298 46.695088 
L 78.843143 47.074994 
L 79.232989 47.457396 
L 79.622834 47.842225 
L 80.012679 48.229406 
L 80.402525 48.618869 
L 80.79237 49.01054 
L 81.182216 49.404349 
L 81.572061 49.800223 
L 81.961907 50.198091 
L 82.351752 50.597881 
L 82.741598 50.999521 
L 83.131443 51.402942 
L 83.521288 51.808071 
L 83.911134 52.214837 
L 84.300979 52.623171 
L 84.690825 53.033001 
L 85.08067 53.444258 
L 85.470516 53.856871 
L 85.860361 54.270771 
L 86.250207 54.685888 
L 86.640052 55.102152 
L 87.029897 55.519496 
L 87.419743 55.937849 
L 87.809588 56.357145 
L 88.199434 56.777313 
L 88.199434 103.927273 
L 88.199434 103.927273 
L 87.809588 103.927273 
L 87.419743 103.927273 
L 87.029897 103.927273 
L 86.640052 103.927273 
L 86.250207 103.927273 
L 85.860361 103.927273 
L 85.470516 103.927273 
L 85.08067 103.927273 
L 84.690825 103.927273 
L 84.300979 103.927273 
L 83.911134 103.927273 
L 83.521288 103.927273 
L 83.131443 103.927273 
L 82.741598 103.927273 
L 82.351752 103.927273 
L 81.961907 103.927273 
L 81.572061 103.927273 
L 81.182216 103.927273 
L 80.79237 103.927273 
L 80.402525 103.927273 
L 80.012679 103.927273 
L 79.622834 103.927273 
L 79.232989 103.927273 
L 78.843143 103.927273 
L 78.453298 103.927273 
L 78.063452 103.927273 
L 77.673607 103.927273 
L 77.283761 103.927273 
L 76.893916 103.927273 
L 76.50407 103.927273 
L 76.114225 103.927273 
L 75.72438 103.927273 
L 75.334534 103.927273 
L 74.944689 103.927273 
L 74.554843 103.927273 
L 74.164998 103.927273 
L 73.775152 103.927273 
L 73.385307 103.927273 
L 72.995462 103.927273 
L 72.605616 103.927273 
L 72.215771 103.927273 
L 71.825925 103.927273 
L 71.43608 103.927273 
L 71.046234 103.927273 
L 70.656389 103.927273 
L 70.266543 103.927273 
L 69.876698 103.927273 
L 69.486853 103.927273 
L 69.097007 103.927273 
L 68.707162 103.927273 
L 68.317316 103.927273 
L 67.927471 103.927273 
L 67.537625 103.927273 
L 67.14778 103.927273 
L 66.757934 103.927273 
L 66.368089 103.927273 
L 65.978244 103.927273 
L 65.588398 103.927273 
L 65.198553 103.927273 
L 64.808707 103.927273 
L 64.418862 103.927273 
L 64.029016 103.927273 
L 63.639171 103.927273 
L 63.249325 103.927273 
L 62.85948 103.927273 
L 62.469635 103.927273 
L 62.079789 103.927273 
L 61.689944 103.927273 
L 61.300098 103.927273 
L 60.910253 103.927273 
L 60.520407 103.927273 
L 60.130562 103.927273 
L 59.740716 103.927273 
L 59.350871 103.927273 
L 58.961026 103.927273 
L 58.57118 103.927273 
L 58.181335 103.927273 
L 57.791489 103.927273 
L 57.401644 103.927273 
L 57.011798 103.927273 
L 56.621953 103.927273 
L 56.232107 103.927273 
L 55.842262 103.927273 
L 55.452417 103.927273 
L 55.062571 103.927273 
L 54.672726 103.927273 
L 54.28288 103.927273 
L 53.893035 103.927273 
L 53.503189 103.927273 
L 53.113344 103.927273 
L 52.723498 103.927273 
L 52.333653 103.927273 
L 51.943808 103.927273 
L 51.553962 103.927273 
L 51.164117 103.927273 
L 50.774271 103.927273 
L 50.384426 103.927273 
L 49.99458 103.927273 
L 49.604735 103.927273 
z
" style="fill:#1f77b4;"/>
   </g>
   <g id="matplotlib.axis_3">
    <g id="xtick_7">
     <g id="line2d_20">
      <path clip-path="url(#p2a188030f2)" d="M 49.604735 107.6 
L 49.604735 26.8 
" style="fill:none;stroke:#b0b0b0;stroke-linecap:square;stroke-width:0.8;"/>
     </g>
     <g id="line2d_21">
      <g>
       <use style="stroke:#000000;stroke-width:0.8;" x="49.604735" xlink:href="#m50a9eb040b" y="107.6"/>
      </g>
     </g>
     <g id="text_13">
      <!-- 0 -->
      <g transform="translate(46.423485 122.198437)scale(0.1 -0.1)">
       <use xlink:href="#DejaVuSans-48"/>
      </g>
     </g>
    </g>
    <g id="xtick_8">
     <g id="line2d_22">
      <path clip-path="url(#p2a188030f2)" d="M 88.589279 107.6 
L 88.589279 26.8 
" style="fill:none;stroke:#b0b0b0;stroke-linecap:square;stroke-width:0.8;"/>
     </g>
     <g id="line2d_23">
      <g>
       <use style="stroke:#000000;stroke-width:0.8;" x="88.589279" xlink:href="#m50a9eb040b" y="107.6"/>
      </g>
     </g>
     <g id="text_14">
      <!-- 100 -->
      <g transform="translate(79.045529 122.198437)scale(0.1 -0.1)">
       <use xlink:href="#DejaVuSans-49"/>
       <use x="63.623047" xlink:href="#DejaVuSans-48"/>
       <use x="127.246094" xlink:href="#DejaVuSans-48"/>
      </g>
     </g>
    </g>
    <g id="text_15">
     <!-- q -->
     <g transform="translate(65.727866 135.876562)scale(0.1 -0.1)">
      <defs>
       <path d="M 14.796875 27.296875 
Q 14.796875 17.390625 18.875 11.75 
Q 22.953125 6.109375 30.078125 6.109375 
Q 37.203125 6.109375 41.296875 11.75 
Q 45.40625 17.390625 45.40625 27.296875 
Q 45.40625 37.203125 41.296875 42.84375 
Q 37.203125 48.484375 30.078125 48.484375 
Q 22.953125 48.484375 18.875 42.84375 
Q 14.796875 37.203125 14.796875 27.296875 
z
M 45.40625 8.203125 
Q 42.578125 3.328125 38.25 0.953125 
Q 33.9375 -1.421875 27.875 -1.421875 
Q 17.96875 -1.421875 11.734375 6.484375 
Q 5.515625 14.40625 5.515625 27.296875 
Q 5.515625 40.1875 11.734375 48.09375 
Q 17.96875 56 27.875 56 
Q 33.9375 56 38.25 53.625 
Q 42.578125 51.265625 45.40625 46.390625 
L 45.40625 54.6875 
L 54.390625 54.6875 
L 54.390625 -20.796875 
L 45.40625 -20.796875 
z
" id="DejaVuSans-113"/>
      </defs>
      <use xlink:href="#DejaVuSans-113"/>
     </g>
    </g>
   </g>
   <g id="matplotlib.axis_4">
    <g id="ytick_4">
     <g id="line2d_24">
      <path clip-path="url(#p2a188030f2)" d="M 47.675 103.927273 
L 90.129169 103.927273 
" style="fill:none;stroke:#b0b0b0;stroke-linecap:square;stroke-width:0.8;"/>
     </g>
     <g id="line2d_25">
      <g>
       <use style="stroke:#000000;stroke-width:0.8;" x="47.675" xlink:href="#m834af5ac4a" y="103.927273"/>
      </g>
     </g>
     <g id="text_16">
      <!-- 0.0 -->
      <g transform="translate(24.771875 107.726491)scale(0.1 -0.1)">
       <use xlink:href="#DejaVuSans-48"/>
       <use x="63.623047" xlink:href="#DejaVuSans-46"/>
       <use x="95.410156" xlink:href="#DejaVuSans-48"/>
      </g>
     </g>
    </g>
    <g id="ytick_5">
     <g id="line2d_26">
      <path clip-path="url(#p2a188030f2)" d="M 47.675 66.51718 
L 90.129169 66.51718 
" style="fill:none;stroke:#b0b0b0;stroke-linecap:square;stroke-width:0.8;"/>
     </g>
     <g id="line2d_27">
      <g>
       <use style="stroke:#000000;stroke-width:0.8;" x="47.675" xlink:href="#m834af5ac4a" y="66.51718"/>
      </g>
     </g>
     <g id="text_17">
      <!-- 0.5 -->
      <g transform="translate(24.771875 70.316398)scale(0.1 -0.1)">
       <use xlink:href="#DejaVuSans-48"/>
       <use x="63.623047" xlink:href="#DejaVuSans-46"/>
       <use x="95.410156" xlink:href="#DejaVuSans-53"/>
      </g>
     </g>
    </g>
    <g id="ytick_6">
     <g id="line2d_28">
      <path clip-path="url(#p2a188030f2)" d="M 47.675 29.107086 
L 90.129169 29.107086 
" style="fill:none;stroke:#b0b0b0;stroke-linecap:square;stroke-width:0.8;"/>
     </g>
     <g id="line2d_29">
      <g>
       <use style="stroke:#000000;stroke-width:0.8;" x="47.675" xlink:href="#m834af5ac4a" y="29.107086"/>
      </g>
     </g>
     <g id="text_18">
      <!-- 1.0 -->
      <g transform="translate(24.771875 32.906305)scale(0.1 -0.1)">
       <use xlink:href="#DejaVuSans-49"/>
       <use x="63.623047" xlink:href="#DejaVuSans-46"/>
       <use x="95.410156" xlink:href="#DejaVuSans-48"/>
      </g>
     </g>
    </g>
    <g id="text_19">
     <!-- Rxx -->
     <g transform="translate(18.692188 76.592969)rotate(-90)scale(0.1 -0.1)">
      <defs>
       <path d="M 44.390625 34.1875 
Q 47.5625 33.109375 50.5625 29.59375 
Q 53.5625 26.078125 56.59375 19.921875 
L 66.609375 0 
L 56 0 
L 46.6875 18.703125 
Q 43.0625 26.03125 39.671875 28.421875 
Q 36.28125 30.8125 30.421875 30.8125 
L 19.671875 30.8125 
L 19.671875 0 
L 9.8125 0 
L 9.8125 72.90625 
L 32.078125 72.90625 
Q 44.578125 72.90625 50.734375 67.671875 
Q 56.890625 62.453125 56.890625 51.90625 
Q 56.890625 45.015625 53.6875 40.46875 
Q 50.484375 35.9375 44.390625 34.1875 
z
M 19.671875 64.796875 
L 19.671875 38.921875 
L 32.078125 38.921875 
Q 39.203125 38.921875 42.84375 42.21875 
Q 46.484375 45.515625 46.484375 51.90625 
Q 46.484375 58.296875 42.84375 61.546875 
Q 39.203125 64.796875 32.078125 64.796875 
z
" id="DejaVuSans-82"/>
       <path d="M 54.890625 54.6875 
L 35.109375 28.078125 
L 55.90625 0 
L 45.3125 0 
L 29.390625 21.484375 
L 13.484375 0 
L 2.875 0 
L 24.125 28.609375 
L 4.6875 54.6875 
L 15.28125 54.6875 
L 29.78125 35.203125 
L 44.28125 54.6875 
z
" id="DejaVuSans-120"/>
      </defs>
      <use xlink:href="#DejaVuSans-82"/>
      <use x="69.482422" xlink:href="#DejaVuSans-120"/>
      <use x="128.662109" xlink:href="#DejaVuSans-120"/>
     </g>
    </g>
    <g id="text_20">
     <!-- 1e−5 -->
     <g transform="translate(47.675 23.8)scale(0.1 -0.1)">
      <defs>
       <path d="M 56.203125 29.59375 
L 56.203125 25.203125 
L 14.890625 25.203125 
Q 15.484375 15.921875 20.484375 11.0625 
Q 25.484375 6.203125 34.421875 6.203125 
Q 39.59375 6.203125 44.453125 7.46875 
Q 49.3125 8.734375 54.109375 11.28125 
L 54.109375 2.78125 
Q 49.265625 0.734375 44.1875 -0.34375 
Q 39.109375 -1.421875 33.890625 -1.421875 
Q 20.796875 -1.421875 13.15625 6.1875 
Q 5.515625 13.8125 5.515625 26.8125 
Q 5.515625 40.234375 12.765625 48.109375 
Q 20.015625 56 32.328125 56 
Q 43.359375 56 49.78125 48.890625 
Q 56.203125 41.796875 56.203125 29.59375 
z
M 47.21875 32.234375 
Q 47.125 39.59375 43.09375 43.984375 
Q 39.0625 48.390625 32.421875 48.390625 
Q 24.90625 48.390625 20.390625 44.140625 
Q 15.875 39.890625 15.1875 32.171875 
z
" id="DejaVuSans-101"/>
       <path d="M 10.59375 35.5 
L 73.1875 35.5 
L 73.1875 27.203125 
L 10.59375 27.203125 
z
" id="DejaVuSans-8722"/>
      </defs>
      <use xlink:href="#DejaVuSans-49"/>
      <use x="63.623047" xlink:href="#DejaVuSans-101"/>
      <use x="125.146484" xlink:href="#DejaVuSans-8722"/>
      <use x="208.935547" xlink:href="#DejaVuSans-53"/>
     </g>
    </g>
   </g>
   <g id="line2d_30">
    <path clip-path="url(#p2a188030f2)" d="M 49.604735 30.472727 
L 49.99458 30.476397 
L 50.384426 30.487365 
L 50.774271 30.505583 
L 51.164117 30.531003 
L 51.553962 30.563576 
L 51.943808 30.603251 
L 52.333653 30.649978 
L 52.723498 30.703706 
L 53.113344 30.764382 
L 53.503189 30.831955 
L 53.893035 30.90637 
L 54.28288 30.987573 
L 54.672726 31.075511 
L 55.062571 31.170128 
L 55.452417 31.271367 
L 55.842262 31.379174 
L 56.232107 31.49349 
L 56.621953 31.614259 
L 57.011798 31.741421 
L 57.401644 31.874919 
L 57.791489 32.014693 
L 58.181335 32.160684 
L 58.57118 32.31283 
L 58.961026 32.471072 
L 59.350871 32.635348 
L 59.740716 32.805597 
L 60.130562 32.981755 
L 60.520407 33.16376 
L 60.910253 33.351549 
L 61.300098 33.545059 
L 61.689944 33.744225 
L 62.079789 33.948983 
L 62.469635 34.159267 
L 62.85948 34.375013 
L 63.249325 34.596155 
L 63.639171 34.822626 
L 64.029016 35.05436 
L 64.418862 35.291291 
L 64.808707 35.533351 
L 65.198553 35.780472 
L 65.588398 36.032587 
L 65.978244 36.289627 
L 66.368089 36.551524 
L 66.757934 36.818209 
L 67.14778 37.089614 
L 67.537625 37.365668 
L 67.927471 37.646302 
L 68.317316 37.931447 
L 68.707162 38.221031 
L 69.097007 38.514986 
L 69.486853 38.81324 
L 69.876698 39.115722 
L 70.266543 39.422362 
L 70.656389 39.733089 
L 71.046234 40.04783 
L 71.43608 40.366516 
L 71.825925 40.689073 
L 72.215771 41.015431 
L 72.605616 41.345517 
L 72.995462 41.67926 
L 73.385307 42.016587 
L 73.775152 42.357426 
L 74.164998 42.701705 
L 74.554843 43.049352 
L 74.944689 43.400294 
L 75.334534 43.754458 
L 75.72438 44.111773 
L 76.114225 44.472166 
L 76.50407 44.835563 
L 76.893916 45.201893 
L 77.283761 45.571083 
L 77.673607 45.943061 
L 78.063452 46.317753 
L 78.453298 46.695088 
L 78.843143 47.074994 
L 79.232989 47.457396 
L 79.622834 47.842225 
L 80.012679 48.229406 
L 80.402525 48.618869 
L 80.79237 49.01054 
L 81.182216 49.404349 
L 81.572061 49.800223 
L 81.961907 50.198091 
L 82.351752 50.597881 
L 82.741598 50.999521 
L 83.131443 51.402942 
L 83.521288 51.808071 
L 83.911134 52.214837 
L 84.300979 52.623171 
L 84.690825 53.033001 
L 85.08067 53.444258 
L 85.470516 53.856871 
L 85.860361 54.270771 
L 86.250207 54.685888 
L 86.640052 55.102152 
L 87.029897 55.519496 
L 87.419743 55.937849 
L 87.809588 56.357145 
L 88.199434 56.777313 
" style="fill:none;stroke:#1f77b4;stroke-linecap:square;stroke-width:1.5;"/>
   </g>
   <g id="patch_8">
    <path d="M 47.675 107.6 
L 47.675 26.8 
" style="fill:none;stroke:#000000;stroke-linecap:square;stroke-linejoin:miter;stroke-width:0.8;"/>
   </g>
   <g id="patch_9">
    <path d="M 90.129169 107.6 
L 90.129169 26.8 
" style="fill:none;stroke:#000000;stroke-linecap:square;stroke-linejoin:miter;stroke-width:0.8;"/>
   </g>
   <g id="patch_10">
    <path d="M 47.675 107.6 
L 90.129169 107.6 
" style="fill:none;stroke:#000000;stroke-linecap:square;stroke-linejoin:miter;stroke-width:0.8;"/>
   </g>
   <g id="patch_11">
    <path d="M 47.675 26.8 
L 90.129169 26.8 
" style="fill:none;stroke:#000000;stroke-linecap:square;stroke-linejoin:miter;stroke-width:0.8;"/>
   </g>
  </g>
  <g id="axes_3">
   <g id="patch_12">
    <path d="M 47.675 246.2 
L 200.486112 246.2 
L 200.486112 165.4 
L 47.675 165.4 
z
" style="fill:#ffffff;"/>
   </g>
   <g id="matplotlib.axis_5">
    <g id="xtick_9">
     <g id="line2d_31">
      <path clip-path="url(#pf95d21801f)" d="M 54.62096 246.2 
L 54.62096 165.4 
" style="fill:none;stroke:#b0b0b0;stroke-linecap:square;stroke-width:0.8;"/>
     </g>
     <g id="line2d_32">
      <g>
       <use style="stroke:#000000;stroke-width:0.8;" x="54.62096" xlink:href="#m50a9eb040b" y="246.2"/>
      </g>
     </g>
     <g id="text_21">
      <!-- 0 -->
      <g transform="translate(51.43971 260.798438)scale(0.1 -0.1)">
       <use xlink:href="#DejaVuSans-48"/>
      </g>
     </g>
    </g>
    <g id="xtick_10">
     <g id="line2d_33">
      <path clip-path="url(#pf95d21801f)" d="M 110.299995 246.2 
L 110.299995 165.4 
" style="fill:none;stroke:#b0b0b0;stroke-linecap:square;stroke-width:0.8;"/>
     </g>
     <g id="line2d_34">
      <g>
       <use style="stroke:#000000;stroke-width:0.8;" x="110.299995" xlink:href="#m50a9eb040b" y="246.2"/>
      </g>
     </g>
     <g id="text_22">
      <!-- 200 -->
      <g transform="translate(100.756245 260.798438)scale(0.1 -0.1)">
       <use xlink:href="#DejaVuSans-50"/>
       <use x="63.623047" xlink:href="#DejaVuSans-48"/>
       <use x="127.246094" xlink:href="#DejaVuSans-48"/>
      </g>
     </g>
    </g>
    <g id="xtick_11">
     <g id="line2d_35">
      <path clip-path="url(#pf95d21801f)" d="M 165.97903 246.2 
L 165.97903 165.4 
" style="fill:none;stroke:#b0b0b0;stroke-linecap:square;stroke-width:0.8;"/>
     </g>
     <g id="line2d_36">
      <g>
       <use style="stroke:#000000;stroke-width:0.8;" x="165.97903" xlink:href="#m50a9eb040b" y="246.2"/>
      </g>
     </g>
     <g id="text_23">
      <!-- 400 -->
      <g transform="translate(156.43528 260.798438)scale(0.1 -0.1)">
       <use xlink:href="#DejaVuSans-52"/>
       <use x="63.623047" xlink:href="#DejaVuSans-48"/>
       <use x="127.246094" xlink:href="#DejaVuSans-48"/>
      </g>
     </g>
    </g>
    <g id="text_24">
     <!-- x -->
     <g transform="translate(121.121181 274.476562)scale(0.1 -0.1)">
      <use xlink:href="#DejaVuSans-120"/>
     </g>
    </g>
   </g>
   <g id="matplotlib.axis_6">
    <g id="ytick_7">
     <g id="line2d_37">
      <path clip-path="url(#pf95d21801f)" d="M 47.675 242.528337 
L 200.486112 242.528337 
" style="fill:none;stroke:#b0b0b0;stroke-linecap:square;stroke-width:0.8;"/>
     </g>
     <g id="line2d_38">
      <g>
       <use style="stroke:#000000;stroke-width:0.8;" x="47.675" xlink:href="#m834af5ac4a" y="242.528337"/>
      </g>
     </g>
     <g id="text_25">
      <!-- −1 -->
      <g transform="translate(25.932813 246.327555)scale(0.1 -0.1)">
       <use xlink:href="#DejaVuSans-8722"/>
       <use x="83.789062" xlink:href="#DejaVuSans-49"/>
      </g>
     </g>
    </g>
    <g id="ytick_8">
     <g id="line2d_39">
      <path clip-path="url(#pf95d21801f)" d="M 47.675 205.800199 
L 200.486112 205.800199 
" style="fill:none;stroke:#b0b0b0;stroke-linecap:square;stroke-width:0.8;"/>
     </g>
     <g id="line2d_40">
      <g>
       <use style="stroke:#000000;stroke-width:0.8;" x="47.675" xlink:href="#m834af5ac4a" y="205.800199"/>
      </g>
     </g>
     <g id="text_26">
      <!-- 0 -->
      <g transform="translate(34.3125 209.599418)scale(0.1 -0.1)">
       <use xlink:href="#DejaVuSans-48"/>
      </g>
     </g>
    </g>
    <g id="ytick_9">
     <g id="line2d_41">
      <path clip-path="url(#pf95d21801f)" d="M 47.675 169.072062 
L 200.486112 169.072062 
" style="fill:none;stroke:#b0b0b0;stroke-linecap:square;stroke-width:0.8;"/>
     </g>
     <g id="line2d_42">
      <g>
       <use style="stroke:#000000;stroke-width:0.8;" x="47.675" xlink:href="#m834af5ac4a" y="169.072062"/>
      </g>
     </g>
     <g id="text_27">
      <!-- 1 -->
      <g transform="translate(34.3125 172.871281)scale(0.1 -0.1)">
       <use xlink:href="#DejaVuSans-49"/>
      </g>
     </g>
    </g>
    <g id="text_28">
     <!-- sin(x) -->
     <g transform="translate(19.853125 219.823438)rotate(-90)scale(0.1 -0.1)">
      <defs>
       <path d="M 44.28125 53.078125 
L 44.28125 44.578125 
Q 40.484375 46.53125 36.375 47.5 
Q 32.28125 48.484375 27.875 48.484375 
Q 21.1875 48.484375 17.84375 46.4375 
Q 14.5 44.390625 14.5 40.28125 
Q 14.5 37.15625 16.890625 35.375 
Q 19.28125 33.59375 26.515625 31.984375 
L 29.59375 31.296875 
Q 39.15625 29.25 43.1875 25.515625 
Q 47.21875 21.78125 47.21875 15.09375 
Q 47.21875 7.46875 41.1875 3.015625 
Q 35.15625 -1.421875 24.609375 -1.421875 
Q 20.21875 -1.421875 15.453125 -0.5625 
Q 10.6875 0.296875 5.421875 2 
L 5.421875 11.28125 
Q 10.40625 8.6875 15.234375 7.390625 
Q 20.0625 6.109375 24.8125 6.109375 
Q 31.15625 6.109375 34.5625 8.28125 
Q 37.984375 10.453125 37.984375 14.40625 
Q 37.984375 18.0625 35.515625 20.015625 
Q 33.0625 21.96875 24.703125 23.78125 
L 21.578125 24.515625 
Q 13.234375 26.265625 9.515625 29.90625 
Q 5.8125 33.546875 5.8125 39.890625 
Q 5.8125 47.609375 11.28125 51.796875 
Q 16.75 56 26.8125 56 
Q 31.78125 56 36.171875 55.265625 
Q 40.578125 54.546875 44.28125 53.078125 
z
" id="DejaVuSans-115"/>
       <path d="M 9.421875 54.6875 
L 18.40625 54.6875 
L 18.40625 0 
L 9.421875 0 
z
M 9.421875 75.984375 
L 18.40625 75.984375 
L 18.40625 64.59375 
L 9.421875 64.59375 
z
" id="DejaVuSans-105"/>
       <path d="M 54.890625 33.015625 
L 54.890625 0 
L 45.90625 0 
L 45.90625 32.71875 
Q 45.90625 40.484375 42.875 44.328125 
Q 39.84375 48.1875 33.796875 48.1875 
Q 26.515625 48.1875 22.3125 43.546875 
Q 18.109375 38.921875 18.109375 30.90625 
L 18.109375 0 
L 9.078125 0 
L 9.078125 54.6875 
L 18.109375 54.6875 
L 18.109375 46.1875 
Q 21.34375 51.125 25.703125 53.5625 
Q 30.078125 56 35.796875 56 
Q 45.21875 56 50.046875 50.171875 
Q 54.890625 44.34375 54.890625 33.015625 
z
" id="DejaVuSans-110"/>
      </defs>
      <use xlink:href="#DejaVuSans-115"/>
      <use x="52.099609" xlink:href="#DejaVuSans-105"/>
      <use x="79.882812" xlink:href="#DejaVuSans-110"/>
      <use x="143.261719" xlink:href="#DejaVuSans-40"/>
      <use x="182.275391" xlink:href="#DejaVuSans-120"/>
      <use x="241.455078" xlink:href="#DejaVuSans-41"/>
     </g>
    </g>
   </g>
   <g id="line2d_43">
    <path clip-path="url(#pf95d21801f)" d="M 54.62096 205.800199 
L 59.632073 192.861823 
L 62.416025 186.29072 
L 64.643186 181.582229 
L 66.591952 177.966054 
L 68.262323 175.297578 
L 69.932694 173.067813 
L 71.32467 171.56814 
L 72.716646 170.410502 
L 73.830227 169.738548 
L 74.943808 169.297266 
L 76.057388 169.089477 
L 77.170969 169.116513 
L 78.28455 169.378198 
L 79.39813 169.87286 
L 80.511711 170.597335 
L 81.903687 171.818904 
L 83.295663 173.380003 
L 84.687639 175.265034 
L 86.35801 177.927925 
L 88.028381 180.991695 
L 89.977147 185.013681 
L 92.204309 190.103332 
L 95.266655 197.727957 
L 105.567277 223.998895 
L 107.794438 228.849082 
L 109.743205 232.613883 
L 111.413576 235.425767 
L 113.083947 237.811554 
L 114.475923 239.449268 
L 115.867899 240.750771 
L 116.981479 241.541047 
L 118.09506 242.102703 
L 119.208641 242.432148 
L 120.322221 242.527273 
L 121.435802 242.38747 
L 122.549383 242.013633 
L 123.662963 241.408154 
L 124.776544 240.574906 
L 126.16852 239.2213 
L 127.560496 237.533762 
L 129.230867 235.091892 
L 130.901238 232.228726 
L 132.850004 228.411146 
L 135.077166 223.511186 
L 137.861117 216.765816 
L 142.037045 205.91719 
L 147.048158 192.971379 
L 149.83211 186.389939 
L 152.059271 181.670305 
L 154.008038 178.042524 
L 155.678409 175.362899 
L 157.34878 173.121045 
L 158.740756 171.610706 
L 160.132732 170.441976 
L 161.246312 169.760917 
L 162.359893 169.310386 
L 163.473474 169.093266 
L 164.587054 169.110945 
L 165.700635 169.363309 
L 166.814216 169.848746 
L 167.927797 170.564149 
L 169.319772 171.774684 
L 170.711748 173.325191 
L 172.103724 175.200177 
L 173.774095 177.851878 
L 175.444466 180.905553 
L 177.393233 184.917336 
L 179.620394 189.997644 
L 182.682741 197.613868 
L 192.983362 223.897184 
L 193.540153 225.160776 
L 193.540153 225.160776 
" style="fill:none;stroke:#1f77b4;stroke-linecap:square;stroke-width:1.5;"/>
   </g>
   <g id="patch_13">
    <path d="M 47.675 246.2 
L 47.675 165.4 
" style="fill:none;stroke:#000000;stroke-linecap:square;stroke-linejoin:miter;stroke-width:0.8;"/>
   </g>
   <g id="patch_14">
    <path d="M 200.486112 246.2 
L 200.486112 165.4 
" style="fill:none;stroke:#000000;stroke-linecap:square;stroke-linejoin:miter;stroke-width:0.8;"/>
   </g>
   <g id="patch_15">
    <path d="M 47.675 246.2 
L 200.486112 246.2 
" style="fill:none;stroke:#000000;stroke-linecap:square;stroke-linejoin:miter;stroke-width:0.8;"/>
   </g>
   <g id="patch_16">
    <path d="M 47.675 165.4 
L 200.486112 165.4 
" style="fill:none;stroke:#000000;stroke-linecap:square;stroke-linejoin:miter;stroke-width:0.8;"/>
   </g>
   <g id="text_29">
    <!-- Входной сигнал -->
    <g transform="translate(73.407744 159.4)scale(0.12 -0.12)">
     <defs>
      <path d="M 19.671875 34.8125 
L 19.671875 8.109375 
L 35.5 8.109375 
Q 43.453125 8.109375 47.28125 11.40625 
Q 51.125 14.703125 51.125 21.484375 
Q 51.125 28.328125 47.28125 31.5625 
Q 43.453125 34.8125 35.5 34.8125 
z
M 19.671875 64.796875 
L 19.671875 42.828125 
L 34.28125 42.828125 
Q 41.5 42.828125 45.03125 45.53125 
Q 48.578125 48.25 48.578125 53.8125 
Q 48.578125 59.328125 45.03125 62.0625 
Q 41.5 64.796875 34.28125 64.796875 
z
M 9.8125 72.90625 
L 35.015625 72.90625 
Q 46.296875 72.90625 52.390625 68.21875 
Q 58.5 63.53125 58.5 54.890625 
Q 58.5 48.1875 55.375 44.234375 
Q 52.25 40.28125 46.1875 39.3125 
Q 53.46875 37.75 57.5 32.78125 
Q 61.53125 27.828125 61.53125 20.40625 
Q 61.53125 10.640625 54.890625 5.3125 
Q 48.25 0 35.984375 0 
L 9.8125 0 
z
" id="DejaVuSans-1042"/>
      <path d="M 54.890625 54.6875 
L 35.109375 28.078125 
L 55.90625 0 
L 45.3125 0 
L 29.390625 21.484375 
L 13.484375 0 
L 2.875 0 
L 24.125 28.609375 
L 4.6875 54.6875 
L 15.28125 54.6875 
L 29.78125 35.203125 
L 44.28125 54.6875 
z
" id="DejaVuSans-1093"/>
      <path d="M 30.609375 48.390625 
Q 23.390625 48.390625 19.1875 42.75 
Q 14.984375 37.109375 14.984375 27.296875 
Q 14.984375 17.484375 19.15625 11.84375 
Q 23.34375 6.203125 30.609375 6.203125 
Q 37.796875 6.203125 41.984375 11.859375 
Q 46.1875 17.53125 46.1875 27.296875 
Q 46.1875 37.015625 41.984375 42.703125 
Q 37.796875 48.390625 30.609375 48.390625 
z
M 30.609375 56 
Q 42.328125 56 49.015625 48.375 
Q 55.71875 40.765625 55.71875 27.296875 
Q 55.71875 13.875 49.015625 6.21875 
Q 42.328125 -1.421875 30.609375 -1.421875 
Q 18.84375 -1.421875 12.171875 6.21875 
Q 5.515625 13.875 5.515625 27.296875 
Q 5.515625 40.765625 12.171875 48.375 
Q 18.84375 56 30.609375 56 
z
" id="DejaVuSans-1086"/>
      <path d="M 21.625 7.171875 
L 47.703125 7.171875 
L 47.703125 47.515625 
L 28.8125 47.515625 
L 28.8125 40.671875 
Q 28.8125 20.5625 23.046875 9.8125 
z
M 8.59375 7.171875 
Q 13.03125 9.125 14.984375 13.28125 
Q 19.78125 23.578125 19.78125 44.34375 
L 19.78125 54.6875 
L 56.734375 54.6875 
L 56.734375 7.171875 
L 63.921875 7.171875 
L 63.921875 -13.8125 
L 56.734375 -13.8125 
L 56.734375 0 
L 12.40625 0 
L 12.40625 -13.8125 
L 5.21875 -13.8125 
L 5.21875 7.171875 
z
" id="DejaVuSans-1076"/>
      <path d="M 48.78125 52.59375 
L 48.78125 44.1875 
Q 44.96875 46.296875 41.140625 47.34375 
Q 37.3125 48.390625 33.40625 48.390625 
Q 24.65625 48.390625 19.8125 42.84375 
Q 14.984375 37.3125 14.984375 27.296875 
Q 14.984375 17.28125 19.8125 11.734375 
Q 24.65625 6.203125 33.40625 6.203125 
Q 37.3125 6.203125 41.140625 7.25 
Q 44.96875 8.296875 48.78125 10.40625 
L 48.78125 2.09375 
Q 45.015625 0.34375 40.984375 -0.53125 
Q 36.96875 -1.421875 32.421875 -1.421875 
Q 20.0625 -1.421875 12.78125 6.34375 
Q 5.515625 14.109375 5.515625 27.296875 
Q 5.515625 40.671875 12.859375 48.328125 
Q 20.21875 56 33.015625 56 
Q 37.15625 56 41.109375 55.140625 
Q 45.0625 54.296875 48.78125 52.59375 
z
" id="DejaVuSans-1089"/>
      <path d="M 9.078125 0 
L 9.078125 54.6875 
L 47.65625 54.6875 
L 47.65625 47.515625 
L 18.109375 47.515625 
L 18.109375 0 
z
" id="DejaVuSans-1075"/>
      <path d="M 34.28125 27.484375 
Q 23.390625 27.484375 19.1875 25 
Q 14.984375 22.515625 14.984375 16.5 
Q 14.984375 11.71875 18.140625 8.90625 
Q 21.296875 6.109375 26.703125 6.109375 
Q 34.1875 6.109375 38.703125 11.40625 
Q 43.21875 16.703125 43.21875 25.484375 
L 43.21875 27.484375 
z
M 52.203125 31.203125 
L 52.203125 0 
L 43.21875 0 
L 43.21875 8.296875 
Q 40.140625 3.328125 35.546875 0.953125 
Q 30.953125 -1.421875 24.3125 -1.421875 
Q 15.921875 -1.421875 10.953125 3.296875 
Q 6 8.015625 6 15.921875 
Q 6 25.140625 12.171875 29.828125 
Q 18.359375 34.515625 30.609375 34.515625 
L 43.21875 34.515625 
L 43.21875 35.40625 
Q 43.21875 41.609375 39.140625 45 
Q 35.0625 48.390625 27.6875 48.390625 
Q 23 48.390625 18.546875 47.265625 
Q 14.109375 46.140625 10.015625 43.890625 
L 10.015625 52.203125 
Q 14.9375 54.109375 19.578125 55.046875 
Q 24.21875 56 28.609375 56 
Q 40.484375 56 46.34375 49.84375 
Q 52.203125 43.703125 52.203125 31.203125 
z
" id="DejaVuSans-1072"/>
      <path d="M 3.71875 0 
L 3.71875 7.46875 
Q 12.59375 8.84375 15.328125 14.984375 
Q 18.65625 23.640625 18.65625 45.75 
L 18.65625 54.6875 
L 55.609375 54.6875 
L 55.609375 0 
L 46.625 0 
L 46.625 47.515625 
L 27.640625 47.515625 
L 27.640625 42.09375 
Q 27.640625 21 23.34375 11.53125 
Q 18.75 1.421875 3.71875 0 
z
" id="DejaVuSans-1083"/>
     </defs>
     <use xlink:href="#DejaVuSans-1042"/>
     <use x="68.603516" xlink:href="#DejaVuSans-1093"/>
     <use x="127.783203" xlink:href="#DejaVuSans-1086"/>
     <use x="188.964844" xlink:href="#DejaVuSans-1076"/>
     <use x="258.105469" xlink:href="#DejaVuSans-1085"/>
     <use x="323.486328" xlink:href="#DejaVuSans-1086"/>
     <use x="384.667969" xlink:href="#DejaVuSans-1081"/>
     <use x="449.658203" xlink:href="#DejaVuSans-32"/>
     <use x="481.445312" xlink:href="#DejaVuSans-1089"/>
     <use x="536.425781" xlink:href="#DejaVuSans-1080"/>
     <use x="601.416016" xlink:href="#DejaVuSans-1075"/>
     <use x="653.955078" xlink:href="#DejaVuSans-1085"/>
     <use x="719.335938" xlink:href="#DejaVuSans-1072"/>
     <use x="780.615234" xlink:href="#DejaVuSans-1083"/>
    </g>
   </g>
  </g>
  <g id="axes_4">
   <g id="patch_17">
    <path d="M 268.388888 246.2 
L 421.2 246.2 
L 421.2 165.4 
L 268.388888 165.4 
z
" style="fill:#ffffff;"/>
   </g>
   <g id="matplotlib.axis_7">
    <g id="xtick_12">
     <g id="line2d_44">
      <path clip-path="url(#pda9f7ae6be)" d="M 275.334847 246.2 
L 275.334847 165.4 
" style="fill:none;stroke:#b0b0b0;stroke-linecap:square;stroke-width:0.8;"/>
     </g>
     <g id="line2d_45">
      <g>
       <use style="stroke:#000000;stroke-width:0.8;" x="275.334847" xlink:href="#m50a9eb040b" y="246.2"/>
      </g>
     </g>
     <g id="text_30">
      <!-- 0 -->
      <g transform="translate(272.153597 260.798438)scale(0.1 -0.1)">
       <use xlink:href="#DejaVuSans-48"/>
      </g>
     </g>
    </g>
    <g id="xtick_13">
     <g id="line2d_46">
      <path clip-path="url(#pda9f7ae6be)" d="M 331.013883 246.2 
L 331.013883 165.4 
" style="fill:none;stroke:#b0b0b0;stroke-linecap:square;stroke-width:0.8;"/>
     </g>
     <g id="line2d_47">
      <g>
       <use style="stroke:#000000;stroke-width:0.8;" x="331.013883" xlink:href="#m50a9eb040b" y="246.2"/>
      </g>
     </g>
     <g id="text_31">
      <!-- 200 -->
      <g transform="translate(321.470133 260.798438)scale(0.1 -0.1)">
       <use xlink:href="#DejaVuSans-50"/>
       <use x="63.623047" xlink:href="#DejaVuSans-48"/>
       <use x="127.246094" xlink:href="#DejaVuSans-48"/>
      </g>
     </g>
    </g>
    <g id="xtick_14">
     <g id="line2d_48">
      <path clip-path="url(#pda9f7ae6be)" d="M 386.692918 246.2 
L 386.692918 165.4 
" style="fill:none;stroke:#b0b0b0;stroke-linecap:square;stroke-width:0.8;"/>
     </g>
     <g id="line2d_49">
      <g>
       <use style="stroke:#000000;stroke-width:0.8;" x="386.692918" xlink:href="#m50a9eb040b" y="246.2"/>
      </g>
     </g>
     <g id="text_32">
      <!-- 400 -->
      <g transform="translate(377.149168 260.798438)scale(0.1 -0.1)">
       <use xlink:href="#DejaVuSans-52"/>
       <use x="63.623047" xlink:href="#DejaVuSans-48"/>
       <use x="127.246094" xlink:href="#DejaVuSans-48"/>
      </g>
     </g>
    </g>
    <g id="text_33">
     <!-- x -->
     <g transform="translate(341.835069 274.476562)scale(0.1 -0.1)">
      <use xlink:href="#DejaVuSans-120"/>
     </g>
    </g>
   </g>
   <g id="matplotlib.axis_8">
    <g id="ytick_10">
     <g id="line2d_50">
      <path clip-path="url(#pda9f7ae6be)" d="M 268.388888 234.539707 
L 421.2 234.539707 
" style="fill:none;stroke:#b0b0b0;stroke-linecap:square;stroke-width:0.8;"/>
     </g>
     <g id="line2d_51">
      <g>
       <use style="stroke:#000000;stroke-width:0.8;" x="268.388888" xlink:href="#m834af5ac4a" y="234.539707"/>
      </g>
     </g>
     <g id="text_34">
      <!-- −0.25 -->
      <g transform="translate(230.743575 238.338926)scale(0.1 -0.1)">
       <use xlink:href="#DejaVuSans-8722"/>
       <use x="83.789062" xlink:href="#DejaVuSans-48"/>
       <use x="147.412109" xlink:href="#DejaVuSans-46"/>
       <use x="179.199219" xlink:href="#DejaVuSans-50"/>
       <use x="242.822266" xlink:href="#DejaVuSans-53"/>
      </g>
     </g>
    </g>
    <g id="ytick_11">
     <g id="line2d_52">
      <path clip-path="url(#pda9f7ae6be)" d="M 268.388888 210.576708 
L 421.2 210.576708 
" style="fill:none;stroke:#b0b0b0;stroke-linecap:square;stroke-width:0.8;"/>
     </g>
     <g id="line2d_53">
      <g>
       <use style="stroke:#000000;stroke-width:0.8;" x="268.388888" xlink:href="#m834af5ac4a" y="210.576708"/>
      </g>
     </g>
     <g id="text_35">
      <!-- 0.00 -->
      <g transform="translate(239.123263 214.375927)scale(0.1 -0.1)">
       <use xlink:href="#DejaVuSans-48"/>
       <use x="63.623047" xlink:href="#DejaVuSans-46"/>
       <use x="95.410156" xlink:href="#DejaVuSans-48"/>
       <use x="159.033203" xlink:href="#DejaVuSans-48"/>
      </g>
     </g>
    </g>
    <g id="ytick_12">
     <g id="line2d_54">
      <path clip-path="url(#pda9f7ae6be)" d="M 268.388888 186.613709 
L 421.2 186.613709 
" style="fill:none;stroke:#b0b0b0;stroke-linecap:square;stroke-width:0.8;"/>
     </g>
     <g id="line2d_55">
      <g>
       <use style="stroke:#000000;stroke-width:0.8;" x="268.388888" xlink:href="#m834af5ac4a" y="186.613709"/>
      </g>
     </g>
     <g id="text_36">
      <!-- 0.25 -->
      <g transform="translate(239.123263 190.412928)scale(0.1 -0.1)">
       <use xlink:href="#DejaVuSans-48"/>
       <use x="63.623047" xlink:href="#DejaVuSans-46"/>
       <use x="95.410156" xlink:href="#DejaVuSans-50"/>
       <use x="159.033203" xlink:href="#DejaVuSans-53"/>
      </g>
     </g>
    </g>
    <g id="text_37">
     <!-- sin(x) -->
     <g transform="translate(224.663888 219.823438)rotate(-90)scale(0.1 -0.1)">
      <use xlink:href="#DejaVuSans-115"/>
      <use x="52.099609" xlink:href="#DejaVuSans-105"/>
      <use x="79.882812" xlink:href="#DejaVuSans-110"/>
      <use x="143.261719" xlink:href="#DejaVuSans-40"/>
      <use x="182.275391" xlink:href="#DejaVuSans-120"/>
      <use x="241.455078" xlink:href="#DejaVuSans-41"/>
     </g>
    </g>
   </g>
   <g id="line2d_56">
    <path clip-path="url(#pda9f7ae6be)" d="M 275.334847 210.576708 
L 280.624356 210.468418 
L 283.408307 210.195656 
L 285.913864 209.731873 
L 288.141025 209.102944 
L 290.368187 208.240054 
L 292.595348 207.122304 
L 294.82251 205.73732 
L 297.049671 204.081826 
L 299.276832 202.161978 
L 301.782389 199.706028 
L 304.566341 196.653054 
L 307.907083 192.636851 
L 313.474986 185.513447 
L 317.929309 179.955483 
L 320.713261 176.795592 
L 323.218818 174.284974 
L 325.445979 172.392819 
L 327.394745 171.04676 
L 329.065116 170.150966 
L 330.735487 169.514052 
L 332.127463 169.193398 
L 333.519439 169.072727 
L 334.911415 169.158922 
L 336.303391 169.457317 
L 337.695367 169.971631 
L 339.087343 170.703913 
L 340.479319 171.654501 
L 342.14969 173.081291 
L 343.820061 174.814643 
L 345.490432 176.845279 
L 347.439198 179.572862 
L 349.666359 183.130424 
L 351.893521 187.111168 
L 354.399077 192.023747 
L 357.461424 198.519777 
L 361.915747 208.558735 
L 368.040441 222.333469 
L 370.824393 228.001482 
L 373.051554 232.045713 
L 375.00032 235.137727 
L 376.670691 237.407544 
L 378.341063 239.29146 
L 379.733038 240.54688 
L 381.125014 241.502849 
L 382.51699 242.149813 
L 383.630571 242.440453 
L 384.744152 242.527273 
L 385.857732 242.409718 
L 386.971313 242.088541 
L 388.084894 241.565796 
L 389.47687 240.634124 
L 390.868846 239.402129 
L 392.260821 237.88212 
L 393.931192 235.699507 
L 395.601564 233.155561 
L 397.55033 229.780015 
L 399.777491 225.46632 
L 402.561443 219.5532 
L 407.015766 209.451555 
L 411.748484 198.86728 
L 414.25404 193.734237 
L 414.25404 193.734237 
" style="fill:none;stroke:#1f77b4;stroke-linecap:square;stroke-width:1.5;"/>
   </g>
   <g id="patch_18">
    <path d="M 268.388888 246.2 
L 268.388888 165.4 
" style="fill:none;stroke:#000000;stroke-linecap:square;stroke-linejoin:miter;stroke-width:0.8;"/>
   </g>
   <g id="patch_19">
    <path d="M 421.2 246.2 
L 421.2 165.4 
" style="fill:none;stroke:#000000;stroke-linecap:square;stroke-linejoin:miter;stroke-width:0.8;"/>
   </g>
   <g id="patch_20">
    <path d="M 268.388888 246.2 
L 421.2 246.2 
" style="fill:none;stroke:#000000;stroke-linecap:square;stroke-linejoin:miter;stroke-width:0.8;"/>
   </g>
   <g id="patch_21">
    <path d="M 268.388888 165.4 
L 421.2 165.4 
" style="fill:none;stroke:#000000;stroke-linecap:square;stroke-linejoin:miter;stroke-width:0.8;"/>
   </g>
   <g id="text_38">
    <!-- Выходной сигнал -->
    <g transform="translate(289.384444 159.4)scale(0.12 -0.12)">
     <use xlink:href="#DejaVuSans-1042"/>
     <use x="68.603516" xlink:href="#DejaVuSans-1099"/>
     <use x="147.558594" xlink:href="#DejaVuSans-1093"/>
     <use x="206.738281" xlink:href="#DejaVuSans-1086"/>
     <use x="267.919922" xlink:href="#DejaVuSans-1076"/>
     <use x="337.060547" xlink:href="#DejaVuSans-1085"/>
     <use x="402.441406" xlink:href="#DejaVuSans-1086"/>
     <use x="463.623047" xlink:href="#DejaVuSans-1081"/>
     <use x="528.613281" xlink:href="#DejaVuSans-32"/>
     <use x="560.400391" xlink:href="#DejaVuSans-1089"/>
     <use x="615.380859" xlink:href="#DejaVuSans-1080"/>
     <use x="680.371094" xlink:href="#DejaVuSans-1075"/>
     <use x="732.910156" xlink:href="#DejaVuSans-1085"/>
     <use x="798.291016" xlink:href="#DejaVuSans-1072"/>
     <use x="859.570312" xlink:href="#DejaVuSans-1083"/>
    </g>
   </g>
  </g>
 </g>
 <defs>
  <clipPath id="p36b76a152a">
   <rect height="80.8" width="263.168056" x="158.031944" y="26.8"/>
  </clipPath>
  <clipPath id="p2a188030f2">
   <rect height="80.8" width="42.454169" x="47.675" y="26.8"/>
  </clipPath>
  <clipPath id="pf95d21801f">
   <rect height="80.8" width="152.811112" x="47.675" y="165.4"/>
  </clipPath>
  <clipPath id="pda9f7ae6be">
   <rect height="80.8" width="152.811112" x="268.388888" y="165.4"/>
  </clipPath>
 </defs>
</svg>
